<svg width="25" height="29" viewBox="0 0 25 29" fill="true" xmlns="http://www.w3.org/2000/svg">
<path d="M24.505 19.8319C24.4013 19.7069 24.2994 19.5819 24.1994 19.4613C22.8244 17.7981 21.9925 16.7944 21.9925 12.0863C21.9925 9.64875 21.4094 7.64875 20.26 6.14875C19.4125 5.04062 18.2669 4.2 16.7569 3.57875C16.7375 3.56794 16.7201 3.55376 16.7056 3.53687C16.1625 1.71812 14.6763 0.5 13 0.5C11.3238 0.5 9.83815 1.71812 9.29502 3.535C9.28053 3.55127 9.26342 3.565 9.2444 3.57562C5.72065 5.02625 4.00815 7.80938 4.00815 12.0844C4.00815 16.7944 3.17752 17.7981 1.80127 19.4594C1.70127 19.58 1.5994 19.7025 1.49565 19.83C1.22765 20.1532 1.05785 20.5464 1.00634 20.9631C0.95484 21.3798 1.02379 21.8025 1.20502 22.1812C1.59065 22.9937 2.41252 23.4981 3.35065 23.4981H22.6563C23.59 23.4981 24.4063 22.9944 24.7931 22.1856C24.9752 21.8068 25.0448 21.3837 24.9937 20.9666C24.9426 20.5494 24.773 20.1556 24.505 19.8319ZM13 28.5C13.9032 28.4993 14.7893 28.2541 15.5644 27.7905C16.3395 27.327 16.9746 26.6622 17.4025 25.8669C17.4227 25.8288 17.4326 25.7861 17.4314 25.743C17.4302 25.6999 17.4179 25.6578 17.3956 25.6209C17.3733 25.584 17.3419 25.5534 17.3043 25.5322C17.2668 25.5111 17.2244 25.5 17.1813 25.5H8.82002C8.77685 25.4998 8.73438 25.5109 8.69673 25.532C8.65909 25.5532 8.62757 25.5837 8.60522 25.6206C8.58288 25.6576 8.57049 25.6997 8.56925 25.7428C8.56801 25.786 8.57797 25.8287 8.59815 25.8669C9.02598 26.6621 9.66106 27.3268 10.436 27.7904C11.211 28.2539 12.097 28.4992 13 28.5Z" fill="#22AA56"/>
</svg>
