<svg width="31" height="31" viewBox="0 0 31 31" fill="true" xmlns="http://www.w3.org/2000/svg">
<path d="M3.40148 27.3778H28.9126C29.8519 27.3778 30.6133 28.1439 30.6133 29.0889C30.6133 30.0339 29.8519 30.8 28.9126 30.8H1.70074C0.761448 30.8 0 30.0339 0 29.0889V1.71111C0 0.766091 0.761448 0 1.70074 0C2.64003 0 3.40148 0.766091 3.40148 1.71111V27.3778Z" fill="#22AA56"/>
<path opacity="0.5" d="M9.74423 19.9925C9.10181 20.6819 8.02552 20.7168 7.34027 20.0705C6.65502 19.4242 6.62031 18.3413 7.26273 17.6519L13.6405 10.8074C14.2618 10.1407 15.2942 10.0828 15.9852 10.6761L21.019 14.9978L27.5775 6.63967C28.1595 5.89794 29.229 5.77135 29.9662 6.35693C30.7035 6.94251 30.8293 8.0185 30.2473 8.76023L22.5939 18.5136C21.9961 19.2754 20.8889 19.3849 20.1551 18.7549L15.0119 14.3393L9.74423 19.9925Z" fill="#22AA56"/>
</svg>
