<svg width="36" height="27" viewBox="0 0 36 27" fill="true" xmlns="http://www.w3.org/2000/svg">
<path opacity="0.587821" fill-rule="evenodd" clip-rule="evenodd" d="M8.14258 5.88446C8.14258 9.10489 10.7533 11.7156 13.9737 11.7156C17.1941 11.7156 19.8048 9.10489 19.8048 5.88446C19.8048 2.66402 17.1941 0.0533447 13.9737 0.0533447C10.7533 0.0533447 8.14258 2.66402 8.14258 5.88446ZM22.7202 11.7155C22.7202 14.1308 24.6782 16.0888 27.0935 16.0888C29.5089 16.0888 31.4669 14.1308 31.4669 11.7155C31.4669 9.30017 29.5089 7.34216 27.0935 7.34216C24.6782 7.34216 22.7202 9.30017 22.7202 11.7155Z" fill="#22AA56"/>
<path fill-rule="evenodd" clip-rule="evenodd" d="M13.9492 14.6311C7.06644 14.6311 1.41951 18.1684 0.854466 25.1259C0.823687 25.5049 1.54846 26.2933 1.91405 26.2933H25.9954C27.0905 26.2933 27.1075 25.4121 27.0905 25.1271C26.6633 17.9741 20.9289 14.6311 13.9492 14.6311ZM35.0472 26.2934H29.4261C29.426 23.012 28.3419 19.9839 26.5122 17.5476C31.4782 17.6019 35.5329 20.1126 35.8381 25.4187C35.8504 25.6324 35.8381 26.2934 35.0472 26.2934Z" fill="#22AA56"/>
</svg>
