<svg width="33" height="37" viewBox="0 0 33 37" fill="none" xmlns="http://www.w3.org/2000/svg">
<path fill-rule="evenodd" clip-rule="evenodd" d="M0 12.4481L14.1045 20.641C14.2564 20.7292 14.4157 20.793 14.5778 20.8334V36.7232L1.00594 28.6423C0.38243 28.2711 0 27.5963 0 26.8674V12.4481ZM32.8 12.2303V26.8674C32.8 27.5964 32.4176 28.2712 31.7941 28.6424L18.2223 36.7232V20.6942C18.2553 20.6776 18.2881 20.6599 18.3206 20.6411L32.8 12.2303Z" fill="#911A1D"/>
<path opacity="0.499209" fill-rule="evenodd" clip-rule="evenodd" d="M0.442871 8.47157C0.615153 8.25268 0.832604 8.06769 1.08613 7.93184L15.4361 0.242109C16.0385 -0.0807032 16.7611 -0.0807032 17.3635 0.242109L31.7135 7.93184C31.909 8.03656 32.083 8.17048 32.2314 8.32662L16.4981 17.4656C16.3947 17.5257 16.2993 17.5945 16.2123 17.6704C16.1254 17.5945 16.03 17.5257 15.9266 17.4656L0.442871 8.47157Z" fill="#911A1D"/>
</svg>
