<svg width="24" height="24" viewBox="0 0 24 24" fill="none" xmlns="http://www.w3.org/2000/svg">
<path d="M13.3945 5.47052C12.9367 5.421 12.4715 5.39262 12 5.38556C9.9395 5.3947 7.80354 5.8959 5.78174 6.85628C4.28058 7.59872 2.81828 8.64686 1.54834 9.93976C0.92464 10.5998 0.12862 11.5554 0 12.575C0.0152 13.4582 0.96306 14.5484 1.54834 15.2103C2.7392 16.4524 4.16342 17.4705 5.78174 18.2938C5.83674 18.3205 5.89194 18.3468 5.94726 18.3729L4.44582 20.9949L6.48592 22.2006L17.5142 2.99996L15.5505 1.7998L13.3945 5.47052ZM18.0513 6.7801L16.5527 9.37724C17.2421 10.2729 17.6514 11.3774 17.6514 12.575C17.6514 15.5601 15.1209 17.9803 11.9985 17.9803C11.8635 17.9803 11.7327 17.9657 11.6001 17.9568L10.6084 19.6736C11.0657 19.7226 11.5282 19.7583 12 19.7645C14.0624 19.7552 16.1972 19.2482 18.2168 18.2938C19.7179 17.5513 21.1817 16.5032 22.4516 15.2103C23.0754 14.5503 23.8713 13.5946 24 12.575C23.9848 11.6918 23.0369 10.6016 22.4516 9.93974C21.2608 8.69762 19.8351 7.67948 18.2168 6.85624C18.1622 6.82976 18.1062 6.80594 18.0513 6.7801ZM11.9985 7.16976C12.1355 7.16976 12.2713 7.17524 12.4058 7.1844L11.2441 9.19562C9.61386 9.52614 8.39062 10.9132 8.39062 12.5736C8.39062 12.9906 8.46744 13.3899 8.60888 13.7601C8.60904 13.7605 8.60872 13.7611 8.60888 13.7615L7.44432 15.7786C6.7533 14.8822 6.34568 13.774 6.34568 12.575C6.3457 9.58989 8.87616 7.16974 11.9985 7.16976ZM15.3779 11.4105L12.7603 15.9456C14.3818 15.6089 15.5962 14.2281 15.5962 12.5736C15.5962 12.1641 15.5145 11.7748 15.3779 11.4105Z" fill="#911A1D"/>
</svg>
