<svg width="800" height="800" viewBox="0 0 800 800" fill="none" xmlns="http://www.w3.org/2000/svg">
<rect width="800" height="800" rx="10" fill="black" fill-opacity="0.5"/>
<path d="M259.716 386.098C259.716 326.524 259.716 296.73 278.231 278.231C296.73 259.716 326.524 259.716 386.098 259.716H417.694C477.267 259.716 507.062 259.716 525.561 278.231C544.076 296.73 544.076 326.524 544.076 386.098V417.693C544.076 477.267 544.076 507.062 525.561 525.561C507.062 544.076 477.267 544.076 417.694 544.076H386.098C326.524 544.076 296.73 544.076 278.231 525.561C259.716 507.062 259.716 477.267 259.716 417.693V386.098Z" stroke="white" stroke-width="2"/>
<path fill-rule="evenodd" clip-rule="evenodd" d="M512.48 426.935L512.164 426.619C506.003 420.458 500.695 415.15 495.956 411.153C490.948 406.935 485.498 403.223 478.768 401.201C469.846 398.511 460.328 398.511 451.406 401.201C444.676 403.239 439.242 406.935 434.218 411.153C429.479 415.15 424.171 420.474 418.025 426.635L417.567 427.077C412.717 431.912 409.874 434.755 407.646 436.572L407.33 436.84L407.141 436.477C405.766 433.949 404.155 430.269 401.453 423.965L400.616 422.006L400.269 421.185C394.645 408.073 389.921 397.046 385.261 388.736C380.442 380.19 374.439 372.149 365.087 367.472C357.284 363.564 348.554 361.885 339.858 362.622C329.431 363.491 320.885 368.72 313.239 374.866C306.825 380.032 299.652 387.03 291.311 395.355V417.694C291.311 425.861 291.311 433.254 291.359 439.984L308.957 422.385C319.858 411.485 327.125 404.265 333.049 399.479C338.894 394.771 341.422 394.186 342.528 394.107C345.424 393.861 348.332 394.419 350.932 395.719C351.896 396.209 354.028 397.678 357.725 404.25C361.453 410.885 365.513 420.3 371.58 434.455L372.417 436.414L372.686 437.014C375.039 442.512 377.22 447.599 379.4 451.611C381.69 455.798 385.008 460.822 390.6 464.281C397.19 468.364 405.05 469.882 412.686 468.547C419.163 467.393 424.107 463.965 427.788 460.932C431.295 458.025 435.213 454.107 439.447 449.874L439.921 449.4C446.635 442.686 450.995 438.341 454.581 435.324C458.025 432.417 459.637 431.722 460.521 431.453C463.499 430.555 466.675 430.555 469.652 431.453C470.537 431.722 472.149 432.417 475.592 435.324C479.179 438.341 483.539 442.686 490.269 449.416L511.596 470.743C512.322 459.4 512.449 445.308 512.48 426.935Z" fill="white"/>
<path d="M472.986 354.502C486.073 354.502 496.682 343.893 496.682 330.806C496.682 317.718 486.073 307.109 472.986 307.109C459.898 307.109 449.289 317.718 449.289 330.806C449.289 343.893 459.898 354.502 472.986 354.502Z" fill="white"/>
</svg>
