<svg width="444" height="257" viewBox="0 0 444 257" fill="none" xmlns="http://www.w3.org/2000/svg">
<path d="M0 10C0 4.47715 4.47715 0 10 0H434C439.523 0 444 4.47715 444 10V244C444 249.523 439.523 254 434 254H9.99999C4.47715 254 0 249.523 0 244V10Z" fill="white"/>
<circle cx="145.88" cy="126.414" r="75.0982" stroke="#911A1D" stroke-width="9" stroke-miterlimit="4.13936"/>
<g filter="url(#filter0_d_297_6717)">
<path d="M145.88 51.3157C187.356 51.3157 220.979 84.9383 220.979 126.414C220.979 167.89 187.356 201.512 145.88 201.512C104.405 201.512 70.7822 167.89 70.7822 126.414" stroke="#911A1D" stroke-width="9" stroke-miterlimit="4.13936" stroke-linecap="round"/>
</g>
<circle cx="145.88" cy="126.414" r="44.0231" stroke="#F2F3F9" stroke-width="9" stroke-miterlimit="4.13936"/>
<circle cx="145.88" cy="126.414" r="44.0231" stroke="#F2F3F9" stroke-width="9" stroke-miterlimit="4.13936"/>
<path d="M189.903 126.414C189.903 135.393 187.158 144.156 182.036 151.53C176.913 158.904 169.658 164.536 161.244 167.669C152.83 170.803 143.659 171.288 134.961 169.061C126.263 166.834 118.454 162.001 112.581 155.21C106.708 148.418 103.052 139.994 102.104 131.065C101.155 122.137 102.959 113.132 107.274 105.258C111.589 97.3843 118.208 91.018 126.244 87.0131C134.279 83.0081 143.348 81.556 152.232 82.8516" stroke="#FFADB0" stroke-width="9" stroke-miterlimit="4.13936" stroke-linecap="round"/>
<circle cx="146.921" cy="125.831" r="17.264" transform="rotate(-148.439 146.921 125.831)" stroke="#F2F3F9" stroke-width="9" stroke-miterlimit="4.13936"/>
<path d="M147.924 109C157.93 109.511 165.627 118.035 165.116 128.041" stroke="#3C1F20" stroke-width="9" stroke-miterlimit="4.13936" stroke-linecap="round"/>
<path d="M313.339 50.0469V60H311.295V50.0469H313.339ZM316.401 50.0469V51.6533H308.28V50.0469H316.401ZM315.943 56.377V56.2334C315.943 55.6911 316.021 55.1921 316.176 54.7363C316.331 54.276 316.556 53.8773 316.853 53.54C317.149 53.2028 317.513 52.9408 317.946 52.7539C318.379 52.5625 318.876 52.4668 319.437 52.4668C319.997 52.4668 320.496 52.5625 320.934 52.7539C321.371 52.9408 321.738 53.2028 322.034 53.54C322.335 53.8773 322.563 54.276 322.718 54.7363C322.873 55.1921 322.95 55.6911 322.95 56.2334V56.377C322.95 56.9147 322.873 57.4137 322.718 57.874C322.563 58.3298 322.335 58.7285 322.034 59.0703C321.738 59.4076 321.373 59.6696 320.94 59.8564C320.507 60.0433 320.011 60.1367 319.45 60.1367C318.89 60.1367 318.391 60.0433 317.953 59.8564C317.52 59.6696 317.153 59.4076 316.853 59.0703C316.556 58.7285 316.331 58.3298 316.176 57.874C316.021 57.4137 315.943 56.9147 315.943 56.377ZM317.912 56.2334V56.377C317.912 56.6868 317.939 56.9762 317.994 57.2451C318.049 57.514 318.135 57.751 318.254 57.9561C318.377 58.1566 318.536 58.3138 318.732 58.4277C318.928 58.5417 319.168 58.5986 319.45 58.5986C319.724 58.5986 319.958 58.5417 320.154 58.4277C320.35 58.3138 320.507 58.1566 320.626 57.9561C320.744 57.751 320.831 57.514 320.886 57.2451C320.945 56.9762 320.975 56.6868 320.975 56.377V56.2334C320.975 55.9326 320.945 55.6501 320.886 55.3857C320.831 55.1169 320.742 54.8799 320.619 54.6748C320.501 54.4652 320.343 54.3011 320.147 54.1826C319.951 54.0641 319.715 54.0049 319.437 54.0049C319.159 54.0049 318.922 54.0641 318.726 54.1826C318.534 54.3011 318.377 54.4652 318.254 54.6748C318.135 54.8799 318.049 55.1169 317.994 55.3857C317.939 55.6501 317.912 55.9326 317.912 56.2334ZM319.99 50.0674L321.897 51.6602H320.496L319.416 50.71L318.336 51.6602H316.928L318.842 50.0674H319.99ZM322.321 50.7852H321.282L321.187 49.999C321.378 49.9899 321.531 49.9717 321.645 49.9443C321.763 49.917 321.85 49.8783 321.904 49.8281C321.964 49.7734 321.993 49.7051 321.993 49.623C321.993 49.5137 321.957 49.4316 321.884 49.377C321.811 49.3177 321.711 49.2767 321.583 49.2539C321.46 49.2266 321.316 49.2129 321.152 49.2129L321.2 48.4541C321.528 48.4541 321.815 48.4792 322.062 48.5293C322.308 48.5794 322.515 48.6546 322.684 48.7549C322.852 48.8506 322.978 48.9668 323.06 49.1035C323.146 49.2402 323.189 49.3952 323.189 49.5684C323.189 49.8372 323.098 50.0378 322.916 50.1699C322.738 50.2975 322.54 50.3773 322.321 50.4092V50.7852ZM326.088 54.1826V60H324.119V52.6035H325.965L326.088 54.1826ZM325.801 56.042H325.268C325.268 55.4951 325.338 55.0029 325.479 54.5654C325.621 54.1234 325.819 53.7474 326.074 53.4375C326.329 53.123 326.632 52.8838 326.983 52.7197C327.339 52.5511 327.735 52.4668 328.173 52.4668C328.519 52.4668 328.836 52.5169 329.123 52.6172C329.41 52.7174 329.656 52.877 329.861 53.0957C330.071 53.3145 330.23 53.6038 330.34 53.9639C330.454 54.3239 330.511 54.7637 330.511 55.2832V60H328.528V55.2764C328.528 54.9482 328.483 54.693 328.392 54.5107C328.3 54.3285 328.166 54.2008 327.988 54.1279C327.815 54.0505 327.601 54.0117 327.346 54.0117C327.081 54.0117 326.851 54.0641 326.655 54.1689C326.464 54.2738 326.304 54.4196 326.177 54.6064C326.054 54.7887 325.96 55.0029 325.896 55.249C325.833 55.4951 325.801 55.7594 325.801 56.042ZM336.69 52.6035H338.475V59.7539C338.475 60.4284 338.324 61.0003 338.023 61.4697C337.727 61.9437 337.312 62.3014 336.779 62.543C336.246 62.7891 335.626 62.9121 334.92 62.9121C334.61 62.9121 334.282 62.8711 333.936 62.7891C333.594 62.707 333.266 62.5794 332.951 62.4062C332.641 62.2331 332.382 62.0143 332.172 61.75L333.04 60.5879C333.268 60.8522 333.532 61.0573 333.833 61.2031C334.134 61.3535 334.466 61.4287 334.831 61.4287C335.187 61.4287 335.487 61.3626 335.733 61.2305C335.979 61.1029 336.169 60.9137 336.301 60.6631C336.433 60.417 336.499 60.1185 336.499 59.7676V54.3125L336.69 52.6035ZM331.714 56.3906V56.2471C331.714 55.682 331.782 55.1693 331.919 54.709C332.06 54.2441 332.258 53.8454 332.514 53.5127C332.773 53.18 333.088 52.9225 333.457 52.7402C333.826 52.5579 334.243 52.4668 334.708 52.4668C335.2 52.4668 335.613 52.5579 335.945 52.7402C336.278 52.9225 336.551 53.1823 336.766 53.5195C336.98 53.8522 337.146 54.2464 337.265 54.7021C337.388 55.1533 337.483 55.6478 337.552 56.1855V56.5C337.483 57.015 337.381 57.4935 337.244 57.9355C337.107 58.3776 336.927 58.765 336.704 59.0977C336.481 59.4258 336.203 59.681 335.87 59.8633C335.542 60.0456 335.15 60.1367 334.694 60.1367C334.239 60.1367 333.826 60.0433 333.457 59.8564C333.092 59.6696 332.78 59.4076 332.521 59.0703C332.261 58.7331 332.06 58.3366 331.919 57.8809C331.782 57.4251 331.714 56.9284 331.714 56.3906ZM333.683 56.2471V56.3906C333.683 56.696 333.712 56.9808 333.771 57.2451C333.831 57.5094 333.922 57.7441 334.045 57.9492C334.173 58.1497 334.33 58.307 334.517 58.4209C334.708 58.5303 334.934 58.585 335.193 58.585C335.553 58.585 335.847 58.5098 336.075 58.3594C336.303 58.2044 336.474 57.9925 336.588 57.7236C336.702 57.4548 336.768 57.1449 336.786 56.7939V55.8984C336.777 55.6113 336.738 55.3538 336.67 55.126C336.602 54.8936 336.506 54.6953 336.383 54.5312C336.26 54.3672 336.1 54.2396 335.904 54.1484C335.708 54.0573 335.476 54.0117 335.207 54.0117C334.947 54.0117 334.722 54.071 334.53 54.1895C334.343 54.3034 334.186 54.4606 334.059 54.6611C333.936 54.8617 333.842 55.0986 333.778 55.3721C333.715 55.641 333.683 55.9326 333.683 56.2471ZM350.014 58.4004V60H345.003V58.4004H350.014ZM345.666 50.0469V60H343.615V50.0469H345.666ZM353.145 52.6035V60H351.169V52.6035H353.145ZM351.046 50.6758C351.046 50.3887 351.146 50.1517 351.347 49.9648C351.547 49.778 351.816 49.6846 352.153 49.6846C352.486 49.6846 352.753 49.778 352.953 49.9648C353.158 50.1517 353.261 50.3887 353.261 50.6758C353.261 50.9629 353.158 51.1999 352.953 51.3867C352.753 51.5736 352.486 51.667 352.153 51.667C351.816 51.667 351.547 51.5736 351.347 51.3867C351.146 51.1999 351.046 50.9629 351.046 50.6758ZM351.039 61.5381C351.039 61.2738 351.139 61.0527 351.34 60.875C351.54 60.7018 351.809 60.6152 352.146 60.6152C352.479 60.6152 352.746 60.7018 352.946 60.875C353.151 61.0527 353.254 61.2738 353.254 61.5381C353.254 61.7979 353.151 62.0166 352.946 62.1943C352.746 62.3721 352.479 62.4609 352.146 62.4609C351.809 62.4609 351.54 62.3721 351.34 62.1943C351.139 62.0166 351.039 61.7979 351.039 61.5381ZM357.827 58.5986C358.069 58.5986 358.283 58.5531 358.47 58.4619C358.657 58.3662 358.802 58.234 358.907 58.0654C359.017 57.8923 359.074 57.6895 359.078 57.457H360.931C360.926 57.9766 360.787 58.4391 360.514 58.8447C360.24 59.2458 359.873 59.5625 359.413 59.7949C358.953 60.0228 358.438 60.1367 357.868 60.1367C357.294 60.1367 356.793 60.041 356.364 59.8496C355.94 59.6582 355.587 59.3939 355.305 59.0566C355.022 58.7148 354.81 58.3184 354.669 57.8672C354.528 57.4115 354.457 56.9238 354.457 56.4043V56.2061C354.457 55.682 354.528 55.1943 354.669 54.7432C354.81 54.2874 355.022 53.891 355.305 53.5537C355.587 53.2119 355.94 52.9453 356.364 52.7539C356.788 52.5625 357.285 52.4668 357.854 52.4668C358.461 52.4668 358.992 52.583 359.447 52.8154C359.908 53.0479 360.268 53.3805 360.527 53.8135C360.792 54.2419 360.926 54.75 360.931 55.3379H359.078C359.074 55.0918 359.021 54.8685 358.921 54.668C358.825 54.4674 358.684 54.3079 358.497 54.1895C358.315 54.0664 358.089 54.0049 357.82 54.0049C357.533 54.0049 357.299 54.0664 357.116 54.1895C356.934 54.3079 356.793 54.472 356.692 54.6816C356.592 54.8867 356.521 55.1214 356.48 55.3857C356.444 55.6455 356.426 55.9189 356.426 56.2061V56.4043C356.426 56.6914 356.444 56.9671 356.48 57.2314C356.517 57.4958 356.585 57.7305 356.686 57.9355C356.79 58.1406 356.934 58.3024 357.116 58.4209C357.299 58.5394 357.535 58.5986 357.827 58.5986ZM363.993 49.5V60H362.024V49.5H363.993ZM363.713 56.042H363.173C363.177 55.527 363.246 55.0531 363.378 54.6201C363.51 54.1826 363.699 53.8044 363.945 53.4854C364.191 53.1618 364.485 52.9111 364.827 52.7334C365.174 52.5557 365.556 52.4668 365.976 52.4668C366.34 52.4668 366.671 52.5192 366.967 52.624C367.268 52.7243 367.525 52.8883 367.739 53.1162C367.958 53.3395 368.127 53.6335 368.245 53.998C368.364 54.3626 368.423 54.8047 368.423 55.3242V60H366.44V55.3105C366.44 54.9824 366.393 54.7249 366.297 54.5381C366.206 54.3467 366.071 54.2122 365.894 54.1348C365.72 54.0527 365.506 54.0117 365.251 54.0117C364.968 54.0117 364.727 54.0641 364.526 54.1689C364.33 54.2738 364.173 54.4196 364.055 54.6064C363.936 54.7887 363.85 55.0029 363.795 55.249C363.74 55.4951 363.713 55.7594 363.713 56.042ZM376.79 60H374.623L374.637 58.4004H376.79C377.328 58.4004 377.781 58.2796 378.15 58.0381C378.52 57.792 378.798 57.4342 378.984 56.9648C379.176 56.4954 379.271 55.9281 379.271 55.2627V54.7773C379.271 54.2669 379.217 53.818 379.107 53.4307C379.003 53.0433 378.845 52.7174 378.636 52.4531C378.426 52.1888 378.169 51.9906 377.863 51.8584C377.558 51.7217 377.207 51.6533 376.811 51.6533H374.582V50.0469H376.811C377.476 50.0469 378.084 50.1608 378.636 50.3887C379.192 50.612 379.673 50.9333 380.078 51.3525C380.484 51.7718 380.796 52.2731 381.015 52.8564C381.238 53.4352 381.35 54.0801 381.35 54.791V55.2627C381.35 55.9691 381.238 56.6139 381.015 57.1973C380.796 57.7806 380.484 58.2819 380.078 58.7012C379.677 59.1159 379.196 59.4372 378.636 59.665C378.08 59.8883 377.465 60 376.79 60ZM375.785 50.0469V60H373.734V50.0469H375.785ZM377.508 54.374V55.5908H372.716V54.374H377.508ZM386.709 58.332V55.0371C386.709 54.8001 386.67 54.5973 386.593 54.4287C386.515 54.2555 386.395 54.1211 386.23 54.0254C386.071 53.9297 385.864 53.8818 385.608 53.8818C385.39 53.8818 385.201 53.9206 385.041 53.998C384.882 54.071 384.758 54.1781 384.672 54.3193C384.585 54.4561 384.542 54.6178 384.542 54.8047H382.573C382.573 54.4902 382.646 54.1917 382.792 53.9092C382.938 53.6266 383.15 53.3783 383.428 53.1641C383.706 52.9453 384.036 52.7744 384.419 52.6514C384.806 52.5283 385.239 52.4668 385.718 52.4668C386.292 52.4668 386.802 52.5625 387.249 52.7539C387.696 52.9453 388.047 53.2324 388.302 53.6152C388.562 53.998 388.691 54.4766 388.691 55.0508V58.2158C388.691 58.6214 388.716 58.9541 388.767 59.2139C388.817 59.4691 388.89 59.6924 388.985 59.8838V60H386.996C386.9 59.7995 386.827 59.5488 386.777 59.248C386.732 58.9427 386.709 58.6374 386.709 58.332ZM386.969 55.4951L386.982 56.6094H385.882C385.622 56.6094 385.396 56.639 385.205 56.6982C385.014 56.7575 384.856 56.8418 384.733 56.9512C384.61 57.056 384.519 57.179 384.46 57.3203C384.405 57.4616 384.378 57.6165 384.378 57.7852C384.378 57.9538 384.417 58.1064 384.494 58.2432C384.572 58.3753 384.683 58.4801 384.829 58.5576C384.975 58.6305 385.146 58.667 385.342 58.667C385.638 58.667 385.896 58.6077 386.114 58.4893C386.333 58.3708 386.502 58.2249 386.62 58.0518C386.743 57.8786 386.807 57.7145 386.812 57.5596L387.331 58.3936C387.258 58.5804 387.158 58.7741 387.03 58.9746C386.907 59.1751 386.75 59.3643 386.559 59.542C386.367 59.7152 386.137 59.8587 385.868 59.9727C385.599 60.082 385.28 60.1367 384.911 60.1367C384.442 60.1367 384.016 60.0433 383.633 59.8564C383.255 59.665 382.954 59.403 382.73 59.0703C382.512 58.7331 382.402 58.3503 382.402 57.9219C382.402 57.5345 382.475 57.1904 382.621 56.8896C382.767 56.5889 382.981 56.3359 383.264 56.1309C383.551 55.9212 383.909 55.764 384.337 55.6592C384.765 55.5498 385.262 55.4951 385.827 55.4951H386.969ZM386.688 49.582H388.09C388.09 49.974 387.992 50.3226 387.796 50.6279C387.604 50.9287 387.331 51.1657 386.976 51.3389C386.62 51.5075 386.201 51.5918 385.718 51.5918C384.984 51.5918 384.403 51.4049 383.975 51.0312C383.551 50.6576 383.339 50.1745 383.339 49.582H384.733C384.733 49.819 384.806 50.0309 384.952 50.2178C385.103 50.4046 385.358 50.498 385.718 50.498C386.073 50.498 386.324 50.4046 386.47 50.2178C386.616 50.0309 386.688 49.819 386.688 49.582ZM384.091 61.5039C384.091 61.2396 384.191 61.0186 384.392 60.8408C384.592 60.6676 384.861 60.5811 385.198 60.5811C385.531 60.5811 385.798 60.6676 385.998 60.8408C386.203 61.0186 386.306 61.2396 386.306 61.5039C386.306 61.7637 386.203 61.9824 385.998 62.1602C385.798 62.3379 385.531 62.4268 385.198 62.4268C384.861 62.4268 384.592 62.3379 384.392 62.1602C384.191 61.9824 384.091 61.7637 384.091 61.5039ZM393.832 52.6035V53.998H389.525V52.6035H393.832ZM390.592 50.7783H392.561V57.7715C392.561 57.9857 392.588 58.1497 392.643 58.2637C392.702 58.3776 392.788 58.4574 392.902 58.5029C393.016 58.5439 393.16 58.5645 393.333 58.5645C393.456 58.5645 393.565 58.5599 393.661 58.5508C393.761 58.5371 393.846 58.5234 393.914 58.5098L393.921 59.959C393.752 60.0137 393.57 60.057 393.374 60.0889C393.178 60.1208 392.962 60.1367 392.725 60.1367C392.292 60.1367 391.913 60.0661 391.59 59.9248C391.271 59.779 391.025 59.5465 390.852 59.2275C390.678 58.9085 390.592 58.4893 390.592 57.9697V50.7783Z" fill="#5A5881"/>
<path d="M317.782 81.8818V83.5693H308.554L308.483 82.2949L314.003 73.6465H315.699L313.862 76.793L310.689 81.8818H317.782ZM316.183 73.6465V86.4434H314.064V73.6465H316.183ZM327.564 82.9541C327.564 83.751 327.38 84.4219 327.011 84.9668C326.642 85.5117 326.138 85.9248 325.499 86.2061C324.866 86.4814 324.151 86.6191 323.354 86.6191C322.558 86.6191 321.84 86.4814 321.201 86.2061C320.562 85.9248 320.059 85.5117 319.689 84.9668C319.32 84.4219 319.136 83.751 319.136 82.9541C319.136 82.4268 319.238 81.9492 319.443 81.5215C319.648 81.0879 319.938 80.7158 320.313 80.4053C320.694 80.0889 321.14 79.8457 321.649 79.6758C322.165 79.5059 322.728 79.4209 323.337 79.4209C324.146 79.4209 324.869 79.5703 325.508 79.8691C326.146 80.168 326.647 80.5811 327.011 81.1084C327.38 81.6357 327.564 82.251 327.564 82.9541ZM325.438 82.8486C325.438 82.4209 325.35 82.0459 325.174 81.7236C324.998 81.4014 324.752 81.1523 324.436 80.9766C324.119 80.8008 323.753 80.7129 323.337 80.7129C322.915 80.7129 322.549 80.8008 322.238 80.9766C321.928 81.1523 321.685 81.4014 321.509 81.7236C321.339 82.0459 321.254 82.4209 321.254 82.8486C321.254 83.2822 321.339 83.6572 321.509 83.9736C321.679 84.2842 321.922 84.5215 322.238 84.6855C322.555 84.8496 322.927 84.9316 323.354 84.9316C323.782 84.9316 324.151 84.8496 324.462 84.6855C324.772 84.5215 325.013 84.2842 325.183 83.9736C325.353 83.6572 325.438 83.2822 325.438 82.8486ZM327.274 77.0127C327.274 77.6514 327.104 78.2197 326.765 78.7178C326.431 79.2158 325.968 79.6084 325.376 79.8955C324.784 80.1768 324.11 80.3174 323.354 80.3174C322.593 80.3174 321.913 80.1768 321.315 79.8955C320.724 79.6084 320.258 79.2158 319.918 78.7178C319.584 78.2197 319.417 77.6514 319.417 77.0127C319.417 76.251 319.584 75.6094 319.918 75.0879C320.258 74.5605 320.724 74.1592 321.315 73.8838C321.907 73.6084 322.584 73.4707 323.346 73.4707C324.107 73.4707 324.784 73.6084 325.376 73.8838C325.968 74.1592 326.431 74.5605 326.765 75.0879C327.104 75.6094 327.274 76.251 327.274 77.0127ZM325.156 77.083C325.156 76.7021 325.08 76.3682 324.928 76.0811C324.781 75.7881 324.573 75.5596 324.304 75.3955C324.034 75.2314 323.715 75.1494 323.346 75.1494C322.977 75.1494 322.657 75.2285 322.388 75.3867C322.118 75.5449 321.91 75.7676 321.764 76.0547C321.617 76.3418 321.544 76.6846 321.544 77.083C321.544 77.4756 321.617 77.8184 321.764 78.1113C321.91 78.3984 322.118 78.624 322.388 78.7881C322.663 78.9521 322.985 79.0342 323.354 79.0342C323.724 79.0342 324.043 78.9521 324.312 78.7881C324.582 78.624 324.79 78.3984 324.937 78.1113C325.083 77.8184 325.156 77.4756 325.156 77.083ZM337.769 78.9727V81.0645C337.769 82.0664 337.669 82.9219 337.47 83.6309C337.276 84.334 336.995 84.9053 336.626 85.3447C336.257 85.7842 335.814 86.1064 335.299 86.3115C334.789 86.5166 334.218 86.6191 333.585 86.6191C333.081 86.6191 332.612 86.5547 332.179 86.4258C331.751 86.2969 331.364 86.0947 331.019 85.8193C330.673 85.5439 330.377 85.1895 330.131 84.7559C329.891 84.3164 329.703 83.792 329.568 83.1826C329.439 82.5732 329.375 81.8672 329.375 81.0645V78.9727C329.375 77.9648 329.475 77.1152 329.674 76.4238C329.873 75.7266 330.157 75.1611 330.526 74.7275C330.896 74.2881 331.335 73.9688 331.845 73.7695C332.36 73.5703 332.935 73.4707 333.567 73.4707C334.077 73.4707 334.546 73.5352 334.974 73.6641C335.407 73.7871 335.794 73.9834 336.134 74.2529C336.479 74.5225 336.772 74.874 337.013 75.3076C337.259 75.7354 337.446 76.2539 337.575 76.8633C337.704 77.4668 337.769 78.1699 337.769 78.9727ZM335.65 81.3633V78.6562C335.65 78.1465 335.621 77.6982 335.562 77.3115C335.504 76.9189 335.416 76.5879 335.299 76.3184C335.188 76.043 335.047 75.8203 334.877 75.6504C334.707 75.4746 334.514 75.3486 334.297 75.2725C334.08 75.1904 333.837 75.1494 333.567 75.1494C333.239 75.1494 332.946 75.2139 332.688 75.3428C332.431 75.4658 332.214 75.665 332.038 75.9404C331.862 76.2158 331.728 76.5791 331.634 77.0303C331.546 77.4756 331.502 78.0176 331.502 78.6562V81.3633C331.502 81.8789 331.531 82.333 331.59 82.7256C331.648 83.1182 331.736 83.4551 331.854 83.7363C331.971 84.0117 332.111 84.2402 332.275 84.4219C332.445 84.5977 332.639 84.7266 332.855 84.8086C333.078 84.8906 333.321 84.9316 333.585 84.9316C333.919 84.9316 334.215 84.8672 334.473 84.7383C334.73 84.6094 334.947 84.4043 335.123 84.123C335.299 83.8359 335.431 83.4639 335.519 83.0068C335.606 82.5498 335.65 82.002 335.65 81.3633Z" fill="#15134B"/>
<path d="M313.339 109.047V119H311.295V109.047H313.339ZM316.401 109.047V110.653H308.28V109.047H316.401ZM319.368 108.5V119H317.399V108.5H319.368ZM319.088 115.042H318.548C318.552 114.527 318.621 114.053 318.753 113.62C318.885 113.183 319.074 112.804 319.32 112.485C319.566 112.162 319.86 111.911 320.202 111.733C320.549 111.556 320.931 111.467 321.351 111.467C321.715 111.467 322.046 111.519 322.342 111.624C322.643 111.724 322.9 111.888 323.114 112.116C323.333 112.34 323.502 112.633 323.62 112.998C323.739 113.363 323.798 113.805 323.798 114.324V119H321.815V114.311C321.815 113.982 321.768 113.725 321.672 113.538C321.581 113.347 321.446 113.212 321.269 113.135C321.095 113.053 320.881 113.012 320.626 113.012C320.343 113.012 320.102 113.064 319.901 113.169C319.705 113.274 319.548 113.42 319.43 113.606C319.311 113.789 319.225 114.003 319.17 114.249C319.115 114.495 319.088 114.759 319.088 115.042ZM329.287 117.332V114.037C329.287 113.8 329.248 113.597 329.171 113.429C329.093 113.256 328.973 113.121 328.809 113.025C328.649 112.93 328.442 112.882 328.187 112.882C327.968 112.882 327.779 112.921 327.619 112.998C327.46 113.071 327.337 113.178 327.25 113.319C327.163 113.456 327.12 113.618 327.12 113.805H325.151C325.151 113.49 325.224 113.192 325.37 112.909C325.516 112.627 325.728 112.378 326.006 112.164C326.284 111.945 326.614 111.774 326.997 111.651C327.384 111.528 327.817 111.467 328.296 111.467C328.87 111.467 329.381 111.562 329.827 111.754C330.274 111.945 330.625 112.232 330.88 112.615C331.14 112.998 331.27 113.477 331.27 114.051V117.216C331.27 117.621 331.295 117.954 331.345 118.214C331.395 118.469 331.468 118.692 331.563 118.884V119H329.574C329.479 118.799 329.406 118.549 329.355 118.248C329.31 117.943 329.287 117.637 329.287 117.332ZM329.547 114.495L329.561 115.609H328.46C328.2 115.609 327.975 115.639 327.783 115.698C327.592 115.757 327.435 115.842 327.312 115.951C327.188 116.056 327.097 116.179 327.038 116.32C326.983 116.462 326.956 116.617 326.956 116.785C326.956 116.954 326.995 117.106 327.072 117.243C327.15 117.375 327.261 117.48 327.407 117.558C327.553 117.631 327.724 117.667 327.92 117.667C328.216 117.667 328.474 117.608 328.692 117.489C328.911 117.371 329.08 117.225 329.198 117.052C329.321 116.879 329.385 116.715 329.39 116.56L329.909 117.394C329.836 117.58 329.736 117.774 329.608 117.975C329.485 118.175 329.328 118.364 329.137 118.542C328.945 118.715 328.715 118.859 328.446 118.973C328.177 119.082 327.858 119.137 327.489 119.137C327.02 119.137 326.594 119.043 326.211 118.856C325.833 118.665 325.532 118.403 325.309 118.07C325.09 117.733 324.98 117.35 324.98 116.922C324.98 116.535 325.053 116.19 325.199 115.89C325.345 115.589 325.559 115.336 325.842 115.131C326.129 114.921 326.487 114.764 326.915 114.659C327.343 114.55 327.84 114.495 328.405 114.495H329.547ZM327.913 108.5L329.26 110.605H327.646L325.773 108.5H327.913ZM334.715 113.183V119H332.746V111.604H334.592L334.715 113.183ZM334.428 115.042H333.895C333.895 114.495 333.965 114.003 334.106 113.565C334.248 113.123 334.446 112.747 334.701 112.438C334.956 112.123 335.259 111.884 335.61 111.72C335.966 111.551 336.362 111.467 336.8 111.467C337.146 111.467 337.463 111.517 337.75 111.617C338.037 111.717 338.283 111.877 338.488 112.096C338.698 112.314 338.857 112.604 338.967 112.964C339.081 113.324 339.138 113.764 339.138 114.283V119H337.155V114.276C337.155 113.948 337.11 113.693 337.019 113.511C336.927 113.328 336.793 113.201 336.615 113.128C336.442 113.05 336.228 113.012 335.973 113.012C335.708 113.012 335.478 113.064 335.282 113.169C335.091 113.274 334.931 113.42 334.804 113.606C334.681 113.789 334.587 114.003 334.523 114.249C334.46 114.495 334.428 114.759 334.428 115.042ZM342.556 108.5V119H340.587V108.5H342.556ZM342.275 115.042H341.735C341.74 114.527 341.808 114.053 341.94 113.62C342.073 113.183 342.262 112.804 342.508 112.485C342.754 112.162 343.048 111.911 343.39 111.733C343.736 111.556 344.119 111.467 344.538 111.467C344.903 111.467 345.233 111.519 345.529 111.624C345.83 111.724 346.088 111.888 346.302 112.116C346.521 112.34 346.689 112.633 346.808 112.998C346.926 113.363 346.985 113.805 346.985 114.324V119H345.003V114.311C345.003 113.982 344.955 113.725 344.859 113.538C344.768 113.347 344.634 113.212 344.456 113.135C344.283 113.053 344.069 113.012 343.813 113.012C343.531 113.012 343.289 113.064 343.089 113.169C342.893 113.274 342.736 113.42 342.617 113.606C342.499 113.789 342.412 114.003 342.357 114.249C342.303 114.495 342.275 114.759 342.275 115.042ZM357.861 115.698H359.905C359.864 116.368 359.68 116.963 359.352 117.482C359.028 118.002 358.575 118.408 357.991 118.699C357.412 118.991 356.715 119.137 355.899 119.137C355.261 119.137 354.689 119.027 354.184 118.809C353.678 118.585 353.245 118.266 352.885 117.852C352.529 117.437 352.258 116.936 352.071 116.348C351.884 115.76 351.791 115.101 351.791 114.372V113.682C351.791 112.952 351.887 112.294 352.078 111.706C352.274 111.114 352.552 110.61 352.912 110.195C353.277 109.781 353.712 109.462 354.218 109.238C354.724 109.015 355.289 108.903 355.913 108.903C356.743 108.903 357.442 109.054 358.012 109.354C358.586 109.655 359.03 110.07 359.345 110.599C359.664 111.127 359.855 111.729 359.919 112.403H357.868C357.845 112.002 357.766 111.663 357.629 111.385C357.492 111.102 357.285 110.89 357.007 110.749C356.733 110.603 356.369 110.53 355.913 110.53C355.571 110.53 355.273 110.594 355.018 110.722C354.762 110.849 354.548 111.043 354.375 111.303C354.202 111.562 354.072 111.891 353.985 112.287C353.903 112.679 353.862 113.139 353.862 113.668V114.372C353.862 114.887 353.901 115.34 353.979 115.732C354.056 116.12 354.174 116.448 354.334 116.717C354.498 116.981 354.708 117.182 354.963 117.318C355.223 117.451 355.535 117.517 355.899 117.517C356.328 117.517 356.681 117.448 356.959 117.312C357.237 117.175 357.449 116.972 357.595 116.703C357.745 116.434 357.834 116.099 357.861 115.698ZM360.814 115.377V115.233C360.814 114.691 360.892 114.192 361.047 113.736C361.202 113.276 361.427 112.877 361.724 112.54C362.02 112.203 362.384 111.941 362.817 111.754C363.25 111.562 363.747 111.467 364.308 111.467C364.868 111.467 365.367 111.562 365.805 111.754C366.242 111.941 366.609 112.203 366.905 112.54C367.206 112.877 367.434 113.276 367.589 113.736C367.744 114.192 367.821 114.691 367.821 115.233V115.377C367.821 115.915 367.744 116.414 367.589 116.874C367.434 117.33 367.206 117.729 366.905 118.07C366.609 118.408 366.244 118.67 365.812 118.856C365.379 119.043 364.882 119.137 364.321 119.137C363.761 119.137 363.262 119.043 362.824 118.856C362.391 118.67 362.024 118.408 361.724 118.07C361.427 117.729 361.202 117.33 361.047 116.874C360.892 116.414 360.814 115.915 360.814 115.377ZM362.783 115.233V115.377C362.783 115.687 362.811 115.976 362.865 116.245C362.92 116.514 363.007 116.751 363.125 116.956C363.248 117.157 363.408 117.314 363.604 117.428C363.799 117.542 364.039 117.599 364.321 117.599C364.595 117.599 364.829 117.542 365.025 117.428C365.221 117.314 365.379 117.157 365.497 116.956C365.616 116.751 365.702 116.514 365.757 116.245C365.816 115.976 365.846 115.687 365.846 115.377V115.233C365.846 114.933 365.816 114.65 365.757 114.386C365.702 114.117 365.613 113.88 365.49 113.675C365.372 113.465 365.215 113.301 365.019 113.183C364.823 113.064 364.586 113.005 364.308 113.005C364.03 113.005 363.793 113.064 363.597 113.183C363.405 113.301 363.248 113.465 363.125 113.675C363.007 113.88 362.92 114.117 362.865 114.386C362.811 114.65 362.783 114.933 362.783 115.233ZM364.868 108.5L366.933 110.4V110.482H365.367L364.294 109.484L363.234 110.482H361.696V110.38L363.727 108.5H364.868ZM370.959 113.183V119H368.99V111.604H370.836L370.959 113.183ZM370.672 115.042H370.139C370.139 114.495 370.209 114.003 370.351 113.565C370.492 113.123 370.69 112.747 370.945 112.438C371.201 112.123 371.504 111.884 371.854 111.72C372.21 111.551 372.606 111.467 373.044 111.467C373.39 111.467 373.707 111.517 373.994 111.617C374.281 111.717 374.527 111.877 374.732 112.096C374.942 112.314 375.102 112.604 375.211 112.964C375.325 113.324 375.382 113.764 375.382 114.283V119H373.399V114.276C373.399 113.948 373.354 113.693 373.263 113.511C373.172 113.328 373.037 113.201 372.859 113.128C372.686 113.05 372.472 113.012 372.217 113.012C371.952 113.012 371.722 113.064 371.526 113.169C371.335 113.274 371.175 113.42 371.048 113.606C370.925 113.789 370.831 114.003 370.768 114.249C370.704 114.495 370.672 114.759 370.672 115.042ZM381.562 111.604H383.346V118.754C383.346 119.428 383.195 120 382.895 120.47C382.598 120.944 382.184 121.301 381.65 121.543C381.117 121.789 380.497 121.912 379.791 121.912C379.481 121.912 379.153 121.871 378.807 121.789C378.465 121.707 378.137 121.579 377.822 121.406C377.512 121.233 377.253 121.014 377.043 120.75L377.911 119.588C378.139 119.852 378.403 120.057 378.704 120.203C379.005 120.354 379.338 120.429 379.702 120.429C380.058 120.429 380.358 120.363 380.604 120.23C380.851 120.103 381.04 119.914 381.172 119.663C381.304 119.417 381.37 119.118 381.37 118.768V113.312L381.562 111.604ZM376.585 115.391V115.247C376.585 114.682 376.653 114.169 376.79 113.709C376.931 113.244 377.13 112.845 377.385 112.513C377.645 112.18 377.959 111.923 378.328 111.74C378.697 111.558 379.114 111.467 379.579 111.467C380.071 111.467 380.484 111.558 380.816 111.74C381.149 111.923 381.423 112.182 381.637 112.52C381.851 112.852 382.017 113.246 382.136 113.702C382.259 114.153 382.354 114.648 382.423 115.186V115.5C382.354 116.015 382.252 116.493 382.115 116.936C381.979 117.378 381.799 117.765 381.575 118.098C381.352 118.426 381.074 118.681 380.741 118.863C380.413 119.046 380.021 119.137 379.565 119.137C379.11 119.137 378.697 119.043 378.328 118.856C377.964 118.67 377.651 118.408 377.392 118.07C377.132 117.733 376.931 117.337 376.79 116.881C376.653 116.425 376.585 115.928 376.585 115.391ZM378.554 115.247V115.391C378.554 115.696 378.583 115.981 378.643 116.245C378.702 116.509 378.793 116.744 378.916 116.949C379.044 117.15 379.201 117.307 379.388 117.421C379.579 117.53 379.805 117.585 380.064 117.585C380.424 117.585 380.718 117.51 380.946 117.359C381.174 117.204 381.345 116.993 381.459 116.724C381.573 116.455 381.639 116.145 381.657 115.794V114.898C381.648 114.611 381.609 114.354 381.541 114.126C381.473 113.894 381.377 113.695 381.254 113.531C381.131 113.367 380.971 113.24 380.775 113.148C380.579 113.057 380.347 113.012 380.078 113.012C379.818 113.012 379.593 113.071 379.401 113.189C379.215 113.303 379.057 113.461 378.93 113.661C378.807 113.862 378.713 114.099 378.649 114.372C378.586 114.641 378.554 114.933 378.554 115.247Z" fill="#5A5881"/>
<path d="M317.944 140.579V142.267H308.715L308.645 140.992L314.165 132.344H315.861L314.024 135.49L310.851 140.579H317.944ZM316.344 132.344V145.141H314.226V132.344H316.344ZM327.937 143.453V145.141H319.359V143.69L323.525 139.146C323.982 138.631 324.342 138.186 324.606 137.811C324.87 137.436 325.054 137.099 325.16 136.8C325.271 136.495 325.327 136.199 325.327 135.912C325.327 135.508 325.25 135.153 325.098 134.849C324.952 134.538 324.735 134.295 324.448 134.119C324.161 133.938 323.812 133.847 323.402 133.847C322.927 133.847 322.529 133.949 322.207 134.154C321.884 134.359 321.641 134.644 321.477 135.007C321.313 135.364 321.231 135.774 321.231 136.237H319.113C319.113 135.493 319.283 134.813 319.623 134.198C319.962 133.577 320.455 133.085 321.099 132.722C321.744 132.353 322.52 132.168 323.428 132.168C324.284 132.168 325.01 132.312 325.608 132.599C326.206 132.886 326.66 133.293 326.97 133.82C327.287 134.348 327.445 134.972 327.445 135.692C327.445 136.091 327.38 136.486 327.251 136.879C327.123 137.271 326.938 137.664 326.698 138.057C326.463 138.443 326.185 138.833 325.863 139.226C325.541 139.612 325.186 140.005 324.799 140.403L322.031 143.453H327.937ZM337.93 137.67V139.762C337.93 140.764 337.831 141.619 337.631 142.328C337.438 143.031 337.157 143.603 336.788 144.042C336.418 144.481 335.976 144.804 335.46 145.009C334.951 145.214 334.379 145.316 333.747 145.316C333.243 145.316 332.774 145.252 332.34 145.123C331.913 144.994 331.526 144.792 331.18 144.517C330.834 144.241 330.539 143.887 330.292 143.453C330.052 143.014 329.865 142.489 329.73 141.88C329.601 141.271 329.537 140.564 329.537 139.762V137.67C329.537 136.662 329.636 135.812 329.835 135.121C330.035 134.424 330.319 133.858 330.688 133.425C331.057 132.985 331.497 132.666 332.006 132.467C332.522 132.268 333.096 132.168 333.729 132.168C334.239 132.168 334.708 132.232 335.135 132.361C335.569 132.484 335.956 132.681 336.295 132.95C336.641 133.22 336.934 133.571 337.174 134.005C337.42 134.433 337.608 134.951 337.737 135.561C337.866 136.164 337.93 136.867 337.93 137.67ZM335.812 140.061V137.354C335.812 136.844 335.783 136.396 335.724 136.009C335.666 135.616 335.578 135.285 335.46 135.016C335.349 134.74 335.208 134.518 335.039 134.348C334.869 134.172 334.675 134.046 334.458 133.97C334.242 133.888 333.999 133.847 333.729 133.847C333.401 133.847 333.108 133.911 332.85 134.04C332.592 134.163 332.375 134.362 332.2 134.638C332.024 134.913 331.889 135.276 331.795 135.728C331.708 136.173 331.664 136.715 331.664 137.354V140.061C331.664 140.576 331.693 141.03 331.751 141.423C331.81 141.815 331.898 142.152 332.015 142.434C332.132 142.709 332.273 142.938 332.437 143.119C332.607 143.295 332.8 143.424 333.017 143.506C333.24 143.588 333.483 143.629 333.747 143.629C334.081 143.629 334.376 143.564 334.634 143.436C334.892 143.307 335.109 143.102 335.285 142.82C335.46 142.533 335.592 142.161 335.68 141.704C335.768 141.247 335.812 140.699 335.812 140.061Z" fill="#15134B"/>
<path d="M388.128 141.937C388.128 142.512 387.995 142.997 387.728 143.39C387.462 143.784 387.098 144.082 386.636 144.285C386.179 144.484 385.663 144.584 385.088 144.584C384.512 144.584 383.994 144.484 383.532 144.285C383.071 144.082 382.707 143.784 382.441 143.39C382.174 142.997 382.041 142.512 382.041 141.937C382.041 141.556 382.115 141.211 382.263 140.902C382.411 140.589 382.621 140.32 382.891 140.096C383.166 139.867 383.488 139.692 383.856 139.569C384.229 139.446 384.635 139.385 385.075 139.385C385.659 139.385 386.182 139.493 386.643 139.709C387.104 139.925 387.466 140.223 387.728 140.604C387.995 140.985 388.128 141.429 388.128 141.937ZM386.592 141.861C386.592 141.552 386.529 141.281 386.402 141.048C386.275 140.815 386.097 140.635 385.868 140.509C385.64 140.382 385.375 140.318 385.075 140.318C384.77 140.318 384.506 140.382 384.281 140.509C384.057 140.635 383.882 140.815 383.755 141.048C383.632 141.281 383.571 141.552 383.571 141.861C383.571 142.174 383.632 142.445 383.755 142.673C383.877 142.897 384.053 143.069 384.281 143.187C384.51 143.306 384.779 143.365 385.088 143.365C385.397 143.365 385.663 143.306 385.887 143.187C386.112 143.069 386.285 142.897 386.408 142.673C386.531 142.445 386.592 142.174 386.592 141.861ZM387.919 137.646C387.919 138.107 387.796 138.517 387.551 138.877C387.309 139.237 386.975 139.52 386.548 139.728C386.12 139.931 385.634 140.032 385.088 140.032C384.538 140.032 384.047 139.931 383.615 139.728C383.188 139.52 382.851 139.237 382.606 138.877C382.365 138.517 382.244 138.107 382.244 137.646C382.244 137.096 382.365 136.632 382.606 136.256C382.851 135.875 383.188 135.585 383.615 135.386C384.042 135.187 384.531 135.088 385.081 135.088C385.631 135.088 386.12 135.187 386.548 135.386C386.975 135.585 387.309 135.875 387.551 136.256C387.796 136.632 387.919 137.096 387.919 137.646ZM386.389 137.697C386.389 137.421 386.334 137.18 386.224 136.973C386.118 136.761 385.968 136.596 385.773 136.478C385.579 136.359 385.348 136.3 385.081 136.3C384.815 136.3 384.584 136.357 384.389 136.471C384.195 136.586 384.045 136.747 383.939 136.954C383.833 137.161 383.78 137.409 383.78 137.697C383.78 137.98 383.833 138.228 383.939 138.439C384.045 138.647 384.195 138.809 384.389 138.928C384.588 139.046 384.821 139.106 385.088 139.106C385.354 139.106 385.585 139.046 385.78 138.928C385.974 138.809 386.124 138.647 386.23 138.439C386.336 138.228 386.389 137.98 386.389 137.697ZM395.612 135.215V136.052L391.918 144.457H390.305L393.993 136.433H389.207V135.215H395.612ZM397.015 143.695C397.015 143.458 397.095 143.259 397.256 143.098C397.417 142.933 397.635 142.851 397.91 142.851C398.189 142.851 398.407 142.933 398.564 143.098C398.725 143.259 398.805 143.458 398.805 143.695C398.805 143.932 398.725 144.131 398.564 144.292C398.407 144.453 398.189 144.533 397.91 144.533C397.635 144.533 397.417 144.453 397.256 144.292C397.095 144.131 397.015 143.932 397.015 143.695ZM402.087 140.159L400.868 139.861L401.369 135.215H406.352V136.51H402.639L402.385 138.776C402.529 138.691 402.728 138.608 402.982 138.528C403.236 138.443 403.525 138.401 403.851 138.401C404.287 138.401 404.677 138.473 405.019 138.617C405.366 138.757 405.66 138.962 405.902 139.233C406.143 139.499 406.327 139.825 406.454 140.21C406.581 140.591 406.644 141.021 406.644 141.499C406.644 141.926 406.581 142.326 406.454 142.698C406.331 143.071 406.145 143.399 405.895 143.682C405.646 143.966 405.33 144.188 404.949 144.349C404.573 144.505 404.126 144.584 403.61 144.584C403.225 144.584 402.855 144.529 402.499 144.419C402.148 144.304 401.833 144.137 401.553 143.917C401.274 143.693 401.05 143.418 400.881 143.092C400.711 142.762 400.614 142.383 400.589 141.956H402.087C402.125 142.256 402.207 142.512 402.334 142.724C402.465 142.931 402.639 143.09 402.855 143.2C403.071 143.31 403.32 143.365 403.604 143.365C403.862 143.365 404.084 143.321 404.27 143.232C404.456 143.139 404.611 143.007 404.734 142.838C404.861 142.665 404.954 142.462 405.013 142.229C405.076 141.996 405.108 141.738 405.108 141.454C405.108 141.184 405.072 140.936 405 140.712C404.933 140.487 404.829 140.293 404.689 140.128C404.554 139.963 404.382 139.836 404.175 139.747C403.968 139.654 403.729 139.607 403.458 139.607C403.094 139.607 402.815 139.66 402.62 139.766C402.429 139.872 402.252 140.003 402.087 140.159ZM407.806 137.481V136.992C407.806 136.641 407.882 136.321 408.034 136.033C408.187 135.746 408.409 135.515 408.701 135.342C408.993 135.168 409.344 135.081 409.755 135.081C410.178 135.081 410.533 135.168 410.821 135.342C411.113 135.515 411.335 135.746 411.488 136.033C411.64 136.321 411.716 136.641 411.716 136.992V137.481C411.716 137.823 411.64 138.139 411.488 138.427C411.339 138.714 411.119 138.945 410.827 139.118C410.54 139.292 410.186 139.379 409.767 139.379C409.353 139.379 408.997 139.292 408.701 139.118C408.409 138.945 408.187 138.714 408.034 138.427C407.882 138.139 407.806 137.823 407.806 137.481ZM408.866 136.992V137.481C408.866 137.65 408.898 137.811 408.961 137.963C409.029 138.115 409.13 138.238 409.266 138.331C409.401 138.424 409.568 138.471 409.767 138.471C409.97 138.471 410.135 138.424 410.262 138.331C410.394 138.238 410.491 138.115 410.554 137.963C410.618 137.811 410.65 137.65 410.65 137.481V136.992C410.65 136.818 410.616 136.656 410.548 136.503C410.485 136.347 410.387 136.222 410.256 136.129C410.125 136.036 409.958 135.989 409.755 135.989C409.56 135.989 409.395 136.036 409.26 136.129C409.128 136.222 409.029 136.347 408.961 136.503C408.898 136.656 408.866 136.818 408.866 136.992ZM412.262 142.686V142.191C412.262 141.844 412.338 141.526 412.49 141.239C412.647 140.951 412.871 140.72 413.163 140.547C413.455 140.373 413.807 140.286 414.217 140.286C414.64 140.286 414.996 140.373 415.283 140.547C415.575 140.72 415.795 140.951 415.944 141.239C416.096 141.526 416.172 141.844 416.172 142.191V142.686C416.172 143.033 416.096 143.35 415.944 143.638C415.795 143.926 415.578 144.156 415.29 144.33C415.002 144.503 414.651 144.59 414.236 144.59C413.817 144.59 413.46 144.503 413.163 144.33C412.871 144.156 412.647 143.926 412.49 143.638C412.338 143.35 412.262 143.033 412.262 142.686ZM413.328 142.191V142.686C413.328 142.855 413.362 143.016 413.43 143.168C413.502 143.321 413.606 143.445 413.741 143.543C413.876 143.636 414.039 143.682 414.23 143.682C414.446 143.682 414.619 143.636 414.75 143.543C414.881 143.445 414.975 143.323 415.03 143.175C415.089 143.022 415.118 142.859 415.118 142.686V142.191C415.118 142.017 415.085 141.854 415.017 141.702C414.953 141.55 414.854 141.427 414.719 141.334C414.587 141.241 414.42 141.194 414.217 141.194C414.018 141.194 413.853 141.241 413.722 141.334C413.591 141.427 413.491 141.55 413.424 141.702C413.36 141.854 413.328 142.017 413.328 142.191ZM414.598 136.535L410.085 143.759L409.304 143.308L413.817 136.084L414.598 136.535Z" fill="#5A5881"/>
<path d="M315.688 171.496V173.095H310.493V171.496H315.688ZM311.101 167.442V177.395H309.05V167.442H311.101ZM317.151 167.442V177.395H315.107V167.442H317.151ZM323.187 175.625V169.999H325.156V177.395H323.303L323.187 175.625ZM323.406 174.107L323.987 174.093C323.987 174.585 323.93 175.043 323.816 175.467C323.702 175.887 323.531 176.251 323.303 176.561C323.075 176.866 322.788 177.106 322.442 177.279C322.096 177.447 321.688 177.532 321.218 177.532C320.858 177.532 320.526 177.482 320.22 177.381C319.919 177.277 319.66 177.115 319.441 176.896C319.227 176.673 319.058 176.388 318.935 176.042C318.817 175.691 318.757 175.269 318.757 174.777V169.999H320.726V174.791C320.726 175.009 320.751 175.194 320.801 175.344C320.856 175.495 320.931 175.618 321.027 175.713C321.123 175.809 321.234 175.877 321.362 175.918C321.494 175.959 321.64 175.98 321.799 175.98C322.205 175.98 322.524 175.898 322.756 175.734C322.993 175.57 323.16 175.347 323.255 175.064C323.356 174.777 323.406 174.458 323.406 174.107ZM322.702 168.754H321.218L321.109 167.838C321.337 167.825 321.519 167.802 321.656 167.77C321.797 167.734 321.9 167.683 321.963 167.62C322.032 167.556 322.066 167.476 322.066 167.38C322.066 167.285 322.041 167.207 321.991 167.148C321.945 167.084 321.877 167.036 321.786 167.004C321.694 166.968 321.59 166.943 321.471 166.929C321.353 166.911 321.223 166.902 321.082 166.902L321.129 166C321.553 166 321.927 166.029 322.25 166.088C322.579 166.148 322.852 166.236 323.071 166.355C323.29 166.469 323.454 166.608 323.563 166.772C323.677 166.936 323.734 167.121 323.734 167.326C323.734 167.64 323.627 167.875 323.413 168.03C323.198 168.18 322.961 168.274 322.702 168.31V168.754ZM328.854 176.561L330.816 169.999H332.928L329.955 178.509C329.891 178.696 329.804 178.897 329.695 179.111C329.59 179.325 329.446 179.528 329.264 179.719C329.086 179.915 328.861 180.075 328.587 180.198C328.319 180.321 327.988 180.382 327.596 180.382C327.409 180.382 327.257 180.371 327.138 180.348C327.02 180.325 326.878 180.293 326.714 180.252V178.81C326.764 178.81 326.817 178.81 326.872 178.81C326.926 178.815 326.979 178.817 327.029 178.817C327.289 178.817 327.5 178.787 327.665 178.728C327.829 178.669 327.961 178.578 328.061 178.455C328.161 178.336 328.241 178.181 328.3 177.99L328.854 176.561ZM328.034 169.999L329.64 175.358L329.92 177.443L328.581 177.586L325.921 169.999H328.034Z" fill="#5A5881"/>
<path d="M315.527 190.962H315.791V192.694H315.641C314.885 192.694 314.232 192.811 313.681 193.045C313.136 193.28 312.688 193.602 312.336 194.012C311.985 194.422 311.721 194.903 311.545 195.453C311.375 195.998 311.291 196.578 311.291 197.194V199.206C311.291 199.716 311.346 200.167 311.458 200.56C311.569 200.947 311.724 201.272 311.923 201.535C312.128 201.793 312.363 201.99 312.626 202.124C312.89 202.259 313.174 202.326 313.479 202.326C313.795 202.326 314.083 202.262 314.34 202.133C314.598 201.998 314.818 201.814 315 201.579C315.181 201.345 315.319 201.067 315.413 200.744C315.506 200.422 315.553 200.071 315.553 199.69C315.553 199.326 315.506 198.987 315.413 198.67C315.325 198.348 315.193 198.067 315.017 197.826C314.841 197.58 314.622 197.39 314.358 197.255C314.1 197.115 313.801 197.044 313.461 197.044C313.04 197.044 312.656 197.144 312.31 197.343C311.97 197.542 311.695 197.803 311.484 198.125C311.279 198.442 311.167 198.779 311.15 199.136L310.341 198.872C310.388 198.327 310.508 197.838 310.702 197.405C310.901 196.971 311.162 196.602 311.484 196.297C311.806 195.992 312.178 195.761 312.6 195.603C313.028 195.439 313.497 195.357 314.006 195.357C314.627 195.357 315.167 195.474 315.624 195.708C316.081 195.943 316.458 196.262 316.757 196.666C317.062 197.065 317.288 197.522 317.434 198.037C317.586 198.547 317.663 199.08 317.663 199.637C317.663 200.252 317.569 200.826 317.381 201.36C317.194 201.887 316.918 202.35 316.555 202.748C316.198 203.147 315.761 203.457 315.246 203.68C314.736 203.903 314.156 204.014 313.505 204.014C312.82 204.014 312.208 203.882 311.668 203.618C311.135 203.355 310.681 202.991 310.306 202.529C309.937 202.066 309.656 201.532 309.462 200.929C309.269 200.325 309.172 199.687 309.172 199.013V198.134C309.172 197.161 309.295 196.244 309.542 195.383C309.788 194.516 310.166 193.751 310.675 193.089C311.191 192.427 311.85 191.908 312.653 191.533C313.456 191.153 314.414 190.962 315.527 190.962ZM327.7 196.367V198.459C327.7 199.461 327.6 200.317 327.401 201.026C327.208 201.729 326.926 202.3 326.557 202.74C326.188 203.179 325.746 203.501 325.23 203.706C324.72 203.911 324.149 204.014 323.516 204.014C323.012 204.014 322.543 203.949 322.11 203.821C321.682 203.692 321.295 203.49 320.95 203.214C320.604 202.939 320.308 202.584 320.062 202.151C319.822 201.711 319.634 201.187 319.5 200.577C319.371 199.968 319.306 199.262 319.306 198.459V196.367C319.306 195.36 319.406 194.51 319.605 193.819C319.804 193.121 320.088 192.556 320.458 192.122C320.827 191.683 321.266 191.364 321.776 191.164C322.292 190.965 322.866 190.865 323.499 190.865C324.008 190.865 324.477 190.93 324.905 191.059C325.338 191.182 325.725 191.378 326.065 191.648C326.411 191.917 326.704 192.269 326.944 192.702C327.19 193.13 327.377 193.649 327.506 194.258C327.635 194.862 327.7 195.565 327.7 196.367ZM325.582 198.758V196.051C325.582 195.541 325.552 195.093 325.494 194.706C325.435 194.314 325.347 193.983 325.23 193.713C325.119 193.438 324.978 193.215 324.808 193.045C324.638 192.869 324.445 192.743 324.228 192.667C324.011 192.585 323.768 192.544 323.499 192.544C323.17 192.544 322.877 192.609 322.62 192.738C322.362 192.861 322.145 193.06 321.969 193.335C321.793 193.611 321.659 193.974 321.565 194.425C321.477 194.87 321.433 195.412 321.433 196.051V198.758C321.433 199.274 321.462 199.728 321.521 200.12C321.58 200.513 321.667 200.85 321.785 201.131C321.902 201.406 322.042 201.635 322.207 201.817C322.376 201.992 322.57 202.121 322.787 202.203C323.009 202.285 323.252 202.326 323.516 202.326C323.85 202.326 324.146 202.262 324.404 202.133C324.662 202.004 324.878 201.799 325.054 201.518C325.23 201.231 325.362 200.859 325.45 200.402C325.538 199.945 325.582 199.397 325.582 198.758Z" fill="#15134B"/>
<path d="M386.262 193.88V203.154H384.732V195.696L382.466 196.464V195.201L386.078 193.88H386.262ZM395.669 201.936V203.154H389.474V202.107L392.483 198.825C392.813 198.453 393.073 198.131 393.263 197.86C393.454 197.59 393.587 197.346 393.663 197.13C393.744 196.91 393.784 196.697 393.784 196.489C393.784 196.197 393.729 195.941 393.619 195.721C393.513 195.497 393.357 195.321 393.149 195.194C392.942 195.063 392.69 194.998 392.394 194.998C392.051 194.998 391.763 195.072 391.531 195.22C391.298 195.368 391.122 195.573 391.004 195.835C390.885 196.094 390.826 196.39 390.826 196.724H389.296C389.296 196.187 389.419 195.696 389.664 195.251C389.91 194.803 390.265 194.447 390.731 194.185C391.196 193.918 391.757 193.785 392.413 193.785C393.031 193.785 393.555 193.889 393.987 194.096C394.419 194.304 394.747 194.598 394.971 194.979C395.199 195.359 395.314 195.81 395.314 196.331C395.314 196.618 395.267 196.904 395.174 197.188C395.081 197.471 394.948 197.755 394.774 198.038C394.605 198.317 394.404 198.599 394.171 198.882C393.938 199.162 393.682 199.445 393.403 199.733L391.404 201.936H395.669ZM397.015 202.393C397.015 202.156 397.095 201.957 397.256 201.796C397.417 201.631 397.635 201.548 397.91 201.548C398.189 201.548 398.407 201.631 398.564 201.796C398.725 201.957 398.805 202.156 398.805 202.393C398.805 202.63 398.725 202.828 398.564 202.989C398.407 203.15 398.189 203.23 397.91 203.23C397.635 203.23 397.417 203.15 397.256 202.989C397.095 202.828 397.015 202.63 397.015 202.393ZM402.087 198.857L400.868 198.559L401.369 193.912H406.352V195.207H402.639L402.385 197.473C402.529 197.389 402.728 197.306 402.982 197.226C403.236 197.141 403.525 197.099 403.851 197.099C404.287 197.099 404.677 197.171 405.019 197.314C405.366 197.454 405.66 197.659 405.902 197.93C406.143 198.197 406.327 198.523 406.454 198.908C406.581 199.289 406.644 199.718 406.644 200.196C406.644 200.624 406.581 201.024 406.454 201.396C406.331 201.768 406.145 202.096 405.895 202.38C405.646 202.663 405.33 202.886 404.949 203.046C404.573 203.203 404.126 203.281 403.61 203.281C403.225 203.281 402.855 203.226 402.499 203.116C402.148 203.002 401.833 202.835 401.553 202.615C401.274 202.39 401.05 202.115 400.881 201.79C400.711 201.459 400.614 201.081 400.589 200.653H402.087C402.125 200.954 402.207 201.21 402.334 201.421C402.465 201.629 402.639 201.787 402.855 201.897C403.071 202.007 403.32 202.062 403.604 202.062C403.862 202.062 404.084 202.018 404.27 201.929C404.456 201.836 404.611 201.705 404.734 201.536C404.861 201.362 404.954 201.159 405.013 200.926C405.076 200.694 405.108 200.435 405.108 200.152C405.108 199.881 405.072 199.633 405 199.409C404.933 199.185 404.829 198.99 404.689 198.825C404.554 198.66 404.382 198.533 404.175 198.444C403.968 198.351 403.729 198.305 403.458 198.305C403.094 198.305 402.815 198.358 402.62 198.463C402.429 198.569 402.252 198.7 402.087 198.857ZM407.806 196.178V195.689C407.806 195.338 407.882 195.019 408.034 194.731C408.187 194.443 408.409 194.213 408.701 194.039C408.993 193.866 409.344 193.779 409.755 193.779C410.178 193.779 410.533 193.866 410.821 194.039C411.113 194.213 411.335 194.443 411.488 194.731C411.64 195.019 411.716 195.338 411.716 195.689V196.178C411.716 196.521 411.64 196.836 411.488 197.124C411.339 197.412 411.119 197.642 410.827 197.816C410.54 197.989 410.186 198.076 409.767 198.076C409.353 198.076 408.997 197.989 408.701 197.816C408.409 197.642 408.187 197.412 408.034 197.124C407.882 196.836 407.806 196.521 407.806 196.178ZM408.866 195.689V196.178C408.866 196.347 408.898 196.508 408.961 196.661C409.029 196.813 409.13 196.936 409.266 197.029C409.401 197.122 409.568 197.168 409.767 197.168C409.97 197.168 410.135 197.122 410.262 197.029C410.394 196.936 410.491 196.813 410.554 196.661C410.618 196.508 410.65 196.347 410.65 196.178V195.689C410.65 195.516 410.616 195.353 410.548 195.201C410.485 195.044 410.387 194.919 410.256 194.826C410.125 194.733 409.958 194.687 409.755 194.687C409.56 194.687 409.395 194.733 409.26 194.826C409.128 194.919 409.029 195.044 408.961 195.201C408.898 195.353 408.866 195.516 408.866 195.689ZM412.262 201.383V200.888C412.262 200.541 412.338 200.224 412.49 199.936C412.647 199.648 412.871 199.418 413.163 199.244C413.455 199.071 413.807 198.984 414.217 198.984C414.64 198.984 414.996 199.071 415.283 199.244C415.575 199.418 415.795 199.648 415.944 199.936C416.096 200.224 416.172 200.541 416.172 200.888V201.383C416.172 201.73 416.096 202.048 415.944 202.335C415.795 202.623 415.578 202.854 415.29 203.027C415.002 203.201 414.651 203.288 414.236 203.288C413.817 203.288 413.46 203.201 413.163 203.027C412.871 202.854 412.647 202.623 412.49 202.335C412.338 202.048 412.262 201.73 412.262 201.383ZM413.328 200.888V201.383C413.328 201.553 413.362 201.713 413.43 201.866C413.502 202.018 413.606 202.143 413.741 202.24C413.876 202.333 414.039 202.38 414.23 202.38C414.446 202.38 414.619 202.333 414.75 202.24C414.881 202.143 414.975 202.02 415.03 201.872C415.089 201.72 415.118 201.557 415.118 201.383V200.888C415.118 200.715 415.085 200.552 415.017 200.399C414.953 200.247 414.854 200.124 414.719 200.031C414.587 199.938 414.42 199.892 414.217 199.892C414.018 199.892 413.853 199.938 413.722 200.031C413.591 200.124 413.491 200.247 413.424 200.399C413.36 200.552 413.328 200.715 413.328 200.888ZM414.598 195.232L410.085 202.456L409.304 202.005L413.817 194.782L414.598 195.232Z" fill="#5A5881"/>
<defs>
<filter id="filter0_d_297_6717" x="31.2822" y="26.8157" width="229.197" height="229.197" filterUnits="userSpaceOnUse" color-interpolation-filters="sRGB">
<feFlood flood-opacity="0" result="BackgroundImageFix"/>
<feColorMatrix in="SourceAlpha" type="matrix" values="0 0 0 0 0 0 0 0 0 0 0 0 0 0 0 0 0 0 127 0" result="hardAlpha"/>
<feOffset dy="15"/>
<feGaussianBlur stdDeviation="17.5"/>
<feComposite in2="hardAlpha" operator="out"/>
<feColorMatrix type="matrix" values="0 0 0 0 0.337255 0 0 0 0 0.231373 0 0 0 0 1 0 0 0 0.26 0"/>
<feBlend mode="normal" in2="BackgroundImageFix" result="effect1_dropShadow_297_6717"/>
<feBlend mode="normal" in="SourceGraphic" in2="effect1_dropShadow_297_6717" result="shape"/>
</filter>
</defs>
</svg>
