<svg width="1024" height="452" viewBox="0 0 1024 452" fill="none" xmlns="http://www.w3.org/2000/svg">
<rect width="1024" height="452" rx="25" fill="white"/>
<rect x="96.791" y="106.683" width="885.129" height="1.40327" fill="#F3F3F5"/>
<rect x="96.791" y="158.621" width="885.129" height="1.40327" fill="#F3F3F5"/>
<rect x="96.791" y="210.559" width="885.129" height="1.40327" fill="#F3F3F5"/>
<rect x="96.791" y="262.497" width="885.129" height="1.40327" fill="#F3F3F5"/>
<rect x="96.791" y="314.435" width="885.129" height="1.40327" fill="#F3F3F5"/>
<rect x="96.791" y="366.373" width="885.129" height="1.40327" fill="#F3F3F5"/>
<path d="M146.146 392.738V401.98H144.939V392.738H146.146ZM149.116 392.738V393.74H141.975V392.738H149.116ZM151.484 392.23V401.98H150.31V392.23H151.484ZM151.205 398.285L150.716 398.266C150.72 397.797 150.79 397.363 150.925 396.965C151.061 396.563 151.251 396.214 151.497 395.918C151.742 395.622 152.034 395.393 152.373 395.232C152.715 395.067 153.094 394.985 153.509 394.985C153.847 394.985 154.152 395.031 154.423 395.124C154.694 395.213 154.924 395.357 155.115 395.556C155.309 395.755 155.458 396.013 155.559 396.33C155.661 396.643 155.711 397.026 155.711 397.479V401.98H154.531V397.467C154.531 397.107 154.478 396.819 154.372 396.603C154.266 396.383 154.112 396.225 153.909 396.127C153.706 396.026 153.456 395.975 153.16 395.975C152.868 395.975 152.601 396.036 152.36 396.159C152.123 396.282 151.918 396.451 151.744 396.667C151.575 396.883 151.442 397.13 151.344 397.409C151.251 397.684 151.205 397.976 151.205 398.285ZM163.9 394.559H164.801C164.801 395.021 164.74 395.408 164.617 395.721C164.499 396.034 164.289 396.269 163.989 396.426C163.688 396.582 163.265 396.66 162.719 396.66V395.937C163.1 395.937 163.373 395.89 163.538 395.797C163.703 395.7 163.805 395.55 163.843 395.346C163.881 395.143 163.9 394.881 163.9 394.559ZM161.672 400.393V395.112H162.853V401.98H161.729L161.672 400.393ZM161.894 398.946L162.383 398.933C162.383 399.39 162.334 399.813 162.237 400.202C162.144 400.587 161.991 400.922 161.78 401.205C161.568 401.489 161.291 401.711 160.948 401.872C160.605 402.028 160.189 402.107 159.698 402.107C159.363 402.107 159.057 402.058 158.777 401.961C158.502 401.863 158.265 401.713 158.066 401.51C157.868 401.307 157.713 401.042 157.603 400.717C157.497 400.391 157.444 399.999 157.444 399.542V395.112H158.619V399.555C158.619 399.864 158.653 400.12 158.72 400.323C158.792 400.522 158.887 400.681 159.006 400.799C159.129 400.913 159.264 400.994 159.412 401.04C159.564 401.087 159.721 401.11 159.882 401.11C160.381 401.11 160.777 401.015 161.069 400.824C161.361 400.63 161.57 400.37 161.697 400.044C161.828 399.714 161.894 399.348 161.894 398.946ZM159.609 394.229L160.84 392.363H162.256L160.555 394.229H159.609ZM169.917 392.23V401.98H168.743V392.23H169.917ZM169.638 398.285L169.149 398.266C169.154 397.797 169.223 397.363 169.359 396.965C169.494 396.563 169.685 396.214 169.93 395.918C170.176 395.622 170.468 395.393 170.806 395.232C171.149 395.067 171.528 394.985 171.942 394.985C172.281 394.985 172.586 395.031 172.856 395.124C173.127 395.213 173.358 395.357 173.548 395.556C173.743 395.755 173.891 396.013 173.993 396.33C174.094 396.643 174.145 397.026 174.145 397.479V401.98H172.964V397.467C172.964 397.107 172.911 396.819 172.806 396.603C172.7 396.383 172.545 396.225 172.342 396.127C172.139 396.026 171.889 395.975 171.593 395.975C171.301 395.975 171.035 396.036 170.793 396.159C170.556 396.282 170.351 396.451 170.178 396.667C170.008 396.883 169.875 397.13 169.778 397.409C169.685 397.684 169.638 397.976 169.638 398.285ZM179.953 400.805V397.27C179.953 396.999 179.898 396.764 179.788 396.565C179.682 396.362 179.521 396.205 179.306 396.095C179.09 395.985 178.823 395.93 178.506 395.93C178.21 395.93 177.949 395.981 177.725 396.083C177.505 396.184 177.332 396.318 177.205 396.483C177.082 396.648 177.021 396.825 177.021 397.016H175.846C175.846 396.77 175.91 396.527 176.037 396.286C176.164 396.045 176.346 395.827 176.583 395.632C176.824 395.433 177.111 395.277 177.446 395.162C177.784 395.044 178.161 394.985 178.576 394.985C179.075 394.985 179.515 395.069 179.896 395.239C180.281 395.408 180.582 395.664 180.797 396.007C181.017 396.345 181.127 396.77 181.127 397.282V400.482C181.127 400.71 181.146 400.954 181.185 401.212C181.227 401.47 181.288 401.692 181.369 401.878V401.98H180.144C180.084 401.844 180.038 401.664 180.004 401.44C179.97 401.212 179.953 401 179.953 400.805ZM180.156 397.816L180.169 398.641H178.982C178.648 398.641 178.349 398.668 178.087 398.723C177.825 398.774 177.604 398.852 177.427 398.958C177.249 399.064 177.114 399.197 177.021 399.358C176.927 399.515 176.881 399.699 176.881 399.91C176.881 400.126 176.93 400.323 177.027 400.501C177.124 400.678 177.27 400.82 177.465 400.926C177.664 401.028 177.907 401.078 178.195 401.078C178.555 401.078 178.872 401.002 179.147 400.85C179.422 400.698 179.64 400.511 179.801 400.291C179.966 400.071 180.055 399.858 180.067 399.65L180.569 400.215C180.539 400.393 180.459 400.59 180.328 400.805C180.196 401.021 180.021 401.229 179.801 401.427C179.585 401.622 179.327 401.785 179.026 401.916C178.73 402.043 178.396 402.107 178.023 402.107C177.558 402.107 177.15 402.016 176.798 401.834C176.451 401.652 176.181 401.408 175.986 401.104C175.795 400.795 175.7 400.45 175.7 400.069C175.7 399.701 175.772 399.377 175.916 399.098C176.06 398.814 176.267 398.58 176.538 398.393C176.809 398.203 177.135 398.059 177.516 397.962C177.896 397.864 178.322 397.816 178.792 397.816H180.156ZM184.25 395.112V401.98H183.07V395.112H184.25ZM182.981 393.29C182.981 393.099 183.038 392.939 183.152 392.807C183.271 392.676 183.444 392.611 183.673 392.611C183.897 392.611 184.069 392.676 184.187 392.807C184.31 392.939 184.371 393.099 184.371 393.29C184.371 393.472 184.31 393.628 184.187 393.76C184.069 393.886 183.897 393.95 183.673 393.95C183.444 393.95 183.271 393.886 183.152 393.76C183.038 393.628 182.981 393.472 182.981 393.29Z" fill="#718EBF"/>
<path d="M279.156 392.738V401.98H277.95V392.738H279.156ZM282.127 392.738V393.74H274.986V392.738H282.127ZM284.495 392.23V401.98H283.32V392.23H284.495ZM284.215 398.285L283.727 398.266C283.731 397.797 283.801 397.363 283.936 396.965C284.071 396.563 284.262 396.214 284.507 395.918C284.753 395.622 285.045 395.393 285.383 395.232C285.726 395.067 286.105 394.985 286.52 394.985C286.858 394.985 287.163 395.031 287.434 395.124C287.704 395.213 287.935 395.357 288.125 395.556C288.32 395.755 288.468 396.013 288.57 396.33C288.671 396.643 288.722 397.026 288.722 397.479V401.98H287.542V397.467C287.542 397.107 287.489 396.819 287.383 396.603C287.277 396.383 287.123 396.225 286.919 396.127C286.716 396.026 286.467 395.975 286.17 395.975C285.878 395.975 285.612 396.036 285.371 396.159C285.134 396.282 284.928 396.451 284.755 396.667C284.586 396.883 284.452 397.13 284.355 397.409C284.262 397.684 284.215 397.976 284.215 398.285ZM296.911 394.559H297.812C297.812 395.021 297.751 395.408 297.628 395.721C297.509 396.034 297.3 396.269 297 396.426C296.699 396.582 296.276 396.66 295.73 396.66V395.937C296.111 395.937 296.384 395.89 296.549 395.797C296.714 395.7 296.815 395.55 296.854 395.346C296.892 395.143 296.911 394.881 296.911 394.559ZM294.683 400.393V395.112H295.863V401.98H294.74L294.683 400.393ZM294.905 398.946L295.394 398.933C295.394 399.39 295.345 399.813 295.248 400.202C295.154 400.587 295.002 400.922 294.791 401.205C294.579 401.489 294.302 401.711 293.959 401.872C293.616 402.028 293.199 402.107 292.708 402.107C292.374 402.107 292.067 402.058 291.788 401.961C291.513 401.863 291.276 401.713 291.077 401.51C290.878 401.307 290.724 401.042 290.614 400.717C290.508 400.391 290.455 399.999 290.455 399.542V395.112H291.629V399.555C291.629 399.864 291.663 400.12 291.731 400.323C291.803 400.522 291.898 400.681 292.017 400.799C292.139 400.913 292.275 400.994 292.423 401.04C292.575 401.087 292.732 401.11 292.893 401.11C293.392 401.11 293.788 401.015 294.08 400.824C294.372 400.63 294.581 400.37 294.708 400.044C294.839 399.714 294.905 399.348 294.905 398.946ZM292.62 394.229L293.851 392.363H295.267L293.565 394.229H292.62ZM301.748 392.23H302.928V400.647L302.827 401.98H301.748V392.23ZM307.568 398.489V398.622C307.568 399.121 307.509 399.585 307.391 400.012C307.272 400.435 307.099 400.803 306.87 401.116C306.642 401.43 306.362 401.673 306.032 401.846C305.702 402.02 305.323 402.107 304.896 402.107C304.46 402.107 304.077 402.033 303.747 401.885C303.421 401.732 303.146 401.514 302.922 401.231C302.698 400.947 302.518 400.604 302.382 400.202C302.251 399.8 302.16 399.348 302.109 398.844V398.26C302.16 397.752 302.251 397.297 302.382 396.895C302.518 396.493 302.698 396.15 302.922 395.867C303.146 395.579 303.421 395.361 303.747 395.213C304.073 395.061 304.452 394.985 304.883 394.985C305.315 394.985 305.698 395.069 306.032 395.239C306.367 395.404 306.646 395.641 306.87 395.949C307.099 396.258 307.272 396.629 307.391 397.06C307.509 397.488 307.568 397.964 307.568 398.489ZM306.388 398.622V398.489C306.388 398.146 306.356 397.824 306.292 397.524C306.229 397.219 306.127 396.952 305.988 396.724C305.848 396.491 305.664 396.309 305.436 396.178C305.207 396.043 304.926 395.975 304.591 395.975C304.295 395.975 304.037 396.026 303.817 396.127C303.601 396.229 303.417 396.366 303.265 396.54C303.112 396.709 302.987 396.904 302.89 397.124C302.797 397.34 302.727 397.564 302.681 397.797V399.326C302.748 399.623 302.858 399.908 303.011 400.183C303.167 400.454 303.375 400.676 303.633 400.85C303.895 401.023 304.219 401.11 304.604 401.11C304.921 401.11 305.192 401.047 305.417 400.92C305.645 400.788 305.829 400.609 305.969 400.38C306.113 400.152 306.218 399.887 306.286 399.587C306.354 399.286 306.388 398.965 306.388 398.622ZM313.104 400.805V397.27C313.104 396.999 313.049 396.764 312.938 396.565C312.833 396.362 312.672 396.205 312.456 396.095C312.24 395.985 311.974 395.93 311.656 395.93C311.36 395.93 311.1 395.981 310.875 396.083C310.655 396.184 310.482 396.318 310.355 396.483C310.232 396.648 310.171 396.825 310.171 397.016H308.997C308.997 396.77 309.06 396.527 309.187 396.286C309.314 396.045 309.496 395.827 309.733 395.632C309.974 395.433 310.262 395.277 310.596 395.162C310.935 395.044 311.311 394.985 311.726 394.985C312.225 394.985 312.666 395.069 313.046 395.239C313.431 395.408 313.732 395.664 313.948 396.007C314.168 396.345 314.278 396.77 314.278 397.282V400.482C314.278 400.71 314.297 400.954 314.335 401.212C314.377 401.47 314.439 401.692 314.519 401.878V401.98H313.294C313.235 401.844 313.188 401.664 313.154 401.44C313.12 401.212 313.104 401 313.104 400.805ZM313.307 397.816L313.319 398.641H312.132C311.798 398.641 311.5 398.668 311.237 398.723C310.975 398.774 310.755 398.852 310.577 398.958C310.399 399.064 310.264 399.197 310.171 399.358C310.078 399.515 310.031 399.699 310.031 399.91C310.031 400.126 310.08 400.323 310.177 400.501C310.275 400.678 310.421 400.82 310.615 400.926C310.814 401.028 311.057 401.078 311.345 401.078C311.705 401.078 312.022 401.002 312.297 400.85C312.572 400.698 312.79 400.511 312.951 400.291C313.116 400.071 313.205 399.858 313.218 399.65L313.719 400.215C313.69 400.393 313.609 400.59 313.478 400.805C313.347 401.021 313.171 401.229 312.951 401.427C312.735 401.622 312.477 401.785 312.177 401.916C311.881 402.043 311.546 402.107 311.174 402.107C310.708 402.107 310.3 402.016 309.949 401.834C309.602 401.652 309.331 401.408 309.136 401.104C308.946 400.795 308.851 400.45 308.851 400.069C308.851 399.701 308.923 399.377 309.066 399.098C309.21 398.814 309.418 398.58 309.688 398.393C309.959 398.203 310.285 398.059 310.666 397.962C311.047 397.864 311.472 397.816 311.942 397.816H313.307Z" fill="#718EBF"/>
<path d="M404.191 392.738V401.98H402.985V392.738H404.191ZM407.162 392.738V393.74H400.021V392.738H407.162ZM409.529 392.23V401.98H408.355V392.23H409.529ZM409.25 398.285L408.761 398.266C408.765 397.797 408.835 397.363 408.971 396.965C409.106 396.563 409.297 396.214 409.542 395.918C409.787 395.622 410.079 395.393 410.418 395.232C410.761 395.067 411.139 394.985 411.554 394.985C411.893 394.985 412.197 395.031 412.468 395.124C412.739 395.213 412.97 395.357 413.16 395.556C413.355 395.755 413.503 396.013 413.604 396.33C413.706 396.643 413.757 397.026 413.757 397.479V401.98H412.576V397.467C412.576 397.107 412.523 396.819 412.417 396.603C412.312 396.383 412.157 396.225 411.954 396.127C411.751 396.026 411.501 395.975 411.205 395.975C410.913 395.975 410.646 396.036 410.405 396.159C410.168 396.282 409.963 396.451 409.79 396.667C409.62 396.883 409.487 397.13 409.39 397.409C409.297 397.684 409.25 397.976 409.25 398.285ZM421.945 394.559H422.847C422.847 395.021 422.785 395.408 422.663 395.721C422.544 396.034 422.335 396.269 422.034 396.426C421.734 396.582 421.311 396.66 420.765 396.66V395.937C421.146 395.937 421.418 395.89 421.583 395.797C421.749 395.7 421.85 395.55 421.888 395.346C421.926 395.143 421.945 394.881 421.945 394.559ZM419.717 400.393V395.112H420.898V401.98H419.774L419.717 400.393ZM419.939 398.946L420.428 398.933C420.428 399.39 420.38 399.813 420.282 400.202C420.189 400.587 420.037 400.922 419.825 401.205C419.614 401.489 419.336 401.711 418.994 401.872C418.651 402.028 418.234 402.107 417.743 402.107C417.409 402.107 417.102 402.058 416.823 401.961C416.548 401.863 416.311 401.713 416.112 401.51C415.913 401.307 415.758 401.042 415.648 400.717C415.543 400.391 415.49 399.999 415.49 399.542V395.112H416.664V399.555C416.664 399.864 416.698 400.12 416.766 400.323C416.838 400.522 416.933 400.681 417.051 400.799C417.174 400.913 417.309 400.994 417.458 401.04C417.61 401.087 417.766 401.11 417.927 401.11C418.427 401.11 418.822 401.015 419.114 400.824C419.406 400.63 419.616 400.37 419.743 400.044C419.874 399.714 419.939 399.348 419.939 398.946ZM417.654 394.229L418.886 392.363H420.301L418.6 394.229H417.654ZM429.664 395.112V396.013H425.951V395.112H429.664ZM427.208 393.442H428.382V400.279C428.382 400.511 428.418 400.687 428.49 400.805C428.562 400.924 428.655 401.002 428.769 401.04C428.883 401.078 429.006 401.097 429.137 401.097C429.235 401.097 429.336 401.089 429.442 401.072C429.552 401.051 429.634 401.034 429.689 401.021L429.696 401.98C429.603 402.009 429.48 402.037 429.328 402.062C429.18 402.092 429 402.107 428.788 402.107C428.5 402.107 428.236 402.05 427.995 401.935C427.753 401.821 427.561 401.631 427.417 401.364C427.277 401.093 427.208 400.729 427.208 400.272V393.442ZM437.472 394.559H438.373C438.373 395.021 438.312 395.408 438.189 395.721C438.07 396.034 437.861 396.269 437.561 396.426C437.26 396.582 436.837 396.66 436.291 396.66V395.937C436.672 395.937 436.945 395.89 437.11 395.797C437.275 395.7 437.376 395.55 437.415 395.346C437.453 395.143 437.472 394.881 437.472 394.559ZM435.244 400.393V395.112H436.424V401.98H435.301L435.244 400.393ZM435.466 398.946L435.955 398.933C435.955 399.39 435.906 399.813 435.809 400.202C435.715 400.587 435.563 400.922 435.352 401.205C435.14 401.489 434.863 401.711 434.52 401.872C434.177 402.028 433.76 402.107 433.27 402.107C432.935 402.107 432.628 402.058 432.349 401.961C432.074 401.863 431.837 401.713 431.638 401.51C431.439 401.307 431.285 401.042 431.175 400.717C431.069 400.391 431.016 399.999 431.016 399.542V395.112H432.19V399.555C432.19 399.864 432.224 400.12 432.292 400.323C432.364 400.522 432.459 400.681 432.578 400.799C432.7 400.913 432.836 400.994 432.984 401.04C433.136 401.087 433.293 401.11 433.454 401.11C433.953 401.11 434.349 401.015 434.641 400.824C434.933 400.63 435.142 400.37 435.269 400.044C435.4 399.714 435.466 399.348 435.466 398.946Z" fill="#718EBF"/>
<path d="M526.513 392.738V401.98H525.307V392.738H526.513ZM529.484 392.738V393.74H522.343V392.738H529.484ZM531.852 392.23V401.98H530.677V392.23H531.852ZM531.572 398.285L531.083 398.266C531.088 397.797 531.158 397.363 531.293 396.965C531.428 396.563 531.619 396.214 531.864 395.918C532.11 395.622 532.402 395.393 532.74 395.232C533.083 395.067 533.462 394.985 533.876 394.985C534.215 394.985 534.52 395.031 534.791 395.124C535.061 395.213 535.292 395.357 535.482 395.556C535.677 395.755 535.825 396.013 535.927 396.33C536.028 396.643 536.079 397.026 536.079 397.479V401.98H534.898V397.467C534.898 397.107 534.846 396.819 534.74 396.603C534.634 396.383 534.479 396.225 534.276 396.127C534.073 396.026 533.824 395.975 533.527 395.975C533.235 395.975 532.969 396.036 532.728 396.159C532.491 396.282 532.285 396.451 532.112 396.667C531.943 396.883 531.809 397.13 531.712 397.409C531.619 397.684 531.572 397.976 531.572 398.285ZM544.268 394.559H545.169C545.169 395.021 545.108 395.408 544.985 395.721C544.866 396.034 544.657 396.269 544.356 396.426C544.056 396.582 543.633 396.66 543.087 396.66V395.937C543.468 395.937 543.741 395.89 543.906 395.797C544.071 395.7 544.172 395.55 544.21 395.346C544.249 395.143 544.268 394.881 544.268 394.559ZM542.04 400.393V395.112H543.22V401.98H542.097L542.04 400.393ZM542.262 398.946L542.75 398.933C542.75 399.39 542.702 399.813 542.604 400.202C542.511 400.587 542.359 400.922 542.147 401.205C541.936 401.489 541.659 401.711 541.316 401.872C540.973 402.028 540.556 402.107 540.065 402.107C539.731 402.107 539.424 402.058 539.145 401.961C538.87 401.863 538.633 401.713 538.434 401.51C538.235 401.307 538.081 401.042 537.971 400.717C537.865 400.391 537.812 399.999 537.812 399.542V395.112H538.986V399.555C538.986 399.864 539.02 400.12 539.088 400.323C539.16 400.522 539.255 400.681 539.374 400.799C539.496 400.913 539.632 400.994 539.78 401.04C539.932 401.087 540.089 401.11 540.25 401.11C540.749 401.11 541.145 401.015 541.437 400.824C541.729 400.63 541.938 400.37 542.065 400.044C542.196 399.714 542.262 399.348 542.262 398.946ZM539.977 394.229L541.208 392.363H542.624L540.922 394.229H539.977ZM550.285 396.578V401.98H549.111V395.112H550.222L550.285 396.578ZM550.006 398.285L549.517 398.266C549.521 397.797 549.591 397.363 549.727 396.965C549.862 396.563 550.052 396.214 550.298 395.918C550.543 395.622 550.835 395.393 551.174 395.232C551.517 395.067 551.895 394.985 552.31 394.985C552.649 394.985 552.953 395.031 553.224 395.124C553.495 395.213 553.726 395.357 553.916 395.556C554.111 395.755 554.259 396.013 554.36 396.33C554.462 396.643 554.513 397.026 554.513 397.479V401.98H553.332V397.467C553.332 397.107 553.279 396.819 553.173 396.603C553.068 396.383 552.913 396.225 552.71 396.127C552.507 396.026 552.257 395.975 551.961 395.975C551.669 395.975 551.402 396.036 551.161 396.159C550.924 396.282 550.719 396.451 550.545 396.667C550.376 396.883 550.243 397.13 550.146 397.409C550.052 397.684 550.006 397.976 550.006 398.285ZM560.346 400.805V397.27C560.346 396.999 560.291 396.764 560.181 396.565C560.075 396.362 559.915 396.205 559.699 396.095C559.483 395.985 559.216 395.93 558.899 395.93C558.603 395.93 558.342 395.981 558.118 396.083C557.898 396.184 557.725 396.318 557.598 396.483C557.475 396.648 557.414 396.825 557.414 397.016H556.239C556.239 396.77 556.303 396.527 556.43 396.286C556.557 396.045 556.739 395.827 556.976 395.632C557.217 395.433 557.505 395.277 557.839 395.162C558.177 395.044 558.554 394.985 558.969 394.985C559.468 394.985 559.908 395.069 560.289 395.239C560.674 395.408 560.975 395.664 561.19 396.007C561.41 396.345 561.521 396.77 561.521 397.282V400.482C561.521 400.71 561.54 400.954 561.578 401.212C561.62 401.47 561.681 401.692 561.762 401.878V401.98H560.537C560.477 401.844 560.431 401.664 560.397 401.44C560.363 401.212 560.346 401 560.346 400.805ZM560.549 397.816L560.562 398.641H559.375C559.041 398.641 558.742 398.668 558.48 398.723C558.218 398.774 557.998 398.852 557.82 398.958C557.642 399.064 557.507 399.197 557.414 399.358C557.32 399.515 557.274 399.699 557.274 399.91C557.274 400.126 557.323 400.323 557.42 400.501C557.517 400.678 557.663 400.82 557.858 400.926C558.057 401.028 558.3 401.078 558.588 401.078C558.948 401.078 559.265 401.002 559.54 400.85C559.815 400.698 560.033 400.511 560.194 400.291C560.359 400.071 560.448 399.858 560.46 399.65L560.962 400.215C560.932 400.393 560.852 400.59 560.721 400.805C560.59 401.021 560.414 401.229 560.194 401.427C559.978 401.622 559.72 401.785 559.419 401.916C559.123 402.043 558.789 402.107 558.417 402.107C557.951 402.107 557.543 402.016 557.191 401.834C556.844 401.652 556.574 401.408 556.379 401.104C556.188 400.795 556.093 400.45 556.093 400.069C556.093 399.701 556.165 399.377 556.309 399.098C556.453 398.814 556.66 398.58 556.931 398.393C557.202 398.203 557.528 398.059 557.909 397.962C558.29 397.864 558.715 397.816 559.185 397.816H560.549ZM560.042 392.49H560.994C560.994 392.82 560.917 393.114 560.765 393.372C560.613 393.626 560.395 393.825 560.111 393.969C559.828 394.113 559.491 394.185 559.102 394.185C558.514 394.185 558.048 394.028 557.706 393.715C557.367 393.398 557.198 392.989 557.198 392.49H558.15C558.15 392.74 558.222 392.96 558.366 393.15C558.51 393.341 558.755 393.436 559.102 393.436C559.441 393.436 559.682 393.341 559.826 393.15C559.97 392.96 560.042 392.74 560.042 392.49ZM564.536 396.476V401.98H563.355V395.112H564.472L564.536 396.476ZM564.294 398.285L563.749 398.266C563.753 397.797 563.814 397.363 563.933 396.965C564.051 396.563 564.227 396.214 564.459 395.918C564.692 395.622 564.982 395.393 565.329 395.232C565.676 395.067 566.078 394.985 566.535 394.985C566.857 394.985 567.153 395.031 567.424 395.124C567.695 395.213 567.93 395.355 568.128 395.55C568.327 395.744 568.482 395.994 568.592 396.299C568.702 396.603 568.757 396.971 568.757 397.403V401.98H567.583V397.46C567.583 397.101 567.521 396.813 567.398 396.597C567.28 396.381 567.111 396.225 566.891 396.127C566.671 396.026 566.412 395.975 566.116 395.975C565.769 395.975 565.479 396.036 565.247 396.159C565.014 396.282 564.828 396.451 564.688 396.667C564.548 396.883 564.447 397.13 564.383 397.409C564.324 397.684 564.294 397.976 564.294 398.285ZM568.744 397.638L567.957 397.879C567.961 397.503 568.023 397.141 568.141 396.794C568.264 396.447 568.439 396.138 568.668 395.867C568.901 395.596 569.186 395.382 569.525 395.226C569.863 395.065 570.251 394.985 570.687 394.985C571.055 394.985 571.381 395.033 571.664 395.131C571.952 395.228 572.193 395.378 572.388 395.581C572.587 395.78 572.737 396.036 572.838 396.349C572.94 396.663 572.991 397.035 572.991 397.467V401.98H571.81V397.454C571.81 397.069 571.749 396.77 571.626 396.559C571.507 396.343 571.338 396.193 571.118 396.108C570.902 396.019 570.644 395.975 570.344 395.975C570.086 395.975 569.857 396.019 569.658 396.108C569.459 396.197 569.292 396.32 569.157 396.476C569.021 396.629 568.918 396.804 568.846 397.003C568.778 397.202 568.744 397.414 568.744 397.638Z" fill="#718EBF"/>
<path d="M659.362 392.738V401.98H658.156V392.738H659.362ZM662.333 392.738V393.74H655.191V392.738H662.333ZM664.7 392.23V401.98H663.526V392.23H664.7ZM664.421 398.285L663.932 398.266C663.936 397.797 664.006 397.363 664.142 396.965C664.277 396.563 664.467 396.214 664.713 395.918C664.958 395.622 665.25 395.393 665.589 395.232C665.932 395.067 666.31 394.985 666.725 394.985C667.064 394.985 667.368 395.031 667.639 395.124C667.91 395.213 668.141 395.357 668.331 395.556C668.526 395.755 668.674 396.013 668.775 396.33C668.877 396.643 668.928 397.026 668.928 397.479V401.98H667.747V397.467C667.747 397.107 667.694 396.819 667.588 396.603C667.483 396.383 667.328 396.225 667.125 396.127C666.922 396.026 666.672 395.975 666.376 395.975C666.084 395.975 665.817 396.036 665.576 396.159C665.339 396.282 665.134 396.451 664.96 396.667C664.791 396.883 664.658 397.13 664.561 397.409C664.467 397.684 664.421 397.976 664.421 398.285ZM677.116 394.559H678.018C678.018 395.021 677.956 395.408 677.833 395.721C677.715 396.034 677.506 396.269 677.205 396.426C676.905 396.582 676.481 396.66 675.936 396.66V395.937C676.316 395.937 676.589 395.89 676.754 395.797C676.919 395.7 677.021 395.55 677.059 395.346C677.097 395.143 677.116 394.881 677.116 394.559ZM674.888 400.393V395.112H676.069V401.98H674.945L674.888 400.393ZM675.11 398.946L675.599 398.933C675.599 399.39 675.55 399.813 675.453 400.202C675.36 400.587 675.208 400.922 674.996 401.205C674.785 401.489 674.507 401.711 674.165 401.872C673.822 402.028 673.405 402.107 672.914 402.107C672.58 402.107 672.273 402.058 671.994 401.961C671.719 401.863 671.482 401.713 671.283 401.51C671.084 401.307 670.929 401.042 670.819 400.717C670.714 400.391 670.661 399.999 670.661 399.542V395.112H671.835V399.555C671.835 399.864 671.869 400.12 671.937 400.323C672.008 400.522 672.104 400.681 672.222 400.799C672.345 400.913 672.48 400.994 672.628 401.04C672.781 401.087 672.937 401.11 673.098 401.11C673.597 401.11 673.993 401.015 674.285 400.824C674.577 400.63 674.787 400.37 674.914 400.044C675.045 399.714 675.11 399.348 675.11 398.946ZM672.825 394.229L674.057 392.363H675.472L673.771 394.229H672.825ZM685.958 400.158C685.958 399.989 685.92 399.832 685.844 399.688C685.772 399.54 685.622 399.407 685.394 399.288C685.169 399.166 684.831 399.06 684.378 398.971C683.997 398.891 683.652 398.795 683.343 398.685C683.039 398.575 682.778 398.442 682.562 398.285C682.351 398.129 682.188 397.945 682.074 397.733C681.959 397.522 681.902 397.274 681.902 396.99C681.902 396.72 681.962 396.464 682.08 396.222C682.203 395.981 682.374 395.767 682.594 395.581C682.819 395.395 683.087 395.249 683.4 395.143C683.714 395.038 684.063 394.985 684.448 394.985C684.998 394.985 685.468 395.082 685.857 395.277C686.246 395.471 686.545 395.732 686.752 396.057C686.959 396.379 687.063 396.737 687.063 397.13H685.889C685.889 396.94 685.832 396.756 685.717 396.578C685.607 396.396 685.444 396.246 685.229 396.127C685.017 396.009 684.757 395.949 684.448 395.949C684.122 395.949 683.857 396 683.654 396.102C683.455 396.199 683.309 396.324 683.216 396.476C683.127 396.629 683.083 396.789 683.083 396.959C683.083 397.086 683.104 397.2 683.146 397.302C683.193 397.399 683.273 397.49 683.388 397.574C683.502 397.655 683.663 397.731 683.87 397.803C684.077 397.875 684.342 397.947 684.664 398.019C685.226 398.146 685.69 398.298 686.054 398.476C686.418 398.654 686.688 398.872 686.866 399.13C687.044 399.388 687.133 399.701 687.133 400.069C687.133 400.37 687.069 400.645 686.942 400.894C686.82 401.144 686.64 401.36 686.403 401.542C686.17 401.719 685.891 401.859 685.565 401.961C685.243 402.058 684.882 402.107 684.479 402.107C683.874 402.107 683.362 401.999 682.943 401.783C682.524 401.567 682.207 401.288 681.991 400.945C681.775 400.602 681.667 400.24 681.667 399.86H682.848C682.865 400.181 682.958 400.437 683.127 400.628C683.297 400.814 683.504 400.947 683.75 401.028C683.995 401.104 684.238 401.142 684.479 401.142C684.801 401.142 685.07 401.1 685.286 401.015C685.506 400.93 685.673 400.814 685.787 400.666C685.901 400.518 685.958 400.348 685.958 400.158ZM692.725 400.805V397.27C692.725 396.999 692.67 396.764 692.56 396.565C692.454 396.362 692.293 396.205 692.078 396.095C691.862 395.985 691.595 395.93 691.278 395.93C690.982 395.93 690.721 395.981 690.497 396.083C690.277 396.184 690.104 396.318 689.977 396.483C689.854 396.648 689.792 396.825 689.792 397.016H688.618C688.618 396.77 688.682 396.527 688.809 396.286C688.936 396.045 689.118 395.827 689.354 395.632C689.596 395.433 689.883 395.277 690.218 395.162C690.556 395.044 690.933 394.985 691.348 394.985C691.847 394.985 692.287 395.069 692.668 395.239C693.053 395.408 693.354 395.664 693.569 396.007C693.789 396.345 693.899 396.77 693.899 397.282V400.482C693.899 400.71 693.918 400.954 693.957 401.212C693.999 401.47 694.06 401.692 694.141 401.878V401.98H692.916C692.856 401.844 692.81 401.664 692.776 401.44C692.742 401.212 692.725 401 692.725 400.805ZM692.928 397.816L692.941 398.641H691.754C691.42 398.641 691.121 398.668 690.859 398.723C690.597 398.774 690.376 398.852 690.199 398.958C690.021 399.064 689.886 399.197 689.792 399.358C689.699 399.515 689.653 399.699 689.653 399.91C689.653 400.126 689.701 400.323 689.799 400.501C689.896 400.678 690.042 400.82 690.237 400.926C690.436 401.028 690.679 401.078 690.967 401.078C691.326 401.078 691.644 401.002 691.919 400.85C692.194 400.698 692.412 400.511 692.573 400.291C692.738 400.071 692.827 399.858 692.839 399.65L693.341 400.215C693.311 400.393 693.231 400.59 693.1 400.805C692.968 401.021 692.793 401.229 692.573 401.427C692.357 401.622 692.099 401.785 691.798 401.916C691.502 402.043 691.168 402.107 690.795 402.107C690.33 402.107 689.922 402.016 689.57 401.834C689.223 401.652 688.952 401.408 688.758 401.104C688.567 400.795 688.472 400.45 688.472 400.069C688.472 399.701 688.544 399.377 688.688 399.098C688.832 398.814 689.039 398.58 689.31 398.393C689.581 398.203 689.907 398.059 690.288 397.962C690.668 397.864 691.094 397.816 691.563 397.816H692.928ZM690.827 394.096L692.059 392.23H693.474L691.773 394.096H690.827ZM699.949 400.393V395.112H701.129V401.98H700.006L699.949 400.393ZM700.171 398.946L700.66 398.933C700.66 399.39 700.611 399.813 700.514 400.202C700.421 400.587 700.268 400.922 700.057 401.205C699.845 401.489 699.568 401.711 699.225 401.872C698.882 402.028 698.465 402.107 697.975 402.107C697.64 402.107 697.333 402.058 697.054 401.961C696.779 401.863 696.542 401.713 696.343 401.51C696.144 401.307 695.99 401.042 695.88 400.717C695.774 400.391 695.721 399.999 695.721 399.542V395.112H696.896V399.555C696.896 399.864 696.929 400.12 696.997 400.323C697.069 400.522 697.164 400.681 697.283 400.799C697.405 400.913 697.541 400.994 697.689 401.04C697.841 401.087 697.998 401.11 698.159 401.11C698.658 401.11 699.054 401.015 699.346 400.824C699.638 400.63 699.847 400.37 699.974 400.044C700.105 399.714 700.171 399.348 700.171 398.946Z" fill="#718EBF"/>
<path d="M788.128 392.738V401.98H786.922V392.738H788.128ZM791.099 392.738V393.74H783.958V392.738H791.099ZM793.467 392.23V401.98H792.292V392.23H793.467ZM793.188 398.285L792.699 398.266C792.703 397.797 792.773 397.363 792.908 396.965C793.044 396.563 793.234 396.214 793.479 395.918C793.725 395.622 794.017 395.393 794.355 395.232C794.698 395.067 795.077 394.985 795.492 394.985C795.83 394.985 796.135 395.031 796.406 395.124C796.677 395.213 796.907 395.357 797.098 395.556C797.292 395.755 797.44 396.013 797.542 396.33C797.644 396.643 797.694 397.026 797.694 397.479V401.98H796.514V397.467C796.514 397.107 796.461 396.819 796.355 396.603C796.249 396.383 796.095 396.225 795.892 396.127C795.688 396.026 795.439 395.975 795.143 395.975C794.851 395.975 794.584 396.036 794.343 396.159C794.106 396.282 793.901 396.451 793.727 396.667C793.558 396.883 793.424 397.13 793.327 397.409C793.234 397.684 793.188 397.976 793.188 398.285ZM805.883 394.559H806.784C806.784 395.021 806.723 395.408 806.6 395.721C806.482 396.034 806.272 396.269 805.972 396.426C805.671 396.582 805.248 396.66 804.702 396.66V395.937C805.083 395.937 805.356 395.89 805.521 395.797C805.686 395.7 805.788 395.55 805.826 395.346C805.864 395.143 805.883 394.881 805.883 394.559ZM803.655 400.393V395.112H804.835V401.98H803.712L803.655 400.393ZM803.877 398.946L804.366 398.933C804.366 399.39 804.317 399.813 804.22 400.202C804.127 400.587 803.974 400.922 803.763 401.205C803.551 401.489 803.274 401.711 802.931 401.872C802.588 402.028 802.172 402.107 801.681 402.107C801.346 402.107 801.04 402.058 800.76 401.961C800.485 401.863 800.248 401.713 800.049 401.51C799.85 401.307 799.696 401.042 799.586 400.717C799.48 400.391 799.427 399.999 799.427 399.542V395.112H800.602V399.555C800.602 399.864 800.635 400.12 800.703 400.323C800.775 400.522 800.87 400.681 800.989 400.799C801.111 400.913 801.247 400.994 801.395 401.04C801.547 401.087 801.704 401.11 801.865 401.11C802.364 401.11 802.76 401.015 803.052 400.824C803.344 400.63 803.553 400.37 803.68 400.044C803.811 399.714 803.877 399.348 803.877 398.946ZM801.592 394.229L802.823 392.363H804.239L802.538 394.229H801.592ZM810.72 392.23H811.9V400.647L811.799 401.98H810.72V392.23ZM816.541 398.489V398.622C816.541 399.121 816.481 399.585 816.363 400.012C816.244 400.435 816.071 400.803 815.842 401.116C815.614 401.43 815.334 401.673 815.004 401.846C814.674 402.02 814.296 402.107 813.868 402.107C813.432 402.107 813.049 402.033 812.719 401.885C812.393 401.732 812.118 401.514 811.894 401.231C811.67 400.947 811.49 400.604 811.354 400.202C811.223 399.8 811.132 399.348 811.082 398.844V398.26C811.132 397.752 811.223 397.297 811.354 396.895C811.49 396.493 811.67 396.15 811.894 395.867C812.118 395.579 812.393 395.361 812.719 395.213C813.045 395.061 813.424 394.985 813.855 394.985C814.287 394.985 814.67 395.069 815.004 395.239C815.339 395.404 815.618 395.641 815.842 395.949C816.071 396.258 816.244 396.629 816.363 397.06C816.481 397.488 816.541 397.964 816.541 398.489ZM815.36 398.622V398.489C815.36 398.146 815.328 397.824 815.265 397.524C815.201 397.219 815.1 396.952 814.96 396.724C814.82 396.491 814.636 396.309 814.408 396.178C814.179 396.043 813.898 395.975 813.563 395.975C813.267 395.975 813.009 396.026 812.789 396.127C812.573 396.229 812.389 396.366 812.237 396.54C812.084 396.709 811.96 396.904 811.862 397.124C811.769 397.34 811.699 397.564 811.653 397.797V399.326C811.721 399.623 811.831 399.908 811.983 400.183C812.139 400.454 812.347 400.676 812.605 400.85C812.867 401.023 813.191 401.11 813.576 401.11C813.894 401.11 814.164 401.047 814.389 400.92C814.617 400.788 814.801 400.609 814.941 400.38C815.085 400.152 815.191 399.887 815.258 399.587C815.326 399.286 815.36 398.965 815.36 398.622ZM822.076 400.805V397.27C822.076 396.999 822.021 396.764 821.911 396.565C821.805 396.362 821.644 396.205 821.428 396.095C821.212 395.985 820.946 395.93 820.628 395.93C820.332 395.93 820.072 395.981 819.848 396.083C819.628 396.184 819.454 396.318 819.327 396.483C819.204 396.648 819.143 396.825 819.143 397.016H817.969C817.969 396.77 818.032 396.527 818.159 396.286C818.286 396.045 818.468 395.827 818.705 395.632C818.946 395.433 819.234 395.277 819.568 395.162C819.907 395.044 820.284 394.985 820.698 394.985C821.198 394.985 821.638 395.069 822.019 395.239C822.404 395.408 822.704 395.664 822.92 396.007C823.14 396.345 823.25 396.77 823.25 397.282V400.482C823.25 400.71 823.269 400.954 823.307 401.212C823.349 401.47 823.411 401.692 823.491 401.878V401.98H822.266C822.207 401.844 822.16 401.664 822.126 401.44C822.093 401.212 822.076 401 822.076 400.805ZM822.279 397.816L822.292 398.641H821.104C820.77 398.641 820.472 398.668 820.209 398.723C819.947 398.774 819.727 398.852 819.549 398.958C819.372 399.064 819.236 399.197 819.143 399.358C819.05 399.515 819.003 399.699 819.003 399.91C819.003 400.126 819.052 400.323 819.149 400.501C819.247 400.678 819.393 400.82 819.587 400.926C819.786 401.028 820.03 401.078 820.317 401.078C820.677 401.078 820.994 401.002 821.27 400.85C821.545 400.698 821.763 400.511 821.923 400.291C822.088 400.071 822.177 399.858 822.19 399.65L822.691 400.215C822.662 400.393 822.581 400.59 822.45 400.805C822.319 401.021 822.143 401.229 821.923 401.427C821.708 401.622 821.449 401.785 821.149 401.916C820.853 402.043 820.518 402.107 820.146 402.107C819.681 402.107 819.272 402.016 818.921 401.834C818.574 401.652 818.303 401.408 818.108 401.104C817.918 400.795 817.823 400.45 817.823 400.069C817.823 399.701 817.895 399.377 818.039 399.098C818.182 398.814 818.39 398.58 818.661 398.393C818.931 398.203 819.257 398.059 819.638 397.962C820.019 397.864 820.444 397.816 820.914 397.816H822.279ZM821.27 393.994H820.425L820.419 393.03C820.635 393.017 820.81 392.996 820.946 392.966C821.081 392.932 821.181 392.884 821.244 392.82C821.308 392.752 821.339 392.663 821.339 392.553C821.339 392.465 821.312 392.391 821.257 392.331C821.202 392.268 821.126 392.217 821.028 392.179C820.931 392.137 820.819 392.107 820.692 392.09C820.565 392.073 820.43 392.065 820.286 392.065L820.33 391.392C820.643 391.392 820.918 391.419 821.155 391.474C821.396 391.529 821.597 391.61 821.758 391.716C821.923 391.821 822.046 391.948 822.126 392.096C822.211 392.24 822.253 392.401 822.253 392.579C822.253 392.9 822.152 393.135 821.949 393.283C821.746 393.427 821.521 393.516 821.276 393.55L821.27 393.994ZM826.925 401.269L828.836 395.112H830.093L827.338 403.04C827.274 403.209 827.19 403.391 827.084 403.586C826.982 403.785 826.851 403.973 826.69 404.151C826.53 404.328 826.335 404.472 826.106 404.582C825.882 404.697 825.613 404.754 825.3 404.754C825.207 404.754 825.089 404.741 824.945 404.716C824.801 404.69 824.699 404.669 824.64 404.652L824.634 403.7C824.668 403.704 824.721 403.708 824.792 403.713C824.869 403.721 824.922 403.725 824.951 403.725C825.218 403.725 825.444 403.689 825.63 403.617C825.817 403.55 825.973 403.433 826.1 403.268C826.231 403.108 826.343 402.885 826.437 402.602L826.925 401.269ZM825.522 395.112L827.306 400.444L827.611 401.681L826.767 402.113L824.24 395.112H825.522Z" fill="#718EBF"/>
<path d="M918.642 399.041H919.86C919.797 399.625 919.63 400.147 919.359 400.609C919.088 401.07 918.705 401.436 918.21 401.707C917.715 401.973 917.097 402.107 916.356 402.107C915.815 402.107 915.322 402.005 914.877 401.802C914.437 401.599 914.059 401.311 913.741 400.939C913.424 400.562 913.178 400.111 913.005 399.587C912.836 399.058 912.751 398.469 912.751 397.822V396.902C912.751 396.254 912.836 395.668 913.005 395.143C913.178 394.614 913.426 394.162 913.748 393.785C914.073 393.408 914.465 393.118 914.922 392.915C915.379 392.712 915.893 392.611 916.464 392.611C917.163 392.611 917.753 392.742 918.235 393.004C918.718 393.267 919.092 393.63 919.359 394.096C919.63 394.557 919.797 395.093 919.86 395.702H918.642C918.582 395.27 918.472 394.9 918.312 394.591C918.151 394.278 917.922 394.037 917.626 393.867C917.33 393.698 916.943 393.614 916.464 393.614C916.054 393.614 915.692 393.692 915.379 393.848C915.07 394.005 914.81 394.227 914.598 394.515C914.391 394.803 914.234 395.148 914.128 395.55C914.023 395.952 913.97 396.398 913.97 396.889V397.822C913.97 398.275 914.016 398.7 914.109 399.098C914.207 399.496 914.353 399.845 914.547 400.145C914.742 400.446 914.99 400.683 915.29 400.856C915.59 401.025 915.946 401.11 916.356 401.11C916.877 401.11 917.292 401.028 917.601 400.863C917.91 400.698 918.142 400.461 918.299 400.152C918.46 399.843 918.574 399.472 918.642 399.041ZM922.526 392.23V401.98H921.352V392.23H922.526ZM922.247 398.285L921.758 398.266C921.763 397.797 921.832 397.363 921.968 396.965C922.103 396.563 922.294 396.214 922.539 395.918C922.785 395.622 923.076 395.393 923.415 395.232C923.758 395.067 924.137 394.985 924.551 394.985C924.89 394.985 925.194 395.031 925.465 395.124C925.736 395.213 925.967 395.357 926.157 395.556C926.352 395.755 926.5 396.013 926.602 396.33C926.703 396.643 926.754 397.026 926.754 397.479V401.98H925.573V397.467C925.573 397.107 925.52 396.819 925.415 396.603C925.309 396.383 925.154 396.225 924.951 396.127C924.748 396.026 924.498 395.975 924.202 395.975C923.91 395.975 923.644 396.036 923.402 396.159C923.165 396.282 922.96 396.451 922.787 396.667C922.617 396.883 922.484 397.13 922.387 397.409C922.294 397.684 922.247 397.976 922.247 398.285ZM932.714 400.393V395.112H933.895V401.98H932.771L932.714 400.393ZM932.937 398.946L933.425 398.933C933.425 399.39 933.377 399.813 933.279 400.202C933.186 400.587 933.034 400.922 932.822 401.205C932.611 401.489 932.333 401.711 931.991 401.872C931.648 402.028 931.231 402.107 930.74 402.107C930.406 402.107 930.099 402.058 929.82 401.961C929.545 401.863 929.308 401.713 929.109 401.51C928.91 401.307 928.756 401.042 928.646 400.717C928.54 400.391 928.487 399.999 928.487 399.542V395.112H929.661V399.555C929.661 399.864 929.695 400.12 929.763 400.323C929.835 400.522 929.93 400.681 930.048 400.799C930.171 400.913 930.306 400.994 930.455 401.04C930.607 401.087 930.764 401.11 930.924 401.11C931.424 401.11 931.819 401.015 932.111 400.824C932.403 400.63 932.613 400.37 932.74 400.044C932.871 399.714 932.937 399.348 932.937 398.946ZM931.661 393.994H930.816L930.81 393.03C931.026 393.017 931.201 392.996 931.337 392.966C931.472 392.932 931.572 392.884 931.635 392.82C931.699 392.752 931.73 392.663 931.73 392.553C931.73 392.465 931.703 392.391 931.648 392.331C931.593 392.268 931.517 392.217 931.419 392.179C931.322 392.137 931.21 392.107 931.083 392.09C930.956 392.073 930.821 392.065 930.677 392.065L930.721 391.392C931.034 391.392 931.309 391.419 931.546 391.474C931.788 391.529 931.989 391.61 932.149 391.716C932.314 391.821 932.437 391.948 932.518 392.096C932.602 392.24 932.645 392.401 932.645 392.579C932.645 392.9 932.543 393.135 932.34 393.283C932.137 393.427 931.912 393.516 931.667 393.55L931.661 393.994ZM943.309 396.578V401.98H942.134V395.112H943.245L943.309 396.578ZM943.029 398.285L942.541 398.266C942.545 397.797 942.615 397.363 942.75 396.965C942.885 396.563 943.076 396.214 943.321 395.918C943.567 395.622 943.859 395.393 944.197 395.232C944.54 395.067 944.919 394.985 945.333 394.985C945.672 394.985 945.977 395.031 946.248 395.124C946.518 395.213 946.749 395.357 946.939 395.556C947.134 395.755 947.282 396.013 947.384 396.33C947.485 396.643 947.536 397.026 947.536 397.479V401.98H946.355V397.467C946.355 397.107 946.303 396.819 946.197 396.603C946.091 396.383 945.937 396.225 945.733 396.127C945.53 396.026 945.281 395.975 944.984 395.975C944.692 395.975 944.426 396.036 944.185 396.159C943.948 396.282 943.742 396.451 943.569 396.667C943.4 396.883 943.266 397.13 943.169 397.409C943.076 397.684 943.029 397.976 943.029 398.285ZM950.494 392.23V401.98H949.32V392.23H950.494ZM950.215 398.285L949.726 398.266C949.73 397.797 949.8 397.363 949.936 396.965C950.071 396.563 950.261 396.214 950.507 395.918C950.752 395.622 951.044 395.393 951.383 395.232C951.726 395.067 952.104 394.985 952.519 394.985C952.858 394.985 953.162 395.031 953.433 395.124C953.704 395.213 953.935 395.357 954.125 395.556C954.32 395.755 954.468 396.013 954.569 396.33C954.671 396.643 954.722 397.026 954.722 397.479V401.98H953.541V397.467C953.541 397.107 953.488 396.819 953.382 396.603C953.277 396.383 953.122 396.225 952.919 396.127C952.716 396.026 952.466 395.975 952.17 395.975C951.878 395.975 951.611 396.036 951.37 396.159C951.133 396.282 950.928 396.451 950.754 396.667C950.585 396.883 950.452 397.13 950.354 397.409C950.261 397.684 950.215 397.976 950.215 398.285ZM960.53 400.805V397.27C960.53 396.999 960.475 396.764 960.365 396.565C960.259 396.362 960.098 396.205 959.882 396.095C959.667 395.985 959.4 395.93 959.083 395.93C958.786 395.93 958.526 395.981 958.302 396.083C958.082 396.184 957.908 396.318 957.781 396.483C957.659 396.648 957.597 396.825 957.597 397.016H956.423C956.423 396.77 956.486 396.527 956.613 396.286C956.74 396.045 956.922 395.827 957.159 395.632C957.4 395.433 957.688 395.277 958.022 395.162C958.361 395.044 958.738 394.985 959.152 394.985C959.652 394.985 960.092 395.069 960.473 395.239C960.858 395.408 961.158 395.664 961.374 396.007C961.594 396.345 961.704 396.77 961.704 397.282V400.482C961.704 400.71 961.723 400.954 961.761 401.212C961.804 401.47 961.865 401.692 961.945 401.878V401.98H960.72C960.661 401.844 960.614 401.664 960.581 401.44C960.547 401.212 960.53 401 960.53 400.805ZM960.733 397.816L960.746 398.641H959.559C959.224 398.641 958.926 398.668 958.664 398.723C958.401 398.774 958.181 398.852 958.003 398.958C957.826 399.064 957.69 399.197 957.597 399.358C957.504 399.515 957.458 399.699 957.458 399.91C957.458 400.126 957.506 400.323 957.604 400.501C957.701 400.678 957.847 400.82 958.042 400.926C958.24 401.028 958.484 401.078 958.771 401.078C959.131 401.078 959.449 401.002 959.724 400.85C959.999 400.698 960.217 400.511 960.377 400.291C960.542 400.071 960.631 399.858 960.644 399.65L961.146 400.215C961.116 400.393 961.035 400.59 960.904 400.805C960.773 401.021 960.597 401.229 960.377 401.427C960.162 401.622 959.903 401.785 959.603 401.916C959.307 402.043 958.972 402.107 958.6 402.107C958.135 402.107 957.726 402.016 957.375 401.834C957.028 401.652 956.757 401.408 956.562 401.104C956.372 400.795 956.277 400.45 956.277 400.069C956.277 399.701 956.349 399.377 956.493 399.098C956.637 398.814 956.844 398.58 957.115 398.393C957.386 398.203 957.711 398.059 958.092 397.962C958.473 397.864 958.898 397.816 959.368 397.816H960.733ZM959.635 392.23L961.209 393.963V394.026H960.231L959.279 392.953L958.333 394.026H957.369V393.956L958.924 392.23H959.635ZM958.042 403.541C958.042 403.351 958.099 403.19 958.213 403.059C958.331 402.928 958.505 402.862 958.733 402.862C958.958 402.862 959.129 402.928 959.248 403.059C959.37 403.19 959.432 403.351 959.432 403.541C959.432 403.723 959.37 403.878 959.248 404.005C959.129 404.136 958.958 404.201 958.733 404.201C958.505 404.201 958.331 404.136 958.213 404.005C958.099 403.878 958.042 403.723 958.042 403.541ZM966.427 395.112V396.013H962.713V395.112H966.427ZM963.97 393.442H965.145V400.279C965.145 400.511 965.181 400.687 965.252 400.805C965.324 400.924 965.417 401.002 965.532 401.04C965.646 401.078 965.769 401.097 965.9 401.097C965.997 401.097 966.099 401.089 966.205 401.072C966.315 401.051 966.397 401.034 966.452 401.021L966.458 401.98C966.365 402.009 966.243 402.037 966.09 402.062C965.942 402.092 965.762 402.107 965.551 402.107C965.263 402.107 964.999 402.05 964.757 401.935C964.516 401.821 964.324 401.631 964.18 401.364C964.04 401.093 963.97 400.729 963.97 400.272V393.442Z" fill="#718EBF"/>
<path d="M68.2497 102.255H69.0876C69.4981 102.255 69.8367 102.187 70.1033 102.052C70.3741 101.912 70.5751 101.724 70.7063 101.487C70.8417 101.245 70.9094 100.975 70.9094 100.674C70.9094 100.319 70.8502 100.02 70.7317 99.7791C70.6132 99.5378 70.4354 99.3559 70.1985 99.2332C69.9615 99.1104 69.661 99.0491 69.2971 99.0491C68.967 99.0491 68.675 99.1147 68.4211 99.2458C68.1714 99.3728 67.9747 99.5548 67.8308 99.7917C67.6911 100.029 67.6213 100.308 67.6213 100.63H66.447C66.447 100.16 66.5655 99.7325 66.8025 99.3474C67.0395 98.9623 67.3716 98.6555 67.7991 98.427C68.2307 98.1985 68.73 98.0842 69.2971 98.0842C69.8557 98.0842 70.3445 98.1837 70.7634 98.3826C71.1824 98.5772 71.5082 98.8692 71.7409 99.2585C71.9737 99.6436 72.0901 100.124 72.0901 100.699C72.0901 100.932 72.0351 101.182 71.925 101.448C71.8192 101.711 71.6521 101.956 71.4236 102.185C71.1993 102.413 70.9073 102.602 70.5476 102.75C70.1879 102.894 69.7562 102.966 69.2527 102.966H68.2497V102.255ZM68.2497 103.219V102.515H69.2527C69.8409 102.515 70.3275 102.585 70.7126 102.724C71.0977 102.864 71.4003 103.05 71.6203 103.283C71.8446 103.516 72.0012 103.772 72.0901 104.051C72.1832 104.326 72.2297 104.601 72.2297 104.876C72.2297 105.308 72.1557 105.691 72.0075 106.025C71.8637 106.359 71.6584 106.643 71.3918 106.876C71.1295 107.108 70.8205 107.284 70.4651 107.403C70.1096 107.521 69.7224 107.58 69.3034 107.58C68.9014 107.58 68.5227 107.523 68.1672 107.409C67.816 107.295 67.5049 107.13 67.2341 106.914C66.9633 106.694 66.7517 106.425 66.5993 106.108C66.447 105.786 66.3708 105.42 66.3708 105.01H67.5451C67.5451 105.331 67.615 105.613 67.7546 105.854C67.8985 106.095 68.1016 106.283 68.364 106.419C68.6306 106.55 68.9437 106.615 69.3034 106.615C69.6631 106.615 69.9721 106.554 70.2302 106.431C70.4926 106.304 70.6936 106.114 70.8332 105.86C70.9771 105.606 71.0491 105.287 71.0491 104.902C71.0491 104.517 70.9686 104.201 70.8078 103.956C70.647 103.706 70.4185 103.522 70.1223 103.404C69.8303 103.281 69.4854 103.219 69.0876 103.219H68.2497ZM79.6501 102.096V103.505C79.6501 104.263 79.5824 104.902 79.447 105.422C79.3116 105.943 79.1169 106.362 78.863 106.679C78.6091 106.996 78.3023 107.227 77.9426 107.371C77.5871 107.51 77.1851 107.58 76.7366 107.58C76.3811 107.58 76.0531 107.536 75.7527 107.447C75.4522 107.358 75.1814 107.216 74.9402 107.022C74.7032 106.823 74.5001 106.565 74.3308 106.247C74.1615 105.93 74.0325 105.545 73.9436 105.092C73.8547 104.639 73.8103 104.11 73.8103 103.505V102.096C73.8103 101.338 73.878 100.704 74.0134 100.192C74.1531 99.6796 74.3498 99.2691 74.6037 98.9602C74.8576 98.6471 75.1623 98.4228 75.5178 98.2874C75.8775 98.1519 76.2795 98.0842 76.7239 98.0842C77.0836 98.0842 77.4136 98.1287 77.7141 98.2175C78.0188 98.3022 78.2896 98.4397 78.5266 98.6301C78.7636 98.8163 78.9646 99.066 79.1296 99.3792C79.2989 99.6881 79.428 100.067 79.5168 100.515C79.6057 100.964 79.6501 101.491 79.6501 102.096ZM78.4695 103.696V101.899C78.4695 101.484 78.4441 101.121 78.3933 100.807C78.3467 100.49 78.2769 100.219 78.1838 99.9949C78.0907 99.7706 77.9722 99.5886 77.8284 99.449C77.6887 99.3093 77.5258 99.2078 77.3396 99.1443C77.1576 99.0766 76.9524 99.0427 76.7239 99.0427C76.4446 99.0427 76.197 99.0956 75.9812 99.2014C75.7654 99.303 75.5834 99.4659 75.4353 99.6902C75.2914 99.9145 75.1814 100.209 75.1052 100.573C75.029 100.936 74.9909 101.379 74.9909 101.899V103.696C74.9909 104.11 75.0142 104.476 75.0608 104.794C75.1116 105.111 75.1856 105.386 75.2829 105.619C75.3803 105.847 75.4988 106.036 75.6384 106.184C75.7781 106.332 75.9389 106.442 76.1208 106.514C76.307 106.582 76.5123 106.615 76.7366 106.615C77.0243 106.615 77.2761 106.56 77.4919 106.45C77.7077 106.34 77.8876 106.169 78.0315 105.936C78.1796 105.699 78.2896 105.397 78.3616 105.029C78.4335 104.656 78.4695 104.212 78.4695 103.696Z" fill="#718EBF"/>
<path d="M75.615 159.774V160.739H69.5657V159.895L72.5935 156.524C72.9659 156.109 73.2536 155.758 73.4568 155.47C73.6641 155.178 73.808 154.918 73.8884 154.689C73.973 154.457 74.0154 154.22 74.0154 153.979C74.0154 153.674 73.9519 153.399 73.8249 153.153C73.7022 152.904 73.5202 152.705 73.279 152.557C73.0378 152.409 72.7458 152.334 72.4031 152.334C71.9926 152.334 71.6498 152.415 71.3747 152.576C71.1039 152.732 70.9008 152.952 70.7654 153.236C70.6299 153.519 70.5622 153.845 70.5622 154.213H69.3879C69.3879 153.693 69.5022 153.217 69.7307 152.785C69.9592 152.354 70.2978 152.011 70.7463 151.757C71.1949 151.499 71.7471 151.37 72.4031 151.37C72.987 151.37 73.4864 151.473 73.9011 151.681C74.3158 151.884 74.6332 152.172 74.8533 152.544C75.0775 152.912 75.1897 153.344 75.1897 153.839C75.1897 154.11 75.1431 154.385 75.05 154.664C74.9612 154.939 74.8363 155.214 74.6755 155.489C74.5189 155.764 74.3349 156.035 74.1233 156.302C73.9159 156.568 73.6937 156.831 73.4568 157.089L70.9812 159.774H75.615ZM78.3572 156.34L77.4177 156.099L77.8811 151.497H82.6228V152.582H78.8777L78.5984 155.096C78.7676 154.998 78.9813 154.907 79.2395 154.823C79.5019 154.738 79.8023 154.696 80.1409 154.696C80.5683 154.696 80.9512 154.77 81.2898 154.918C81.6283 155.062 81.9161 155.269 82.1531 155.54C82.3943 155.811 82.5784 156.137 82.7053 156.518C82.8323 156.898 82.8957 157.324 82.8957 157.793C82.8957 158.238 82.8344 158.646 82.7117 159.019C82.5932 159.391 82.4133 159.717 82.1721 159.996C81.9309 160.271 81.6262 160.485 81.258 160.637C80.8941 160.79 80.4646 160.866 79.9695 160.866C79.5971 160.866 79.2437 160.815 78.9094 160.713C78.5793 160.608 78.2831 160.449 78.0207 160.237C77.7626 160.021 77.551 159.755 77.386 159.438C77.2252 159.116 77.1236 158.739 77.0813 158.308H78.1985C78.2492 158.655 78.3508 158.947 78.5032 159.184C78.6555 159.421 78.8544 159.6 79.0998 159.723C79.3495 159.842 79.6394 159.901 79.9695 159.901C80.2488 159.901 80.4963 159.852 80.7121 159.755C80.928 159.658 81.1099 159.518 81.258 159.336C81.4061 159.154 81.5183 158.934 81.5945 158.676C81.6749 158.418 81.7151 158.128 81.7151 157.806C81.7151 157.514 81.6749 157.243 81.5945 156.994C81.5141 156.744 81.3935 156.526 81.2326 156.34C81.0761 156.154 80.8835 156.01 80.655 155.908C80.4265 155.802 80.1641 155.75 79.8679 155.75C79.4743 155.75 79.176 155.802 78.9729 155.908C78.774 156.014 78.5687 156.158 78.3572 156.34Z" fill="#718EBF"/>
<path d="M75.615 211.237V212.202H69.5657V211.358L72.5935 207.987C72.9659 207.573 73.2536 207.221 73.4568 206.934C73.6641 206.642 73.808 206.381 73.8884 206.153C73.973 205.92 74.0154 205.683 74.0154 205.442C74.0154 205.137 73.9519 204.862 73.8249 204.617C73.7022 204.367 73.5202 204.168 73.279 204.02C73.0378 203.872 72.7458 203.798 72.4031 203.798C71.9926 203.798 71.6498 203.878 71.3747 204.039C71.1039 204.196 70.9008 204.416 70.7654 204.699C70.6299 204.983 70.5622 205.309 70.5622 205.677H69.3879C69.3879 205.156 69.5022 204.68 69.7307 204.249C69.9592 203.817 70.2978 203.474 70.7463 203.22C71.1949 202.962 71.7471 202.833 72.4031 202.833C72.987 202.833 73.4864 202.937 73.9011 203.144C74.3158 203.347 74.6332 203.635 74.8533 204.007C75.0775 204.375 75.1897 204.807 75.1897 205.302C75.1897 205.573 75.1431 205.848 75.05 206.127C74.9612 206.403 74.8363 206.678 74.6755 206.953C74.5189 207.228 74.3349 207.499 74.1233 207.765C73.9159 208.032 73.6937 208.294 73.4568 208.552L70.9812 211.237H75.615ZM82.6736 206.845V208.254C82.6736 209.011 82.6059 209.65 82.4704 210.171C82.335 210.691 82.1404 211.11 81.8865 211.428C81.6325 211.745 81.3257 211.976 80.966 212.12C80.6106 212.259 80.2086 212.329 79.76 212.329C79.4045 212.329 79.0766 212.285 78.7761 212.196C78.4756 212.107 78.2048 211.965 77.9636 211.771C77.7266 211.572 77.5235 211.313 77.3542 210.996C77.185 210.679 77.0559 210.294 76.967 209.841C76.8782 209.388 76.8337 208.859 76.8337 208.254V206.845C76.8337 206.087 76.9014 205.452 77.0368 204.94C77.1765 204.428 77.3733 204.018 77.6272 203.709C77.8811 203.396 78.1858 203.172 78.5412 203.036C78.9009 202.901 79.303 202.833 79.7473 202.833C80.107 202.833 80.4371 202.877 80.7375 202.966C81.0422 203.051 81.3131 203.188 81.55 203.379C81.787 203.565 81.988 203.815 82.1531 204.128C82.3223 204.437 82.4514 204.816 82.5403 205.264C82.6291 205.713 82.6736 206.24 82.6736 206.845ZM81.4929 208.444V206.648C81.4929 206.233 81.4675 205.869 81.4167 205.556C81.3702 205.239 81.3004 204.968 81.2073 204.744C81.1142 204.519 80.9957 204.337 80.8518 204.198C80.7121 204.058 80.5492 203.957 80.363 203.893C80.1811 203.825 79.9758 203.792 79.7473 203.792C79.468 203.792 79.2204 203.844 79.0046 203.95C78.7888 204.052 78.6068 204.215 78.4587 204.439C78.3148 204.663 78.2048 204.957 78.1286 205.321C78.0525 205.685 78.0144 206.127 78.0144 206.648V208.444C78.0144 208.859 78.0377 209.225 78.0842 209.542C78.135 209.86 78.209 210.135 78.3064 210.368C78.4037 210.596 78.5222 210.785 78.6618 210.933C78.8015 211.081 78.9623 211.191 79.1443 211.263C79.3305 211.33 79.5357 211.364 79.76 211.364C80.0478 211.364 80.2995 211.309 80.5154 211.199C80.7312 211.089 80.911 210.918 81.0549 210.685C81.203 210.448 81.3131 210.146 81.385 209.777C81.4569 209.405 81.4929 208.961 81.4929 208.444Z" fill="#718EBF"/>
<path d="M70.3952 253.974V263.267H69.2209V255.44L66.8533 256.304V255.244L70.2112 253.974H70.3952ZM75.3337 258.868L74.3943 258.627L74.8576 254.025H79.5993V255.11H75.8542L75.5749 257.624C75.7442 257.527 75.9579 257.436 76.216 257.351C76.4784 257.266 76.7789 257.224 77.1174 257.224C77.5448 257.224 77.9278 257.298 78.2663 257.446C78.6049 257.59 78.8926 257.798 79.1296 258.068C79.3708 258.339 79.5549 258.665 79.6819 259.046C79.8088 259.427 79.8723 259.852 79.8723 260.322C79.8723 260.766 79.8109 261.174 79.6882 261.547C79.5697 261.919 79.3899 262.245 79.1487 262.524C78.9075 262.799 78.6028 263.013 78.2346 263.166C77.8707 263.318 77.4411 263.394 76.946 263.394C76.5736 263.394 76.2203 263.343 75.886 263.242C75.5559 263.136 75.2597 262.977 74.9973 262.766C74.7392 262.55 74.5276 262.283 74.3625 261.966C74.2017 261.644 74.1002 261.268 74.0578 260.836H75.175C75.2258 261.183 75.3274 261.475 75.4797 261.712C75.6321 261.949 75.831 262.129 76.0764 262.251C76.3261 262.37 76.6159 262.429 76.946 262.429C77.2253 262.429 77.4729 262.381 77.6887 262.283C77.9045 262.186 78.0865 262.046 78.2346 261.864C78.3827 261.682 78.4949 261.462 78.571 261.204C78.6514 260.946 78.6916 260.656 78.6916 260.334C78.6916 260.042 78.6514 259.772 78.571 259.522C78.4906 259.272 78.37 259.054 78.2092 258.868C78.0526 258.682 77.8601 258.538 77.6316 258.437C77.4031 258.331 77.1407 258.278 76.8445 258.278C76.4509 258.278 76.1526 258.331 75.9494 258.437C75.7506 258.542 75.5453 258.686 75.3337 258.868Z" fill="#718EBF"/>
<path d="M70.5964 310.806L69.6569 310.565L70.1203 305.963H74.862V307.048H71.1169L70.8376 309.562C71.0068 309.465 71.2205 309.374 71.4787 309.289C71.7411 309.204 72.0415 309.162 72.3801 309.162C72.8075 309.162 73.1904 309.236 73.529 309.384C73.8675 309.528 74.1553 309.736 74.3923 310.006C74.6335 310.277 74.8176 310.603 74.9445 310.984C75.0715 311.365 75.1349 311.79 75.1349 312.26C75.1349 312.704 75.0736 313.112 74.9509 313.485C74.8324 313.857 74.6525 314.183 74.4113 314.462C74.1701 314.737 73.8654 314.951 73.4972 315.104C73.1333 315.256 72.7038 315.332 72.2087 315.332C71.8363 315.332 71.4829 315.281 71.1486 315.18C70.8185 315.074 70.5223 314.915 70.2599 314.704C70.0018 314.488 69.7902 314.221 69.6252 313.904C69.4644 313.582 69.3628 313.206 69.3205 312.774H70.4377C70.4885 313.121 70.59 313.413 70.7424 313.65C70.8947 313.887 71.0936 314.067 71.339 314.189C71.5887 314.308 71.8786 314.367 72.2087 314.367C72.488 314.367 72.7355 314.319 72.9513 314.221C73.1672 314.124 73.3491 313.984 73.4972 313.802C73.6454 313.62 73.7575 313.4 73.8337 313.142C73.9141 312.884 73.9543 312.594 73.9543 312.272C73.9543 311.98 73.9141 311.71 73.8337 311.46C73.7533 311.21 73.6327 310.992 73.4719 310.806C73.3153 310.62 73.1227 310.476 72.8942 310.375C72.6657 310.269 72.4033 310.216 72.1071 310.216C71.7136 310.216 71.4152 310.269 71.2121 310.375C71.0132 310.48 70.808 310.624 70.5964 310.806Z" fill="#718EBF"/>
<path d="M74.9114 361.785V363.194C74.9114 363.952 74.8437 364.591 74.7083 365.111C74.5728 365.632 74.3782 366.051 74.1243 366.368C73.8704 366.686 73.5636 366.916 73.2039 367.06C72.8484 367.2 72.4464 367.27 71.9978 367.27C71.6423 367.27 71.3144 367.225 71.0139 367.136C70.7135 367.047 70.4426 366.906 70.2014 366.711C69.9645 366.512 69.7613 366.254 69.5921 365.937C69.4228 365.619 69.2937 365.234 69.2048 364.781C69.116 364.328 69.0715 363.799 69.0715 363.194V361.785C69.0715 361.028 69.1393 360.393 69.2747 359.881C69.4143 359.369 69.6111 358.958 69.865 358.649C70.1189 358.336 70.4236 358.112 70.7791 357.977C71.1388 357.841 71.5408 357.773 71.9851 357.773C72.3448 357.773 72.6749 357.818 72.9754 357.907C73.28 357.991 73.5509 358.129 73.7879 358.319C74.0248 358.506 74.2258 358.755 74.3909 359.068C74.5602 359.377 74.6892 359.756 74.7781 360.205C74.867 360.653 74.9114 361.18 74.9114 361.785ZM73.7307 363.385V361.588C73.7307 361.174 73.7053 360.81 73.6546 360.497C73.608 360.179 73.5382 359.908 73.4451 359.684C73.352 359.46 73.2335 359.278 73.0896 359.138C72.95 358.999 72.787 358.897 72.6008 358.833C72.4189 358.766 72.2136 358.732 71.9851 358.732C71.7058 358.732 71.4583 358.785 71.2424 358.891C71.0266 358.992 70.8447 359.155 70.6965 359.379C70.5527 359.604 70.4426 359.898 70.3665 360.262C70.2903 360.626 70.2522 361.068 70.2522 361.588V363.385C70.2522 363.799 70.2755 364.166 70.322 364.483C70.3728 364.8 70.4469 365.075 70.5442 365.308C70.6415 365.537 70.76 365.725 70.8997 365.873C71.0393 366.021 71.2001 366.131 71.3821 366.203C71.5683 366.271 71.7735 366.305 71.9978 366.305C72.2856 366.305 72.5374 366.25 72.7532 366.14C72.969 366.03 73.1489 365.858 73.2927 365.625C73.4408 365.389 73.5509 365.086 73.6228 364.718C73.6948 364.345 73.7307 363.901 73.7307 363.385Z" fill="#718EBF"/>
<rect x="131.857" y="116.509" width="21.0411" height="249.863" rx="10.5205" fill="#34C759"/>
<rect x="169.732" y="238.633" width="21.0411" height="127.739" rx="10.5205" fill="#00C7BE"/>
<rect x="258.104" y="183.888" width="21.0411" height="182.484" rx="10.5205" fill="#34C759"/>
<rect x="295.979" y="297.59" width="21.0411" height="68.7826" rx="10.5205" fill="#00C7BE"/>
<rect x="384.348" y="195.118" width="21.0411" height="171.255" rx="10.5205" fill="#34C759"/>
<rect x="422.223" y="228.807" width="21.0411" height="137.565" rx="10.5205" fill="#00C7BE"/>
<rect x="510.596" y="116.509" width="21.0411" height="249.863" rx="10.5205" fill="#34C759"/>
<rect x="548.471" y="172.658" width="21.0411" height="193.714" rx="10.5205" fill="#00C7BE"/>
<rect x="636.844" y="286.36" width="21.0411" height="80.0124" rx="10.5205" fill="#34C759"/>
<rect x="674.719" y="238.633" width="21.0411" height="127.739" rx="10.5205" fill="#00C7BE"/>
<rect x="763.09" y="162.832" width="21.0411" height="203.54" rx="10.5205" fill="#34C759"/>
<rect x="800.965" y="238.633" width="21.0411" height="127.739" rx="10.5205" fill="#00C7BE"/>
<rect x="889.336" y="160.024" width="21.0411" height="206.348" rx="10.5205" fill="#34C759"/>
<rect x="927.211" y="189.503" width="21.0411" height="176.87" rx="10.5205" fill="#00C7BE"/>
<ellipse cx="618.634" cy="54.9757" rx="12.1004" ry="12.109" fill="#34C759"/>
<path d="M646.934 46.2026V56.8667H645.542V46.2026H646.934ZM650.362 46.2026V47.3599H642.122V46.2026H650.362ZM650.647 52.9922V52.8237C650.647 52.2524 650.73 51.7227 650.896 51.2344C651.062 50.7412 651.302 50.314 651.614 49.9526C651.927 49.5864 652.305 49.3032 652.75 49.103C653.194 48.8979 653.692 48.7954 654.244 48.7954C654.8 48.7954 655.301 48.8979 655.745 49.103C656.194 49.3032 656.575 49.5864 656.888 49.9526C657.205 50.314 657.447 50.7412 657.613 51.2344C657.779 51.7227 657.862 52.2524 657.862 52.8237V52.9922C657.862 53.5635 657.779 54.0933 657.613 54.5815C657.447 55.0698 657.205 55.4971 656.888 55.8633C656.575 56.2246 656.197 56.5078 655.752 56.7129C655.313 56.9131 654.815 57.0132 654.258 57.0132C653.702 57.0132 653.201 56.9131 652.757 56.7129C652.312 56.5078 651.932 56.2246 651.614 55.8633C651.302 55.4971 651.062 55.0698 650.896 54.5815C650.73 54.0933 650.647 53.5635 650.647 52.9922ZM652.002 52.8237V52.9922C652.002 53.3877 652.049 53.7612 652.142 54.1128C652.234 54.4595 652.374 54.7671 652.559 55.0356C652.75 55.3042 652.986 55.5166 653.27 55.6729C653.553 55.8242 653.882 55.8999 654.258 55.8999C654.629 55.8999 654.954 55.8242 655.232 55.6729C655.516 55.5166 655.75 55.3042 655.936 55.0356C656.121 54.7671 656.26 54.4595 656.353 54.1128C656.451 53.7612 656.5 53.3877 656.5 52.9922V52.8237C656.5 52.4331 656.451 52.0645 656.353 51.7178C656.26 51.3662 656.119 51.0562 655.928 50.7876C655.743 50.5142 655.508 50.2993 655.225 50.1431C654.947 49.9868 654.62 49.9087 654.244 49.9087C653.873 49.9087 653.545 49.9868 653.262 50.1431C652.984 50.2993 652.75 50.5142 652.559 50.7876C652.374 51.0562 652.234 51.3662 652.142 51.7178C652.049 52.0645 652.002 52.4331 652.002 52.8237ZM654.859 45.9683L656.866 47.8945H655.613L654.17 46.5322L652.735 47.8945H651.49L653.482 45.9683H654.859ZM657.093 46.8838H656.25L656.243 45.917C656.458 45.9023 656.631 45.8804 656.763 45.8511C656.895 45.8218 656.993 45.7778 657.056 45.7192C657.12 45.6558 657.151 45.5703 657.151 45.4629C657.151 45.3408 657.105 45.2456 657.012 45.1772C656.919 45.104 656.795 45.0527 656.639 45.0234C656.482 44.9893 656.309 44.9722 656.119 44.9722L656.163 44.291C656.475 44.291 656.749 44.3203 656.983 44.3789C657.222 44.4326 657.422 44.5132 657.583 44.6206C657.75 44.7231 657.874 44.8477 657.957 44.9941C658.04 45.1357 658.082 45.2969 658.082 45.4775C658.082 45.7949 657.979 46.0269 657.774 46.1733C657.574 46.3149 657.349 46.4028 657.1 46.437L657.093 46.8838ZM660.916 50.6338V56.8667H659.561V48.9419H660.843L660.916 50.6338ZM660.594 52.604L660.03 52.582C660.035 52.04 660.115 51.5396 660.271 51.0806C660.428 50.6167 660.647 50.2139 660.931 49.8721C661.214 49.5303 661.551 49.2666 661.941 49.0811C662.337 48.8906 662.774 48.7954 663.252 48.7954C663.643 48.7954 663.995 48.8491 664.307 48.9565C664.62 49.0591 664.886 49.2251 665.105 49.4546C665.33 49.6841 665.501 49.9819 665.618 50.3481C665.735 50.7095 665.794 51.1514 665.794 51.6738V56.8667H664.432V51.6592C664.432 51.2441 664.371 50.9121 664.249 50.6631C664.126 50.4092 663.948 50.2261 663.714 50.1138C663.479 49.9966 663.191 49.938 662.85 49.938C662.513 49.938 662.205 50.0088 661.927 50.1504C661.653 50.292 661.417 50.4873 661.216 50.7363C661.021 50.9854 660.867 51.271 660.755 51.5933C660.647 51.9106 660.594 52.2476 660.594 52.604ZM672.986 48.9419H674.217V56.6982C674.217 57.3965 674.075 57.9922 673.792 58.4854C673.509 58.9785 673.113 59.3521 672.605 59.606C672.103 59.8647 671.521 59.9941 670.862 59.9941C670.589 59.9941 670.267 59.9502 669.896 59.8623C669.529 59.7793 669.168 59.6353 668.812 59.4302C668.46 59.23 668.165 58.959 667.925 58.6172L668.636 57.8115C668.968 58.2119 669.314 58.4902 669.676 58.6465C670.042 58.8027 670.403 58.8809 670.76 58.8809C671.189 58.8809 671.561 58.8003 671.873 58.6392C672.186 58.478 672.427 58.2388 672.598 57.9214C672.774 57.6089 672.862 57.2231 672.862 56.7642V50.6851L672.986 48.9419ZM667.53 52.9922V52.8384C667.53 52.2329 667.601 51.6836 667.742 51.1904C667.889 50.6924 668.096 50.2651 668.365 49.9087C668.638 49.5522 668.968 49.2788 669.354 49.0884C669.739 48.8931 670.174 48.7954 670.657 48.7954C671.155 48.7954 671.59 48.8833 671.961 49.0591C672.337 49.23 672.654 49.4814 672.913 49.8135C673.177 50.1406 673.384 50.5361 673.536 51C673.687 51.4639 673.792 51.9888 673.851 52.5747V53.2485C673.797 53.8296 673.692 54.3521 673.536 54.8159C673.384 55.2798 673.177 55.6753 672.913 56.0024C672.654 56.3296 672.337 56.5811 671.961 56.7568C671.585 56.9277 671.146 57.0132 670.643 57.0132C670.169 57.0132 669.739 56.9131 669.354 56.7129C668.973 56.5127 668.646 56.2319 668.372 55.8706C668.099 55.5093 667.889 55.0845 667.742 54.5962C667.601 54.103 667.53 53.5684 667.53 52.9922ZM668.885 52.8384V52.9922C668.885 53.3877 668.924 53.7588 669.002 54.1055C669.085 54.4521 669.209 54.7573 669.375 55.021C669.546 55.2847 669.764 55.4922 670.027 55.6436C670.291 55.79 670.606 55.8633 670.972 55.8633C671.421 55.8633 671.792 55.7681 672.085 55.5776C672.378 55.3872 672.61 55.1357 672.781 54.8232C672.957 54.5107 673.094 54.1714 673.191 53.8052V52.04C673.138 51.7715 673.055 51.5127 672.942 51.2637C672.835 51.0098 672.693 50.7852 672.518 50.5898C672.347 50.3896 672.134 50.231 671.88 50.1138C671.626 49.9966 671.329 49.938 670.987 49.938C670.616 49.938 670.296 50.0161 670.027 50.1724C669.764 50.3237 669.546 50.5337 669.375 50.8022C669.209 51.0659 669.085 51.3735 669.002 51.7251C668.924 52.0718 668.885 52.4429 668.885 52.8384ZM681.468 45.6167V56.8667H680.105V45.6167H681.468ZM685.115 48.9419V56.8667H683.753V48.9419H685.115ZM683.65 46.8398C683.65 46.6201 683.716 46.4346 683.848 46.2832C683.985 46.1318 684.185 46.0562 684.449 46.0562C684.708 46.0562 684.905 46.1318 685.042 46.2832C685.184 46.4346 685.254 46.6201 685.254 46.8398C685.254 47.0498 685.184 47.2305 685.042 47.3818C684.905 47.5283 684.708 47.6016 684.449 47.6016C684.185 47.6016 683.985 47.5283 683.848 47.3818C683.716 47.2305 683.65 47.0498 683.65 46.8398ZM683.592 58.5952C683.592 58.3755 683.658 58.1899 683.79 58.0386C683.926 57.8872 684.126 57.8115 684.39 57.8115C684.649 57.8115 684.847 57.8872 684.983 58.0386C685.125 58.1899 685.196 58.3755 685.196 58.5952C685.196 58.8052 685.125 58.9834 684.983 59.1299C684.847 59.2812 684.649 59.3569 684.39 59.3569C684.126 59.3569 683.926 59.2812 683.79 59.1299C683.658 58.9834 683.592 58.8052 683.592 58.5952ZM690.462 55.8999C690.784 55.8999 691.082 55.834 691.355 55.7021C691.629 55.5703 691.854 55.3896 692.029 55.1602C692.205 54.9258 692.305 54.6597 692.33 54.3618H693.619C693.594 54.8306 693.436 55.2676 693.143 55.6729C692.854 56.0732 692.476 56.3979 692.007 56.647C691.539 56.8911 691.023 57.0132 690.462 57.0132C689.866 57.0132 689.346 56.9082 688.902 56.6982C688.462 56.4883 688.096 56.2002 687.803 55.834C687.515 55.4678 687.298 55.0479 687.151 54.5742C687.01 54.0957 686.939 53.5903 686.939 53.0581V52.7505C686.939 52.2183 687.01 51.7153 687.151 51.2417C687.298 50.7632 687.515 50.3408 687.803 49.9746C688.096 49.6084 688.462 49.3203 688.902 49.1104C689.346 48.9004 689.866 48.7954 690.462 48.7954C691.082 48.7954 691.624 48.9224 692.088 49.1763C692.552 49.4253 692.916 49.7671 693.179 50.2017C693.448 50.6313 693.594 51.1196 693.619 51.6665H692.33C692.305 51.3394 692.212 51.0439 692.051 50.7803C691.895 50.5166 691.68 50.3066 691.407 50.1504C691.138 49.9893 690.823 49.9087 690.462 49.9087C690.047 49.9087 689.698 49.9917 689.415 50.1577C689.136 50.3188 688.914 50.5386 688.748 50.8169C688.587 51.0903 688.47 51.3955 688.396 51.7324C688.328 52.0645 688.294 52.4038 688.294 52.7505V53.0581C688.294 53.4048 688.328 53.7466 688.396 54.0835C688.465 54.4204 688.58 54.7256 688.741 54.999C688.907 55.2725 689.129 55.4922 689.407 55.6582C689.69 55.8193 690.042 55.8999 690.462 55.8999ZM696.497 45.6167V56.8667H695.142V45.6167H696.497ZM696.175 52.604L695.611 52.582C695.616 52.04 695.696 51.5396 695.853 51.0806C696.009 50.6167 696.229 50.2139 696.512 49.8721C696.795 49.5303 697.132 49.2666 697.522 49.0811C697.918 48.8906 698.355 48.7954 698.833 48.7954C699.224 48.7954 699.576 48.8491 699.888 48.9565C700.201 49.0591 700.467 49.2251 700.687 49.4546C700.911 49.6841 701.082 49.9819 701.199 50.3481C701.316 50.7095 701.375 51.1514 701.375 51.6738V56.8667H700.013V51.6592C700.013 51.2441 699.952 50.9121 699.83 50.6631C699.708 50.4092 699.529 50.2261 699.295 50.1138C699.061 49.9966 698.772 49.938 698.431 49.938C698.094 49.938 697.786 50.0088 697.508 50.1504C697.234 50.292 696.998 50.4873 696.797 50.7363C696.602 50.9854 696.448 51.271 696.336 51.5933C696.229 51.9106 696.175 52.2476 696.175 52.604ZM712.12 55.3286V45.6167H713.482V56.8667H712.237L712.12 55.3286ZM706.788 52.9922V52.8384C706.788 52.2329 706.861 51.6836 707.007 51.1904C707.159 50.6924 707.371 50.2651 707.645 49.9087C707.923 49.5522 708.252 49.2788 708.633 49.0884C709.019 48.8931 709.449 48.7954 709.922 48.7954C710.42 48.7954 710.855 48.8833 711.226 49.0591C711.602 49.23 711.919 49.4814 712.178 49.8135C712.442 50.1406 712.649 50.5361 712.801 51C712.952 51.4639 713.057 51.9888 713.116 52.5747V53.2485C713.062 53.8296 712.957 54.3521 712.801 54.8159C712.649 55.2798 712.442 55.6753 712.178 56.0024C711.919 56.3296 711.602 56.5811 711.226 56.7568C710.85 56.9277 710.411 57.0132 709.908 57.0132C709.444 57.0132 709.019 56.9131 708.633 56.7129C708.252 56.5127 707.923 56.2319 707.645 55.8706C707.371 55.5093 707.159 55.0845 707.007 54.5962C706.861 54.103 706.788 53.5684 706.788 52.9922ZM708.15 52.8384V52.9922C708.15 53.3877 708.189 53.7588 708.267 54.1055C708.35 54.4521 708.477 54.7573 708.648 55.021C708.819 55.2847 709.036 55.4922 709.3 55.6436C709.563 55.79 709.878 55.8633 710.245 55.8633C710.694 55.8633 711.062 55.7681 711.351 55.5776C711.644 55.3872 711.878 55.1357 712.054 54.8232C712.229 54.5107 712.366 54.1714 712.464 53.8052V52.04C712.405 51.7715 712.32 51.5127 712.208 51.2637C712.1 51.0098 711.958 50.7852 711.783 50.5898C711.612 50.3896 711.399 50.231 711.146 50.1138C710.896 49.9966 710.601 49.938 710.259 49.938C709.888 49.938 709.568 50.0161 709.3 50.1724C709.036 50.3237 708.819 50.5337 708.648 50.8022C708.477 51.0659 708.35 51.3735 708.267 51.7251C708.189 52.0718 708.15 52.4429 708.15 52.8384ZM714.859 46.7227V47.8359H710.193V46.7227H714.859ZM720.762 55.5117V51.4321C720.762 51.1196 720.699 50.8486 720.572 50.6191C720.45 50.3848 720.264 50.2041 720.015 50.0771C719.766 49.9502 719.458 49.8867 719.092 49.8867C718.75 49.8867 718.45 49.9453 718.191 50.0625C717.938 50.1797 717.737 50.3335 717.591 50.5239C717.449 50.7144 717.378 50.9194 717.378 51.1392H716.023C716.023 50.856 716.097 50.5752 716.243 50.2969C716.39 50.0186 716.6 49.7671 716.873 49.5425C717.151 49.313 717.483 49.1323 717.869 49.0005C718.26 48.8638 718.694 48.7954 719.173 48.7954C719.749 48.7954 720.257 48.8931 720.696 49.0884C721.141 49.2837 721.487 49.5791 721.736 49.9746C721.99 50.3652 722.117 50.856 722.117 51.4468V55.1382C722.117 55.4019 722.139 55.6826 722.183 55.9805C722.232 56.2783 722.303 56.5347 722.396 56.7495V56.8667H720.982C720.914 56.7104 720.86 56.5029 720.821 56.2441C720.782 55.9805 720.762 55.7363 720.762 55.5117ZM720.997 52.062L721.011 53.0142H719.642C719.256 53.0142 718.912 53.0459 718.609 53.1094C718.306 53.168 718.052 53.2583 717.847 53.3804C717.642 53.5024 717.486 53.6562 717.378 53.8418C717.271 54.0225 717.217 54.2349 717.217 54.479C717.217 54.728 717.273 54.9551 717.386 55.1602C717.498 55.3652 717.667 55.5288 717.891 55.6509C718.121 55.7681 718.401 55.8267 718.733 55.8267C719.148 55.8267 719.515 55.7388 719.832 55.563C720.149 55.3872 720.401 55.1724 720.586 54.9185C720.777 54.6646 720.879 54.418 720.894 54.1787L721.473 54.8306C721.438 55.0356 721.346 55.2627 721.194 55.5117C721.043 55.7607 720.84 56 720.586 56.2295C720.337 56.4541 720.04 56.6421 719.693 56.7935C719.351 56.9399 718.965 57.0132 718.536 57.0132C717.999 57.0132 717.527 56.9082 717.122 56.6982C716.722 56.4883 716.409 56.2075 716.185 55.856C715.965 55.4995 715.855 55.1016 715.855 54.6621C715.855 54.2373 715.938 53.8638 716.104 53.5415C716.27 53.2144 716.509 52.9434 716.822 52.7285C717.134 52.5088 717.51 52.3428 717.95 52.2305C718.389 52.1182 718.88 52.062 719.422 52.062H720.997ZM720.411 45.917H721.509C721.509 46.2979 721.421 46.6372 721.246 46.9351C721.07 47.228 720.818 47.4575 720.491 47.6235C720.164 47.7896 719.776 47.8726 719.327 47.8726C718.648 47.8726 718.111 47.6919 717.715 47.3306C717.325 46.9644 717.129 46.4932 717.129 45.917H718.228C718.228 46.2051 718.311 46.459 718.477 46.6787C718.643 46.8984 718.926 47.0083 719.327 47.0083C719.717 47.0083 719.996 46.8984 720.162 46.6787C720.328 46.459 720.411 46.2051 720.411 45.917ZM717.891 58.6685C717.891 58.4487 717.957 58.2632 718.089 58.1118C718.226 57.9604 718.426 57.8848 718.689 57.8848C718.948 57.8848 719.146 57.9604 719.283 58.1118C719.424 58.2632 719.495 58.4487 719.495 58.6685C719.495 58.8784 719.424 59.0566 719.283 59.2031C719.146 59.3545 718.948 59.4302 718.689 59.4302C718.426 59.4302 718.226 59.3545 718.089 59.2031C717.957 59.0566 717.891 58.8784 717.891 58.6685ZM727.566 48.9419V49.9819H723.282V48.9419H727.566ZM724.732 47.0156H726.087V54.9038C726.087 55.1724 726.128 55.375 726.211 55.5117C726.294 55.6484 726.402 55.7388 726.534 55.7827C726.666 55.8267 726.807 55.8486 726.958 55.8486C727.071 55.8486 727.188 55.8389 727.31 55.8193C727.437 55.7949 727.532 55.7754 727.596 55.7607L727.603 56.8667C727.496 56.9009 727.354 56.9326 727.178 56.9619C727.007 56.9961 726.8 57.0132 726.556 57.0132C726.224 57.0132 725.918 56.9473 725.64 56.8154C725.362 56.6836 725.14 56.4639 724.974 56.1562C724.812 55.8438 724.732 55.4238 724.732 54.8965V47.0156Z" fill="#718EBF"/>
<ellipse cx="838.788" cy="52.9752" rx="12.1004" ry="12.109" fill="#00C7BE"/>
<path d="M873.754 46.396V57.0601H872.363V46.396H873.754ZM877.182 46.396V47.5532H868.942V46.396H877.182ZM879.914 45.8101V57.0601H878.559V45.8101H879.914ZM879.592 52.7974L879.028 52.7754C879.033 52.2334 879.113 51.7329 879.27 51.2739C879.426 50.8101 879.646 50.4072 879.929 50.0654C880.212 49.7236 880.549 49.46 880.939 49.2744C881.335 49.084 881.772 48.9888 882.25 48.9888C882.641 48.9888 882.993 49.0425 883.305 49.1499C883.618 49.2524 883.884 49.4185 884.104 49.6479C884.328 49.8774 884.499 50.1753 884.616 50.5415C884.733 50.9028 884.792 51.3447 884.792 51.8672V57.0601H883.43V51.8525C883.43 51.4375 883.369 51.1055 883.247 50.8564C883.125 50.6025 882.946 50.4194 882.712 50.3071C882.478 50.1899 882.189 50.1313 881.848 50.1313C881.511 50.1313 881.203 50.2021 880.925 50.3438C880.651 50.4854 880.415 50.6807 880.214 50.9297C880.019 51.1787 879.865 51.4644 879.753 51.7866C879.646 52.104 879.592 52.4409 879.592 52.7974ZM891.494 55.7051V51.6255C891.494 51.313 891.43 51.042 891.303 50.8125C891.181 50.5781 890.996 50.3975 890.747 50.2705C890.498 50.1436 890.19 50.0801 889.824 50.0801C889.482 50.0801 889.182 50.1387 888.923 50.2559C888.669 50.373 888.469 50.5269 888.322 50.7173C888.181 50.9077 888.11 51.1128 888.11 51.3325H886.755C886.755 51.0493 886.828 50.7686 886.975 50.4902C887.121 50.2119 887.331 49.9604 887.604 49.7358C887.883 49.5063 888.215 49.3257 888.601 49.1938C888.991 49.0571 889.426 48.9888 889.904 48.9888C890.48 48.9888 890.988 49.0864 891.428 49.2817C891.872 49.4771 892.219 49.7725 892.468 50.168C892.722 50.5586 892.849 51.0493 892.849 51.6401V55.3315C892.849 55.5952 892.871 55.876 892.915 56.1738C892.963 56.4717 893.034 56.728 893.127 56.9429V57.0601H891.713C891.645 56.9038 891.591 56.6963 891.552 56.4375C891.513 56.1738 891.494 55.9297 891.494 55.7051ZM891.728 52.2554L891.743 53.2075H890.373C889.987 53.2075 889.643 53.2393 889.34 53.3027C889.038 53.3613 888.784 53.4517 888.579 53.5737C888.374 53.6958 888.217 53.8496 888.11 54.0352C888.002 54.2158 887.949 54.4282 887.949 54.6724C887.949 54.9214 888.005 55.1484 888.117 55.3535C888.229 55.5586 888.398 55.7222 888.623 55.8442C888.852 55.9614 889.133 56.02 889.465 56.02C889.88 56.02 890.246 55.9321 890.563 55.7563C890.881 55.5806 891.132 55.3657 891.318 55.1118C891.508 54.8579 891.611 54.6113 891.625 54.3721L892.204 55.0239C892.17 55.229 892.077 55.4561 891.926 55.7051C891.774 55.9541 891.572 56.1934 891.318 56.4229C891.069 56.6475 890.771 56.8354 890.424 56.9868C890.083 57.1333 889.697 57.2065 889.267 57.2065C888.73 57.2065 888.259 57.1016 887.854 56.8916C887.453 56.6816 887.141 56.4009 886.916 56.0493C886.696 55.6929 886.586 55.2949 886.586 54.8555C886.586 54.4307 886.669 54.0571 886.835 53.7349C887.001 53.4077 887.241 53.1367 887.553 52.9219C887.866 52.7021 888.242 52.5361 888.681 52.4238C889.121 52.3115 889.611 52.2554 890.153 52.2554H891.728ZM889.406 45.8101L890.82 47.9634H889.655L887.766 45.8101H889.406ZM896.335 50.8271V57.0601H894.98V49.1353H896.262L896.335 50.8271ZM896.013 52.7974L895.449 52.7754C895.454 52.2334 895.534 51.7329 895.69 51.2739C895.847 50.8101 896.066 50.4072 896.35 50.0654C896.633 49.7236 896.97 49.46 897.36 49.2744C897.756 49.084 898.193 48.9888 898.671 48.9888C899.062 48.9888 899.414 49.0425 899.726 49.1499C900.039 49.2524 900.305 49.4185 900.524 49.6479C900.749 49.8774 900.92 50.1753 901.037 50.5415C901.154 50.9028 901.213 51.3447 901.213 51.8672V57.0601H899.851V51.8525C899.851 51.4375 899.79 51.1055 899.667 50.8564C899.545 50.6025 899.367 50.4194 899.133 50.3071C898.898 50.1899 898.61 50.1313 898.269 50.1313C897.932 50.1313 897.624 50.2021 897.346 50.3438C897.072 50.4854 896.835 50.6807 896.635 50.9297C896.44 51.1787 896.286 51.4644 896.174 51.7866C896.066 52.104 896.013 52.4409 896.013 52.7974ZM904.626 45.8101V57.0601H903.271V45.8101H904.626ZM904.304 52.7974L903.74 52.7754C903.745 52.2334 903.825 51.7329 903.981 51.2739C904.138 50.8101 904.357 50.4072 904.641 50.0654C904.924 49.7236 905.261 49.46 905.651 49.2744C906.047 49.084 906.484 48.9888 906.962 48.9888C907.353 48.9888 907.705 49.0425 908.017 49.1499C908.33 49.2524 908.596 49.4185 908.815 49.6479C909.04 49.8774 909.211 50.1753 909.328 50.5415C909.445 50.9028 909.504 51.3447 909.504 51.8672V57.0601H908.142V51.8525C908.142 51.4375 908.081 51.1055 907.958 50.8564C907.836 50.6025 907.658 50.4194 907.424 50.3071C907.189 50.1899 906.901 50.1313 906.56 50.1313C906.223 50.1313 905.915 50.2021 905.637 50.3438C905.363 50.4854 905.126 50.6807 904.926 50.9297C904.731 51.1787 904.577 51.4644 904.465 51.7866C904.357 52.104 904.304 52.4409 904.304 52.7974ZM918.425 56.0933C918.747 56.0933 919.045 56.0273 919.318 55.8955C919.592 55.7637 919.816 55.583 919.992 55.3535C920.168 55.1191 920.268 54.853 920.292 54.5552H921.582C921.557 55.0239 921.398 55.4609 921.105 55.8662C920.817 56.2666 920.439 56.5913 919.97 56.8403C919.501 57.0845 918.986 57.2065 918.425 57.2065C917.829 57.2065 917.309 57.1016 916.865 56.8916C916.425 56.6816 916.059 56.3936 915.766 56.0273C915.478 55.6611 915.261 55.2412 915.114 54.7676C914.973 54.2891 914.902 53.7837 914.902 53.2515V52.9438C914.902 52.4116 914.973 51.9087 915.114 51.4351C915.261 50.9565 915.478 50.5342 915.766 50.168C916.059 49.8018 916.425 49.5137 916.865 49.3037C917.309 49.0938 917.829 48.9888 918.425 48.9888C919.045 48.9888 919.587 49.1157 920.051 49.3696C920.515 49.6187 920.878 49.9604 921.142 50.395C921.411 50.8247 921.557 51.313 921.582 51.8599H920.292C920.268 51.5327 920.175 51.2373 920.014 50.9736C919.858 50.71 919.643 50.5 919.37 50.3438C919.101 50.1826 918.786 50.1021 918.425 50.1021C918.01 50.1021 917.661 50.1851 917.377 50.3511C917.099 50.5122 916.877 50.7319 916.711 51.0103C916.55 51.2837 916.433 51.5889 916.359 51.9258C916.291 52.2578 916.257 52.5972 916.257 52.9438V53.2515C916.257 53.5981 916.291 53.9399 916.359 54.2769C916.428 54.6138 916.542 54.9189 916.704 55.1924C916.87 55.4658 917.092 55.6855 917.37 55.8516C917.653 56.0127 918.005 56.0933 918.425 56.0933ZM922.746 53.1855V53.0171C922.746 52.4458 922.829 51.916 922.995 51.4277C923.161 50.9346 923.4 50.5073 923.713 50.146C924.025 49.7798 924.404 49.4966 924.848 49.2964C925.292 49.0913 925.791 48.9888 926.342 48.9888C926.899 48.9888 927.399 49.0913 927.844 49.2964C928.293 49.4966 928.674 49.7798 928.986 50.146C929.304 50.5073 929.545 50.9346 929.711 51.4277C929.877 51.916 929.96 52.4458 929.96 53.0171V53.1855C929.96 53.7568 929.877 54.2866 929.711 54.7749C929.545 55.2632 929.304 55.6904 928.986 56.0566C928.674 56.418 928.295 56.7012 927.851 56.9062C927.412 57.1064 926.914 57.2065 926.357 57.2065C925.8 57.2065 925.3 57.1064 924.855 56.9062C924.411 56.7012 924.03 56.418 923.713 56.0566C923.4 55.6904 923.161 55.2632 922.995 54.7749C922.829 54.2866 922.746 53.7568 922.746 53.1855ZM924.101 53.0171V53.1855C924.101 53.5811 924.147 53.9546 924.24 54.3062C924.333 54.6528 924.472 54.9604 924.658 55.229C924.848 55.4976 925.085 55.71 925.368 55.8662C925.651 56.0176 925.981 56.0933 926.357 56.0933C926.728 56.0933 927.053 56.0176 927.331 55.8662C927.614 55.71 927.849 55.4976 928.034 55.229C928.22 54.9604 928.359 54.6528 928.452 54.3062C928.549 53.9546 928.598 53.5811 928.598 53.1855V53.0171C928.598 52.6265 928.549 52.2578 928.452 51.9111C928.359 51.5596 928.217 51.2495 928.027 50.981C927.841 50.7075 927.607 50.4927 927.324 50.3364C927.045 50.1802 926.718 50.1021 926.342 50.1021C925.971 50.1021 925.644 50.1802 925.361 50.3364C925.083 50.4927 924.848 50.7075 924.658 50.981C924.472 51.2495 924.333 51.5596 924.24 51.9111C924.147 52.2578 924.101 52.6265 924.101 53.0171ZM926.694 45.8101L928.51 47.8096V47.8828H927.382L926.284 46.645L925.192 47.8828H924.079V47.8022L925.874 45.8101H926.694ZM933.015 50.8271V57.0601H931.66V49.1353H932.941L933.015 50.8271ZM932.692 52.7974L932.128 52.7754C932.133 52.2334 932.214 51.7329 932.37 51.2739C932.526 50.8101 932.746 50.4072 933.029 50.0654C933.312 49.7236 933.649 49.46 934.04 49.2744C934.436 49.084 934.873 48.9888 935.351 48.9888C935.742 48.9888 936.093 49.0425 936.406 49.1499C936.718 49.2524 936.984 49.4185 937.204 49.6479C937.429 49.8774 937.6 50.1753 937.717 50.5415C937.834 50.9028 937.893 51.3447 937.893 51.8672V57.0601H936.53V51.8525C936.53 51.4375 936.469 51.1055 936.347 50.8564C936.225 50.6025 936.047 50.4194 935.812 50.3071C935.578 50.1899 935.29 50.1313 934.948 50.1313C934.611 50.1313 934.304 50.2021 934.025 50.3438C933.752 50.4854 933.515 50.6807 933.315 50.9297C933.12 51.1787 932.966 51.4644 932.854 51.7866C932.746 52.104 932.692 52.4409 932.692 52.7974ZM945.085 49.1353H946.315V56.8916C946.315 57.5898 946.174 58.1855 945.891 58.6787C945.607 59.1719 945.212 59.5454 944.704 59.7993C944.201 60.0581 943.62 60.1875 942.961 60.1875C942.688 60.1875 942.365 60.1436 941.994 60.0557C941.628 59.9727 941.267 59.8286 940.91 59.6235C940.559 59.4233 940.263 59.1523 940.024 58.8105L940.734 58.0049C941.066 58.4053 941.413 58.6836 941.774 58.8398C942.141 58.9961 942.502 59.0742 942.858 59.0742C943.288 59.0742 943.659 58.9937 943.972 58.8325C944.284 58.6714 944.526 58.4321 944.697 58.1147C944.873 57.8022 944.96 57.4165 944.96 56.9575V50.8784L945.085 49.1353ZM939.628 53.1855V53.0317C939.628 52.4263 939.699 51.877 939.841 51.3838C939.987 50.8857 940.195 50.4585 940.463 50.1021C940.737 49.7456 941.066 49.4722 941.452 49.2817C941.838 49.0864 942.272 48.9888 942.756 48.9888C943.254 48.9888 943.688 49.0767 944.06 49.2524C944.436 49.4233 944.753 49.6748 945.012 50.0068C945.275 50.334 945.483 50.7295 945.634 51.1934C945.786 51.6572 945.891 52.1821 945.949 52.7681V53.4419C945.896 54.0229 945.791 54.5454 945.634 55.0093C945.483 55.4731 945.275 55.8687 945.012 56.1958C944.753 56.5229 944.436 56.7744 944.06 56.9502C943.684 57.1211 943.244 57.2065 942.741 57.2065C942.268 57.2065 941.838 57.1064 941.452 56.9062C941.071 56.7061 940.744 56.4253 940.471 56.064C940.197 55.7026 939.987 55.2778 939.841 54.7896C939.699 54.2964 939.628 53.7617 939.628 53.1855ZM940.983 53.0317V53.1855C940.983 53.5811 941.022 53.9521 941.101 54.2988C941.184 54.6455 941.308 54.9507 941.474 55.2144C941.645 55.478 941.862 55.6855 942.126 55.8369C942.39 55.9834 942.705 56.0566 943.071 56.0566C943.52 56.0566 943.891 55.9614 944.184 55.771C944.477 55.5806 944.709 55.3291 944.88 55.0166C945.056 54.7041 945.192 54.3647 945.29 53.9985V52.2334C945.236 51.9648 945.153 51.7061 945.041 51.457C944.934 51.2031 944.792 50.9785 944.616 50.7832C944.445 50.583 944.233 50.4243 943.979 50.3071C943.725 50.1899 943.427 50.1313 943.085 50.1313C942.714 50.1313 942.395 50.2095 942.126 50.3657C941.862 50.5171 941.645 50.7271 941.474 50.9956C941.308 51.2593 941.184 51.5669 941.101 51.9185C941.022 52.2651 940.983 52.6362 940.983 53.0317Z" fill="#718EBF"/>
</svg>
