<svg width="1025" height="452" viewBox="0 0 1025 452" fill="none" xmlns="http://www.w3.org/2000/svg">
<rect y="0.147217" width="1024.39" height="451.853" rx="25" fill="white"/>
<rect x="96.8257" y="106.796" width="885.463" height="1.40327" fill="#F3F3F5"/>
<rect x="96.8257" y="158.717" width="885.463" height="1.40327" fill="#F3F3F5"/>
<rect x="96.8257" y="210.638" width="885.463" height="1.40327" fill="#F3F3F5"/>
<rect x="96.8257" y="262.559" width="885.463" height="1.40327" fill="#F3F3F5"/>
<rect x="96.8257" y="314.48" width="885.463" height="1.40327" fill="#F3F3F5"/>
<rect x="96.8257" y="366.4" width="885.463" height="1.40327" fill="#F3F3F5"/>
<path d="M151.236 392.758V402H150.03V392.758H151.236ZM154.207 392.758V393.761H147.066V392.758H154.207ZM156.575 392.25V402H155.4V392.25H156.575ZM156.295 398.306L155.807 398.287C155.811 397.817 155.881 397.383 156.016 396.985C156.152 396.583 156.342 396.234 156.587 395.938C156.833 395.642 157.125 395.413 157.463 395.252C157.806 395.087 158.185 395.005 158.6 395.005C158.938 395.005 159.243 395.051 159.514 395.145C159.785 395.233 160.015 395.377 160.206 395.576C160.4 395.775 160.548 396.033 160.65 396.351C160.751 396.664 160.802 397.047 160.802 397.5V402H159.622V397.487C159.622 397.127 159.569 396.839 159.463 396.624C159.357 396.403 159.203 396.245 159 396.147C158.796 396.046 158.547 395.995 158.25 395.995C157.958 395.995 157.692 396.056 157.451 396.179C157.214 396.302 157.008 396.471 156.835 396.687C156.666 396.903 156.532 397.15 156.435 397.43C156.342 397.705 156.295 397.997 156.295 398.306ZM168.991 394.58H169.892C169.892 395.041 169.831 395.428 169.708 395.741C169.59 396.054 169.38 396.289 169.08 396.446C168.779 396.602 168.356 396.681 167.81 396.681V395.957C168.191 395.957 168.464 395.91 168.629 395.817C168.794 395.72 168.896 395.57 168.934 395.367C168.972 395.164 168.991 394.901 168.991 394.58ZM166.763 400.413V395.132H167.943V402H166.82L166.763 400.413ZM166.985 398.966L167.474 398.953C167.474 399.41 167.425 399.833 167.328 400.223C167.235 400.608 167.082 400.942 166.871 401.226C166.659 401.509 166.382 401.731 166.039 401.892C165.696 402.049 165.279 402.127 164.789 402.127C164.454 402.127 164.147 402.078 163.868 401.981C163.593 401.884 163.356 401.733 163.157 401.53C162.958 401.327 162.804 401.063 162.694 400.737C162.588 400.411 162.535 400.02 162.535 399.562V395.132H163.709V399.575C163.709 399.884 163.743 400.14 163.811 400.343C163.883 400.542 163.978 400.701 164.097 400.819C164.219 400.934 164.355 401.014 164.503 401.061C164.655 401.107 164.812 401.13 164.973 401.13C165.472 401.13 165.868 401.035 166.16 400.845C166.452 400.65 166.661 400.39 166.788 400.064C166.919 399.734 166.985 399.368 166.985 398.966ZM164.7 394.25L165.931 392.383H167.347L165.646 394.25H164.7ZM179.763 401.035V402H173.713V401.156L176.741 397.785C177.114 397.37 177.401 397.019 177.604 396.731C177.812 396.439 177.956 396.179 178.036 395.951C178.121 395.718 178.163 395.481 178.163 395.24C178.163 394.935 178.1 394.66 177.973 394.415C177.85 394.165 177.668 393.966 177.427 393.818C177.186 393.67 176.894 393.596 176.551 393.596C176.14 393.596 175.798 393.676 175.522 393.837C175.252 393.993 175.049 394.214 174.913 394.497C174.778 394.781 174.71 395.106 174.71 395.475H173.536C173.536 394.954 173.65 394.478 173.878 394.046C174.107 393.615 174.445 393.272 174.894 393.018C175.343 392.76 175.895 392.631 176.551 392.631C177.135 392.631 177.634 392.735 178.049 392.942C178.464 393.145 178.781 393.433 179.001 393.805C179.225 394.173 179.337 394.605 179.337 395.1C179.337 395.371 179.291 395.646 179.198 395.925C179.109 396.2 178.984 396.475 178.823 396.75C178.667 397.026 178.483 397.296 178.271 397.563C178.064 397.83 177.841 398.092 177.604 398.35L175.129 401.035H179.763Z" fill="#718EBF"/>
<path d="M282.736 392.758V402H281.53V392.758H282.736ZM285.707 392.758V393.761H278.566V392.758H285.707ZM288.075 392.25V402H286.9V392.25H288.075ZM287.795 398.306L287.307 398.287C287.311 397.817 287.381 397.383 287.516 396.985C287.652 396.583 287.842 396.234 288.087 395.938C288.333 395.642 288.625 395.413 288.963 395.252C289.306 395.087 289.685 395.005 290.1 395.005C290.438 395.005 290.743 395.051 291.014 395.145C291.285 395.233 291.515 395.377 291.706 395.576C291.9 395.775 292.048 396.033 292.15 396.351C292.251 396.664 292.302 397.047 292.302 397.5V402H291.122V397.487C291.122 397.127 291.069 396.839 290.963 396.624C290.857 396.403 290.703 396.245 290.5 396.147C290.296 396.046 290.047 395.995 289.75 395.995C289.458 395.995 289.192 396.056 288.951 396.179C288.714 396.302 288.508 396.471 288.335 396.687C288.166 396.903 288.032 397.15 287.935 397.43C287.842 397.705 287.795 397.997 287.795 398.306ZM300.491 394.58H301.392C301.392 395.041 301.331 395.428 301.208 395.741C301.09 396.054 300.88 396.289 300.58 396.446C300.279 396.602 299.856 396.681 299.31 396.681V395.957C299.691 395.957 299.964 395.91 300.129 395.817C300.294 395.72 300.396 395.57 300.434 395.367C300.472 395.164 300.491 394.901 300.491 394.58ZM298.263 400.413V395.132H299.443V402H298.32L298.263 400.413ZM298.485 398.966L298.974 398.953C298.974 399.41 298.925 399.833 298.828 400.223C298.735 400.608 298.582 400.942 298.371 401.226C298.159 401.509 297.882 401.731 297.539 401.892C297.196 402.049 296.779 402.127 296.289 402.127C295.954 402.127 295.647 402.078 295.368 401.981C295.093 401.884 294.856 401.733 294.657 401.53C294.458 401.327 294.304 401.063 294.194 400.737C294.088 400.411 294.035 400.02 294.035 399.562V395.132H295.209V399.575C295.209 399.884 295.243 400.14 295.311 400.343C295.383 400.542 295.478 400.701 295.597 400.819C295.719 400.934 295.855 401.014 296.003 401.061C296.155 401.107 296.312 401.13 296.473 401.13C296.972 401.13 297.368 401.035 297.66 400.845C297.952 400.65 298.161 400.39 298.288 400.064C298.419 399.734 298.485 399.368 298.485 398.966ZM296.2 394.25L297.431 392.383H298.847L297.146 394.25H296.2ZM306.921 396.801H307.759C308.169 396.801 308.508 396.734 308.774 396.598C309.045 396.458 309.246 396.27 309.377 396.033C309.513 395.792 309.581 395.521 309.581 395.221C309.581 394.865 309.521 394.567 309.403 394.326C309.284 394.084 309.107 393.903 308.87 393.78C308.633 393.657 308.332 393.596 307.968 393.596C307.638 393.596 307.346 393.661 307.092 393.792C306.843 393.919 306.646 394.101 306.502 394.338C306.362 394.575 306.292 394.855 306.292 395.176H305.118C305.118 394.707 305.237 394.279 305.474 393.894C305.711 393.509 306.043 393.202 306.47 392.974C306.902 392.745 307.401 392.631 307.968 392.631C308.527 392.631 309.016 392.73 309.435 392.929C309.854 393.124 310.179 393.416 310.412 393.805C310.645 394.19 310.761 394.671 310.761 395.246C310.761 395.479 310.706 395.729 310.596 395.995C310.49 396.257 310.323 396.503 310.095 396.731C309.87 396.96 309.578 397.148 309.219 397.296C308.859 397.44 308.427 397.512 307.924 397.512H306.921V396.801ZM306.921 397.766V397.062H307.924C308.512 397.062 308.999 397.131 309.384 397.271C309.769 397.411 310.071 397.597 310.292 397.83C310.516 398.062 310.672 398.318 310.761 398.598C310.854 398.873 310.901 399.148 310.901 399.423C310.901 399.854 310.827 400.237 310.679 400.572C310.535 400.906 310.33 401.19 310.063 401.422C309.801 401.655 309.492 401.831 309.136 401.949C308.781 402.068 308.394 402.127 307.975 402.127C307.573 402.127 307.194 402.07 306.838 401.956C306.487 401.841 306.176 401.676 305.905 401.46C305.634 401.24 305.423 400.972 305.271 400.654C305.118 400.333 305.042 399.967 305.042 399.556H306.216C306.216 399.878 306.286 400.159 306.426 400.4C306.57 400.642 306.773 400.83 307.035 400.965C307.302 401.097 307.615 401.162 307.975 401.162C308.334 401.162 308.643 401.101 308.901 400.978C309.164 400.851 309.365 400.661 309.504 400.407C309.648 400.153 309.72 399.833 309.72 399.448C309.72 399.063 309.64 398.748 309.479 398.502C309.318 398.253 309.09 398.069 308.793 397.95C308.501 397.827 308.157 397.766 307.759 397.766H306.921Z" fill="#718EBF"/>
<path d="M406.736 392.758V402H405.53V392.758H406.736ZM409.707 392.758V393.761H402.566V392.758H409.707ZM412.075 392.25V402H410.9V392.25H412.075ZM411.795 398.306L411.307 398.287C411.311 397.817 411.381 397.383 411.516 396.985C411.652 396.583 411.842 396.234 412.087 395.938C412.333 395.642 412.625 395.413 412.963 395.252C413.306 395.087 413.685 395.005 414.1 395.005C414.438 395.005 414.743 395.051 415.014 395.145C415.285 395.233 415.515 395.377 415.706 395.576C415.9 395.775 416.048 396.033 416.15 396.351C416.251 396.664 416.302 397.047 416.302 397.5V402H415.122V397.487C415.122 397.127 415.069 396.839 414.963 396.624C414.857 396.403 414.703 396.245 414.5 396.147C414.296 396.046 414.047 395.995 413.75 395.995C413.458 395.995 413.192 396.056 412.951 396.179C412.714 396.302 412.508 396.471 412.335 396.687C412.166 396.903 412.032 397.15 411.935 397.43C411.842 397.705 411.795 397.997 411.795 398.306ZM424.491 394.58H425.392C425.392 395.041 425.331 395.428 425.208 395.741C425.09 396.054 424.88 396.289 424.58 396.446C424.279 396.602 423.856 396.681 423.31 396.681V395.957C423.691 395.957 423.964 395.91 424.129 395.817C424.294 395.72 424.396 395.57 424.434 395.367C424.472 395.164 424.491 394.901 424.491 394.58ZM422.263 400.413V395.132H423.443V402H422.32L422.263 400.413ZM422.485 398.966L422.974 398.953C422.974 399.41 422.925 399.833 422.828 400.223C422.735 400.608 422.582 400.942 422.371 401.226C422.159 401.509 421.882 401.731 421.539 401.892C421.196 402.049 420.779 402.127 420.289 402.127C419.954 402.127 419.647 402.078 419.368 401.981C419.093 401.884 418.856 401.733 418.657 401.53C418.458 401.327 418.304 401.063 418.194 400.737C418.088 400.411 418.035 400.02 418.035 399.562V395.132H419.209V399.575C419.209 399.884 419.243 400.14 419.311 400.343C419.383 400.542 419.478 400.701 419.597 400.819C419.719 400.934 419.855 401.014 420.003 401.061C420.155 401.107 420.312 401.13 420.473 401.13C420.972 401.13 421.368 401.035 421.66 400.845C421.952 400.65 422.161 400.39 422.288 400.064C422.419 399.734 422.485 399.368 422.485 398.966ZM420.2 394.25L421.431 392.383H422.847L421.146 394.25H420.2ZM435.453 398.89V399.854H428.775V399.163L432.914 392.758H433.873L432.844 394.611L430.108 398.89H435.453ZM434.165 392.758V402H432.99V392.758H434.165Z" fill="#718EBF"/>
<path d="M530.236 392.758V402H529.03V392.758H530.236ZM533.207 392.758V393.761H526.066V392.758H533.207ZM535.575 392.25V402H534.4V392.25H535.575ZM535.295 398.306L534.807 398.287C534.811 397.817 534.881 397.383 535.016 396.985C535.152 396.583 535.342 396.234 535.587 395.938C535.833 395.642 536.125 395.413 536.463 395.252C536.806 395.087 537.185 395.005 537.6 395.005C537.938 395.005 538.243 395.051 538.514 395.145C538.785 395.233 539.015 395.377 539.206 395.576C539.4 395.775 539.548 396.033 539.65 396.351C539.751 396.664 539.802 397.047 539.802 397.5V402H538.622V397.487C538.622 397.127 538.569 396.839 538.463 396.624C538.357 396.403 538.203 396.245 538 396.147C537.796 396.046 537.547 395.995 537.25 395.995C536.958 395.995 536.692 396.056 536.451 396.179C536.214 396.302 536.008 396.471 535.835 396.687C535.666 396.903 535.532 397.15 535.435 397.43C535.342 397.705 535.295 397.997 535.295 398.306ZM547.991 394.58H548.892C548.892 395.041 548.831 395.428 548.708 395.741C548.59 396.054 548.38 396.289 548.08 396.446C547.779 396.602 547.356 396.681 546.81 396.681V395.957C547.191 395.957 547.464 395.91 547.629 395.817C547.794 395.72 547.896 395.57 547.934 395.367C547.972 395.164 547.991 394.901 547.991 394.58ZM545.763 400.413V395.132H546.943V402H545.82L545.763 400.413ZM545.985 398.966L546.474 398.953C546.474 399.41 546.425 399.833 546.328 400.223C546.235 400.608 546.082 400.942 545.871 401.226C545.659 401.509 545.382 401.731 545.039 401.892C544.696 402.049 544.279 402.127 543.789 402.127C543.454 402.127 543.147 402.078 542.868 401.981C542.593 401.884 542.356 401.733 542.157 401.53C541.958 401.327 541.804 401.063 541.694 400.737C541.588 400.411 541.535 400.02 541.535 399.562V395.132H542.709V399.575C542.709 399.884 542.743 400.14 542.811 400.343C542.883 400.542 542.978 400.701 543.097 400.819C543.219 400.934 543.355 401.014 543.503 401.061C543.655 401.107 543.812 401.13 543.973 401.13C544.472 401.13 544.868 401.035 545.16 400.845C545.452 400.65 545.661 400.39 545.788 400.064C545.919 399.734 545.985 399.368 545.985 398.966ZM543.7 394.25L544.931 392.383H546.347L544.646 394.25H543.7ZM554.192 397.601L553.253 397.36L553.716 392.758H558.458V393.843H554.713L554.434 396.357C554.603 396.26 554.817 396.169 555.075 396.084C555.337 395.999 555.638 395.957 555.976 395.957C556.403 395.957 556.786 396.031 557.125 396.179C557.464 396.323 557.751 396.53 557.988 396.801C558.229 397.072 558.414 397.398 558.541 397.779C558.667 398.16 558.731 398.585 558.731 399.055C558.731 399.499 558.67 399.907 558.547 400.28C558.428 400.652 558.249 400.978 558.007 401.257C557.766 401.532 557.461 401.746 557.093 401.898C556.729 402.051 556.3 402.127 555.805 402.127C555.432 402.127 555.079 402.076 554.745 401.975C554.415 401.869 554.118 401.71 553.856 401.499C553.598 401.283 553.386 401.016 553.221 400.699C553.06 400.377 552.959 400 552.917 399.569H554.034C554.084 399.916 554.186 400.208 554.338 400.445C554.491 400.682 554.69 400.862 554.935 400.984C555.185 401.103 555.475 401.162 555.805 401.162C556.084 401.162 556.332 401.113 556.547 401.016C556.763 400.919 556.945 400.779 557.093 400.597C557.241 400.415 557.354 400.195 557.43 399.937C557.51 399.679 557.55 399.389 557.55 399.067C557.55 398.775 557.51 398.505 557.43 398.255C557.349 398.005 557.229 397.787 557.068 397.601C556.911 397.415 556.719 397.271 556.49 397.169C556.262 397.064 555.999 397.011 555.703 397.011C555.31 397.011 555.011 397.064 554.808 397.169C554.609 397.275 554.404 397.419 554.192 397.601Z" fill="#718EBF"/>
<path d="M655.236 392.758V402H654.03V392.758H655.236ZM658.207 392.758V393.761H651.066V392.758H658.207ZM660.575 392.25V402H659.4V392.25H660.575ZM660.295 398.306L659.807 398.287C659.811 397.817 659.881 397.383 660.016 396.985C660.152 396.583 660.342 396.234 660.587 395.938C660.833 395.642 661.125 395.413 661.463 395.252C661.806 395.087 662.185 395.005 662.6 395.005C662.938 395.005 663.243 395.051 663.514 395.145C663.785 395.233 664.015 395.377 664.206 395.576C664.4 395.775 664.548 396.033 664.65 396.351C664.751 396.664 664.802 397.047 664.802 397.5V402H663.622V397.487C663.622 397.127 663.569 396.839 663.463 396.624C663.357 396.403 663.203 396.245 663 396.147C662.796 396.046 662.547 395.995 662.25 395.995C661.958 395.995 661.692 396.056 661.451 396.179C661.214 396.302 661.008 396.471 660.835 396.687C660.666 396.903 660.532 397.15 660.435 397.43C660.342 397.705 660.295 397.997 660.295 398.306ZM672.991 394.58H673.892C673.892 395.041 673.831 395.428 673.708 395.741C673.59 396.054 673.38 396.289 673.08 396.446C672.779 396.602 672.356 396.681 671.81 396.681V395.957C672.191 395.957 672.464 395.91 672.629 395.817C672.794 395.72 672.896 395.57 672.934 395.367C672.972 395.164 672.991 394.901 672.991 394.58ZM670.763 400.413V395.132H671.943V402H670.82L670.763 400.413ZM670.985 398.966L671.474 398.953C671.474 399.41 671.425 399.833 671.328 400.223C671.235 400.608 671.082 400.942 670.871 401.226C670.659 401.509 670.382 401.731 670.039 401.892C669.696 402.049 669.279 402.127 668.789 402.127C668.454 402.127 668.147 402.078 667.868 401.981C667.593 401.884 667.356 401.733 667.157 401.53C666.958 401.327 666.804 401.063 666.694 400.737C666.588 400.411 666.535 400.02 666.535 399.562V395.132H667.709V399.575C667.709 399.884 667.743 400.14 667.811 400.343C667.883 400.542 667.978 400.701 668.097 400.819C668.219 400.934 668.355 401.014 668.503 401.061C668.655 401.107 668.812 401.13 668.973 401.13C669.472 401.13 669.868 401.035 670.16 400.845C670.452 400.65 670.661 400.39 670.788 400.064C670.919 399.734 670.985 399.368 670.985 398.966ZM668.7 394.25L669.931 392.383H671.347L669.646 394.25H668.7ZM682.214 392.745H682.315V393.742H682.214C681.592 393.742 681.071 393.843 680.652 394.046C680.233 394.245 679.901 394.514 679.656 394.853C679.41 395.187 679.233 395.563 679.123 395.982C679.017 396.401 678.964 396.827 678.964 397.258V398.617C678.964 399.027 679.013 399.391 679.11 399.708C679.207 400.022 679.34 400.286 679.51 400.502C679.679 400.718 679.869 400.881 680.081 400.991C680.297 401.101 680.521 401.156 680.754 401.156C681.025 401.156 681.266 401.105 681.478 401.003C681.689 400.898 681.867 400.752 682.011 400.565C682.159 400.375 682.271 400.151 682.347 399.893C682.423 399.634 682.461 399.351 682.461 399.042C682.461 398.767 682.428 398.502 682.36 398.249C682.292 397.99 682.188 397.762 682.049 397.563C681.909 397.36 681.734 397.201 681.522 397.087C681.315 396.968 681.067 396.909 680.779 396.909C680.453 396.909 680.149 396.99 679.865 397.15C679.586 397.307 679.355 397.514 679.173 397.772C678.996 398.026 678.894 398.304 678.869 398.604L678.247 398.598C678.306 398.124 678.416 397.72 678.577 397.385C678.742 397.047 678.945 396.772 679.186 396.56C679.431 396.344 679.704 396.188 680.005 396.09C680.31 395.989 680.631 395.938 680.97 395.938C681.431 395.938 681.829 396.025 682.163 396.198C682.497 396.372 682.772 396.604 682.988 396.896C683.204 397.184 683.363 397.51 683.464 397.874C683.57 398.234 683.623 398.604 683.623 398.985C683.623 399.421 683.562 399.829 683.439 400.21C683.316 400.591 683.132 400.925 682.887 401.213C682.646 401.501 682.347 401.725 681.992 401.886C681.636 402.047 681.224 402.127 680.754 402.127C680.255 402.127 679.819 402.025 679.446 401.822C679.074 401.615 678.765 401.34 678.52 400.997C678.274 400.654 678.09 400.273 677.967 399.854C677.845 399.436 677.783 399.01 677.783 398.579V398.026C677.783 397.375 677.849 396.736 677.98 396.109C678.111 395.483 678.338 394.916 678.659 394.408C678.985 393.9 679.436 393.496 680.011 393.196C680.587 392.895 681.321 392.745 682.214 392.745Z" fill="#718EBF"/>
<path d="M778.236 392.758V402H777.03V392.758H778.236ZM781.207 392.758V393.761H774.066V392.758H781.207ZM783.575 392.25V402H782.4V392.25H783.575ZM783.295 398.306L782.807 398.287C782.811 397.817 782.881 397.383 783.016 396.985C783.152 396.583 783.342 396.234 783.587 395.938C783.833 395.642 784.125 395.413 784.463 395.252C784.806 395.087 785.185 395.005 785.6 395.005C785.938 395.005 786.243 395.051 786.514 395.145C786.785 395.233 787.015 395.377 787.206 395.576C787.4 395.775 787.548 396.033 787.65 396.351C787.751 396.664 787.802 397.047 787.802 397.5V402H786.622V397.487C786.622 397.127 786.569 396.839 786.463 396.624C786.357 396.403 786.203 396.245 786 396.147C785.796 396.046 785.547 395.995 785.25 395.995C784.958 395.995 784.692 396.056 784.451 396.179C784.214 396.302 784.008 396.471 783.835 396.687C783.666 396.903 783.532 397.15 783.435 397.43C783.342 397.705 783.295 397.997 783.295 398.306ZM795.991 394.58H796.892C796.892 395.041 796.831 395.428 796.708 395.741C796.59 396.054 796.38 396.289 796.08 396.446C795.779 396.602 795.356 396.681 794.81 396.681V395.957C795.191 395.957 795.464 395.91 795.629 395.817C795.794 395.72 795.896 395.57 795.934 395.367C795.972 395.164 795.991 394.901 795.991 394.58ZM793.763 400.413V395.132H794.943V402H793.82L793.763 400.413ZM793.985 398.966L794.474 398.953C794.474 399.41 794.425 399.833 794.328 400.223C794.235 400.608 794.082 400.942 793.871 401.226C793.659 401.509 793.382 401.731 793.039 401.892C792.696 402.049 792.279 402.127 791.789 402.127C791.454 402.127 791.147 402.078 790.868 401.981C790.593 401.884 790.356 401.733 790.157 401.53C789.958 401.327 789.804 401.063 789.694 400.737C789.588 400.411 789.535 400.02 789.535 399.562V395.132H790.709V399.575C790.709 399.884 790.743 400.14 790.811 400.343C790.883 400.542 790.978 400.701 791.097 400.819C791.219 400.934 791.355 401.014 791.503 401.061C791.655 401.107 791.812 401.13 791.973 401.13C792.472 401.13 792.868 401.035 793.16 400.845C793.452 400.65 793.661 400.39 793.788 400.064C793.919 399.734 793.985 399.368 793.985 398.966ZM791.7 394.25L792.931 392.383H794.347L792.646 394.25H791.7ZM806.68 392.758V393.418L802.853 402H801.615L805.436 393.723H800.434V392.758H806.68Z" fill="#718EBF"/>
<path d="M896.692 399.061H897.911C897.848 399.645 897.681 400.168 897.41 400.629C897.139 401.09 896.756 401.456 896.261 401.727C895.766 401.994 895.148 402.127 894.407 402.127C893.866 402.127 893.373 402.025 892.928 401.822C892.488 401.619 892.109 401.331 891.792 400.959C891.475 400.582 891.229 400.132 891.056 399.607C890.886 399.078 890.802 398.49 890.802 397.842V396.922C890.802 396.274 890.886 395.688 891.056 395.164C891.229 394.635 891.477 394.182 891.798 393.805C892.124 393.429 892.516 393.139 892.973 392.936C893.43 392.732 893.944 392.631 894.515 392.631C895.213 392.631 895.804 392.762 896.286 393.024C896.769 393.287 897.143 393.651 897.41 394.116C897.681 394.577 897.848 395.113 897.911 395.722H896.692C896.633 395.291 896.523 394.92 896.362 394.611C896.201 394.298 895.973 394.057 895.677 393.888C895.381 393.718 894.993 393.634 894.515 393.634C894.105 393.634 893.743 393.712 893.43 393.869C893.121 394.025 892.861 394.247 892.649 394.535C892.442 394.823 892.285 395.168 892.179 395.57C892.073 395.972 892.021 396.418 892.021 396.909V397.842C892.021 398.295 892.067 398.72 892.16 399.118C892.257 399.516 892.403 399.865 892.598 400.166C892.793 400.466 893.04 400.703 893.341 400.876C893.641 401.046 893.997 401.13 894.407 401.13C894.928 401.13 895.342 401.048 895.651 400.883C895.96 400.718 896.193 400.481 896.35 400.172C896.51 399.863 896.625 399.493 896.692 399.061ZM900.577 392.25V402H899.403V392.25H900.577ZM900.298 398.306L899.809 398.287C899.813 397.817 899.883 397.383 900.019 396.985C900.154 396.583 900.344 396.234 900.59 395.938C900.835 395.642 901.127 395.413 901.466 395.252C901.809 395.087 902.187 395.005 902.602 395.005C902.941 395.005 903.245 395.051 903.516 395.145C903.787 395.233 904.018 395.377 904.208 395.576C904.403 395.775 904.551 396.033 904.652 396.351C904.754 396.664 904.805 397.047 904.805 397.5V402H903.624V397.487C903.624 397.127 903.571 396.839 903.465 396.624C903.36 396.403 903.205 396.245 903.002 396.147C902.799 396.046 902.549 395.995 902.253 395.995C901.961 395.995 901.694 396.056 901.453 396.179C901.216 396.302 901.011 396.471 900.837 396.687C900.668 396.903 900.535 397.15 900.438 397.43C900.344 397.705 900.298 397.997 900.298 398.306ZM910.765 400.413V395.132H911.946V402H910.822L910.765 400.413ZM910.987 398.966L911.476 398.953C911.476 399.41 911.427 399.833 911.33 400.223C911.237 400.608 911.085 400.942 910.873 401.226C910.661 401.509 910.384 401.731 910.042 401.892C909.699 402.049 909.282 402.127 908.791 402.127C908.457 402.127 908.15 402.078 907.871 401.981C907.596 401.884 907.359 401.733 907.16 401.53C906.961 401.327 906.806 401.063 906.696 400.737C906.59 400.411 906.538 400.02 906.538 399.562V395.132H907.712V399.575C907.712 399.884 907.746 400.14 907.813 400.343C907.885 400.542 907.981 400.701 908.099 400.819C908.222 400.934 908.357 401.014 908.505 401.061C908.658 401.107 908.814 401.13 908.975 401.13C909.474 401.13 909.87 401.035 910.162 400.845C910.454 400.65 910.664 400.39 910.791 400.064C910.922 399.734 910.987 399.368 910.987 398.966ZM909.711 394.015H908.867L908.861 393.05C909.077 393.037 909.252 393.016 909.388 392.986C909.523 392.952 909.623 392.904 909.686 392.84C909.75 392.773 909.781 392.684 909.781 392.574C909.781 392.485 909.754 392.411 909.699 392.352C909.644 392.288 909.568 392.237 909.47 392.199C909.373 392.157 909.261 392.127 909.134 392.11C909.007 392.093 908.871 392.085 908.728 392.085L908.772 391.412C909.085 391.412 909.36 391.44 909.597 391.495C909.838 391.55 910.039 391.63 910.2 391.736C910.365 391.842 910.488 391.969 910.568 392.117C910.653 392.261 910.695 392.421 910.695 392.599C910.695 392.921 910.594 393.156 910.391 393.304C910.188 393.448 909.963 393.536 909.718 393.57L909.711 394.015ZM921.359 396.598V402H920.185V395.132H921.296L921.359 396.598ZM921.08 398.306L920.591 398.287C920.596 397.817 920.665 397.383 920.801 396.985C920.936 396.583 921.127 396.234 921.372 395.938C921.618 395.642 921.91 395.413 922.248 395.252C922.591 395.087 922.97 395.005 923.384 395.005C923.723 395.005 924.028 395.051 924.298 395.145C924.569 395.233 924.8 395.377 924.99 395.576C925.185 395.775 925.333 396.033 925.435 396.351C925.536 396.664 925.587 397.047 925.587 397.5V402H924.406V397.487C924.406 397.127 924.353 396.839 924.248 396.624C924.142 396.403 923.987 396.245 923.784 396.147C923.581 396.046 923.331 395.995 923.035 395.995C922.743 395.995 922.477 396.056 922.235 396.179C921.998 396.302 921.793 396.471 921.62 396.687C921.45 396.903 921.317 397.15 921.22 397.43C921.127 397.705 921.08 397.997 921.08 398.306ZM928.545 392.25V402H927.371V392.25H928.545ZM928.266 398.306L927.777 398.287C927.781 397.817 927.851 397.383 927.986 396.985C928.122 396.583 928.312 396.234 928.558 395.938C928.803 395.642 929.095 395.413 929.434 395.252C929.776 395.087 930.155 395.005 930.57 395.005C930.908 395.005 931.213 395.051 931.484 395.145C931.755 395.233 931.985 395.377 932.176 395.576C932.37 395.775 932.519 396.033 932.62 396.351C932.722 396.664 932.772 397.047 932.772 397.5V402H931.592V397.487C931.592 397.127 931.539 396.839 931.433 396.624C931.327 396.403 931.173 396.245 930.97 396.147C930.767 396.046 930.517 395.995 930.221 395.995C929.929 395.995 929.662 396.056 929.421 396.179C929.184 396.302 928.979 396.471 928.805 396.687C928.636 396.903 928.503 397.15 928.405 397.43C928.312 397.705 928.266 397.997 928.266 398.306ZM938.581 400.826V397.29C938.581 397.019 938.526 396.784 938.416 396.585C938.31 396.382 938.149 396.226 937.933 396.116C937.717 396.006 937.451 395.951 937.133 395.951C936.837 395.951 936.577 396.001 936.353 396.103C936.132 396.205 935.959 396.338 935.832 396.503C935.709 396.668 935.648 396.846 935.648 397.036H934.474C934.474 396.791 934.537 396.547 934.664 396.306C934.791 396.065 934.973 395.847 935.21 395.652C935.451 395.453 935.739 395.297 936.073 395.183C936.412 395.064 936.788 395.005 937.203 395.005C937.702 395.005 938.143 395.09 938.523 395.259C938.909 395.428 939.209 395.684 939.425 396.027C939.645 396.365 939.755 396.791 939.755 397.303V400.502C939.755 400.73 939.774 400.974 939.812 401.232C939.854 401.49 939.916 401.712 939.996 401.898V402H938.771C938.712 401.865 938.665 401.685 938.631 401.46C938.597 401.232 938.581 401.02 938.581 400.826ZM938.784 397.836L938.796 398.661H937.609C937.275 398.661 936.977 398.689 936.714 398.744C936.452 398.794 936.232 398.873 936.054 398.979C935.876 399.084 935.741 399.218 935.648 399.378C935.555 399.535 935.508 399.719 935.508 399.931C935.508 400.146 935.557 400.343 935.654 400.521C935.752 400.699 935.898 400.84 936.092 400.946C936.291 401.048 936.535 401.099 936.822 401.099C937.182 401.099 937.499 401.022 937.774 400.87C938.049 400.718 938.267 400.532 938.428 400.312C938.593 400.091 938.682 399.878 938.695 399.67L939.196 400.235C939.167 400.413 939.086 400.61 938.955 400.826C938.824 401.042 938.648 401.249 938.428 401.448C938.212 401.642 937.954 401.805 937.654 401.937C937.358 402.063 937.023 402.127 936.651 402.127C936.185 402.127 935.777 402.036 935.426 401.854C935.079 401.672 934.808 401.429 934.613 401.124C934.423 400.815 934.328 400.47 934.328 400.089C934.328 399.721 934.4 399.397 934.543 399.118C934.687 398.835 934.895 398.6 935.166 398.414C935.436 398.223 935.762 398.079 936.143 397.982C936.524 397.885 936.949 397.836 937.419 397.836H938.784ZM937.686 392.25L939.26 393.983V394.046H938.282L937.33 392.974L936.384 394.046H935.419V393.977L936.975 392.25H937.686ZM936.092 403.562C936.092 403.371 936.149 403.21 936.264 403.079C936.382 402.948 936.556 402.882 936.784 402.882C937.008 402.882 937.18 402.948 937.298 403.079C937.421 403.21 937.482 403.371 937.482 403.562C937.482 403.743 937.421 403.898 937.298 404.025C937.18 404.156 937.008 404.222 936.784 404.222C936.556 404.222 936.382 404.156 936.264 404.025C936.149 403.898 936.092 403.743 936.092 403.562ZM944.478 395.132V396.033H940.764V395.132H944.478ZM942.021 393.462H943.195V400.299C943.195 400.532 943.231 400.707 943.303 400.826C943.375 400.944 943.468 401.022 943.583 401.061C943.697 401.099 943.819 401.118 943.951 401.118C944.048 401.118 944.15 401.109 944.255 401.092C944.365 401.071 944.448 401.054 944.503 401.042L944.509 402C944.416 402.03 944.293 402.057 944.141 402.083C943.993 402.112 943.813 402.127 943.602 402.127C943.314 402.127 943.049 402.07 942.808 401.956C942.567 401.841 942.374 401.651 942.23 401.384C942.091 401.113 942.021 400.75 942.021 400.292V393.462Z" fill="#718EBF"/>
<path d="M60.7392 103.171L59.7997 102.929L60.2631 98.3274H65.0048V99.4128H61.2597L60.9804 101.927C61.1496 101.829 61.3633 101.738 61.6215 101.654C61.8838 101.569 62.1843 101.527 62.5228 101.527C62.9503 101.527 63.3332 101.601 63.6718 101.749C64.0103 101.893 64.2981 102.1 64.5351 102.371C64.7763 102.642 64.9603 102.968 65.0873 103.348C65.2143 103.729 65.2777 104.155 65.2777 104.624C65.2777 105.069 65.2164 105.477 65.0936 105.849C64.9752 106.222 64.7953 106.548 64.5541 106.827C64.3129 107.102 64.0082 107.316 63.64 107.468C63.2761 107.62 62.8466 107.697 62.3515 107.697C61.9791 107.697 61.6257 107.646 61.2914 107.544C60.9613 107.438 60.6651 107.28 60.4027 107.068C60.1446 106.852 59.933 106.586 59.768 106.268C59.6072 105.947 59.5056 105.57 59.4633 105.138H60.5805C60.6312 105.485 60.7328 105.777 60.8852 106.014C61.0375 106.251 61.2364 106.431 61.4818 106.554C61.7315 106.672 62.0214 106.732 62.3515 106.732C62.6308 106.732 62.8783 106.683 63.0941 106.586C63.31 106.488 63.4919 106.349 63.64 106.167C63.7881 105.985 63.9003 105.765 63.9765 105.507C64.0569 105.248 64.0971 104.959 64.0971 104.637C64.0971 104.345 64.0569 104.074 63.9765 103.824C63.8961 103.575 63.7755 103.357 63.6146 103.171C63.4581 102.984 63.2655 102.841 63.037 102.739C62.8085 102.633 62.5461 102.58 62.2499 102.58C61.8563 102.58 61.558 102.633 61.3549 102.739C61.156 102.845 60.9507 102.989 60.7392 103.171ZM72.3681 102.212V103.621C72.3681 104.379 72.3004 105.018 72.1649 105.538C72.0295 106.059 71.8349 106.478 71.581 106.795C71.327 107.113 71.0202 107.343 70.6605 107.487C70.3051 107.627 69.9031 107.697 69.4545 107.697C69.099 107.697 68.7711 107.652 68.4706 107.563C68.1701 107.474 67.8993 107.333 67.6581 107.138C67.4211 106.939 67.218 106.681 67.0487 106.364C66.8795 106.046 66.7504 105.661 66.6615 105.208C66.5727 104.755 66.5282 104.226 66.5282 103.621V102.212C66.5282 101.455 66.5959 100.82 66.7313 100.308C66.871 99.7958 67.0678 99.3853 67.3217 99.0764C67.5756 98.7633 67.8803 98.539 68.2357 98.4036C68.5954 98.2681 68.9975 98.2004 69.4418 98.2004C69.8015 98.2004 70.1316 98.2449 70.432 98.3337C70.7367 98.4184 71.0075 98.5559 71.2445 98.7463C71.4815 98.9325 71.6825 99.1822 71.8476 99.4954C72.0168 99.8043 72.1459 100.183 72.2348 100.632C72.3236 101.08 72.3681 101.607 72.3681 102.212ZM71.1874 103.812V102.015C71.1874 101.601 71.162 101.237 71.1112 100.924C71.0647 100.606 70.9949 100.335 70.9018 100.111C70.8087 99.8868 70.6902 99.7048 70.5463 99.5652C70.4066 99.4255 70.2437 99.324 70.0575 99.2605C69.8755 99.1928 69.6703 99.1589 69.4418 99.1589C69.1625 99.1589 68.9149 99.2118 68.6991 99.3176C68.4833 99.4192 68.3013 99.5821 68.1532 99.8064C68.0093 100.031 67.8993 100.325 67.8231 100.689C67.747 101.053 67.7089 101.495 67.7089 102.015V103.812C67.7089 104.226 67.7322 104.593 67.7787 104.91C67.8295 105.227 67.9035 105.502 68.0009 105.735C68.0982 105.964 68.2167 106.152 68.3563 106.3C68.496 106.448 68.6568 106.558 68.8388 106.63C69.025 106.698 69.2302 106.732 69.4545 106.732C69.7422 106.732 69.994 106.677 70.2099 106.567C70.4257 106.457 70.6055 106.285 70.7494 106.052C70.8975 105.816 71.0075 105.513 71.0795 105.145C71.1514 104.772 71.1874 104.328 71.1874 103.812ZM79.6806 102.212V103.621C79.6806 104.379 79.6129 105.018 79.4774 105.538C79.342 106.059 79.1474 106.478 78.8935 106.795C78.6395 107.113 78.3327 107.343 77.973 107.487C77.6176 107.627 77.2156 107.697 76.767 107.697C76.4115 107.697 76.0836 107.652 75.7831 107.563C75.4826 107.474 75.2118 107.333 74.9706 107.138C74.7336 106.939 74.5305 106.681 74.3612 106.364C74.192 106.046 74.0629 105.661 73.974 105.208C73.8852 104.755 73.8407 104.226 73.8407 103.621V102.212C73.8407 101.455 73.9084 100.82 74.0438 100.308C74.1835 99.7958 74.3803 99.3853 74.6342 99.0764C74.8881 98.7633 75.1928 98.539 75.5482 98.4036C75.9079 98.2681 76.31 98.2004 76.7543 98.2004C77.114 98.2004 77.4441 98.2449 77.7445 98.3337C78.0492 98.4184 78.32 98.5559 78.557 98.7463C78.794 98.9325 78.995 99.1822 79.1601 99.4954C79.3293 99.8043 79.4584 100.183 79.5473 100.632C79.6361 101.08 79.6806 101.607 79.6806 102.212ZM78.4999 103.812V102.015C78.4999 101.601 78.4745 101.237 78.4237 100.924C78.3772 100.606 78.3074 100.335 78.2143 100.111C78.1212 99.8868 78.0027 99.7048 77.8588 99.5652C77.7191 99.4255 77.5562 99.324 77.37 99.2605C77.188 99.1928 76.9828 99.1589 76.7543 99.1589C76.475 99.1589 76.2274 99.2118 76.0116 99.3176C75.7958 99.4192 75.6138 99.5821 75.4657 99.8064C75.3218 100.031 75.2118 100.325 75.1356 100.689C75.0595 101.053 75.0214 101.495 75.0214 102.015V103.812C75.0214 104.226 75.0447 104.593 75.0912 104.91C75.142 105.227 75.216 105.502 75.3134 105.735C75.4107 105.964 75.5292 106.152 75.6688 106.3C75.8085 106.448 75.9693 106.558 76.1513 106.63C76.3375 106.698 76.5427 106.732 76.767 106.732C77.0547 106.732 77.3065 106.677 77.5224 106.567C77.7382 106.457 77.918 106.285 78.0619 106.052C78.21 105.816 78.32 105.513 78.392 105.145C78.4639 104.772 78.4999 104.328 78.4999 103.812Z" fill="#718EBF"/>
<path d="M68.526 157.727V158.692H61.8483V158L65.987 151.595H66.9455L65.9171 153.449L63.1813 157.727H68.526ZM67.2374 151.595V160.838H66.0631V151.595H67.2374ZM75.3942 155.48V156.889C75.3942 157.647 75.3265 158.286 75.1911 158.806C75.0556 159.327 74.861 159.746 74.6071 160.063C74.3532 160.381 74.0464 160.611 73.6867 160.755C73.3312 160.895 72.9292 160.965 72.4806 160.965C72.1251 160.965 71.7972 160.92 71.4967 160.831C71.1963 160.742 70.9254 160.601 70.6842 160.406C70.4472 160.207 70.2441 159.949 70.0748 159.632C69.9056 159.314 69.7765 158.929 69.6876 158.476C69.5988 158.024 69.5543 157.495 69.5543 156.889V155.48C69.5543 154.723 69.622 154.088 69.7575 153.576C69.8971 153.064 70.0939 152.653 70.3478 152.344C70.6017 152.031 70.9064 151.807 71.2619 151.672C71.6216 151.536 72.0236 151.469 72.4679 151.469C72.8276 151.469 73.1577 151.513 73.4581 151.602C73.7628 151.686 74.0337 151.824 74.2706 152.014C74.5076 152.201 74.7086 152.45 74.8737 152.763C75.0429 153.072 75.172 153.451 75.2609 153.9C75.3498 154.348 75.3942 154.875 75.3942 155.48ZM74.2135 157.08V155.283C74.2135 154.869 74.1881 154.505 74.1373 154.192C74.0908 153.874 74.021 153.603 73.9279 153.379C73.8348 153.155 73.7163 152.973 73.5724 152.833C73.4328 152.694 73.2698 152.592 73.0836 152.529C72.9017 152.461 72.6964 152.427 72.4679 152.427C72.1886 152.427 71.9411 152.48 71.7252 152.586C71.5094 152.687 71.3275 152.85 71.1793 153.074C71.0355 153.299 70.9254 153.593 70.8493 153.957C70.7731 154.321 70.735 154.763 70.735 155.283V157.08C70.735 157.495 70.7583 157.861 70.8048 158.178C70.8556 158.495 70.9297 158.77 71.027 159.003C71.1243 159.232 71.2428 159.42 71.3825 159.568C71.5221 159.716 71.6829 159.826 71.8649 159.898C72.0511 159.966 72.2563 160 72.4806 160C72.7684 160 73.0202 159.945 73.236 159.835C73.4518 159.725 73.6317 159.553 73.7755 159.321C73.9236 159.084 74.0337 158.781 74.1056 158.413C74.1775 158.04 74.2135 157.596 74.2135 157.08ZM82.7067 155.48V156.889C82.7067 157.647 82.639 158.286 82.5036 158.806C82.3681 159.327 82.1735 159.746 81.9196 160.063C81.6657 160.381 81.3589 160.611 80.9992 160.755C80.6437 160.895 80.2417 160.965 79.7931 160.965C79.4376 160.965 79.1097 160.92 78.8092 160.831C78.5088 160.742 78.2379 160.601 77.9967 160.406C77.7597 160.207 77.5566 159.949 77.3873 159.632C77.2181 159.314 77.089 158.929 77.0001 158.476C76.9113 158.024 76.8668 157.495 76.8668 156.889V155.48C76.8668 154.723 76.9345 154.088 77.07 153.576C77.2096 153.064 77.4064 152.653 77.6603 152.344C77.9142 152.031 78.2189 151.807 78.5744 151.672C78.9341 151.536 79.3361 151.469 79.7804 151.469C80.1401 151.469 80.4702 151.513 80.7706 151.602C81.0753 151.686 81.3462 151.824 81.5831 152.014C81.8201 152.201 82.0211 152.45 82.1862 152.763C82.3554 153.072 82.4845 153.451 82.5734 153.9C82.6623 154.348 82.7067 154.875 82.7067 155.48ZM81.526 157.08V155.283C81.526 154.869 81.5006 154.505 81.4498 154.192C81.4033 153.874 81.3335 153.603 81.2404 153.379C81.1473 153.155 81.0288 152.973 80.8849 152.833C80.7453 152.694 80.5823 152.592 80.3961 152.529C80.2142 152.461 80.0089 152.427 79.7804 152.427C79.5011 152.427 79.2536 152.48 79.0377 152.586C78.8219 152.687 78.64 152.85 78.4918 153.074C78.348 153.299 78.2379 153.593 78.1618 153.957C78.0856 154.321 78.0475 154.763 78.0475 155.283V157.08C78.0475 157.495 78.0708 157.861 78.1173 158.178C78.1681 158.495 78.2422 158.77 78.3395 159.003C78.4368 159.232 78.5553 159.42 78.695 159.568C78.8346 159.716 78.9954 159.826 79.1774 159.898C79.3636 159.966 79.5688 160 79.7931 160C80.0809 160 80.3327 159.945 80.5485 159.835C80.7643 159.725 80.9442 159.553 81.088 159.321C81.2361 159.084 81.3462 158.781 81.4181 158.413C81.49 158.04 81.526 157.596 81.526 157.08Z" fill="#718EBF"/>
<path d="M63.9938 207.085H64.8317C65.2422 207.085 65.5807 207.018 65.8473 206.882C66.1181 206.743 66.3192 206.554 66.4503 206.317C66.5858 206.076 66.6535 205.805 66.6535 205.505C66.6535 205.149 66.5942 204.851 66.4757 204.61C66.3572 204.369 66.1795 204.187 65.9425 204.064C65.7055 203.941 65.4051 203.88 65.0412 203.88C64.7111 203.88 64.4191 203.945 64.1652 204.077C63.9155 204.204 63.7187 204.386 63.5748 204.623C63.4352 204.86 63.3654 205.139 63.3654 205.46H62.1911C62.1911 204.991 62.3095 204.563 62.5465 204.178C62.7835 203.793 63.1157 203.486 63.5431 203.258C63.9748 203.029 64.4741 202.915 65.0412 202.915C65.5998 202.915 66.0885 203.014 66.5075 203.213C66.9264 203.408 67.2523 203.7 67.485 204.089C67.7178 204.474 67.8341 204.955 67.8341 205.53C67.8341 205.763 67.7791 206.013 67.6691 206.279C67.5633 206.542 67.3961 206.787 67.1676 207.016C66.9433 207.244 66.6513 207.432 66.2916 207.581C65.9319 207.724 65.5003 207.796 64.9967 207.796H63.9938V207.085ZM63.9938 208.05V207.346H64.9967C65.5849 207.346 66.0716 207.416 66.4567 207.555C66.8418 207.695 67.1443 207.881 67.3644 208.114C67.5887 208.347 67.7453 208.603 67.8341 208.882C67.9272 209.157 67.9738 209.432 67.9738 209.707C67.9738 210.139 67.8997 210.522 67.7516 210.856C67.6077 211.19 67.4025 211.474 67.1359 211.707C66.8735 211.939 66.5646 212.115 66.2091 212.233C65.8537 212.352 65.4664 212.411 65.0475 212.411C64.6455 212.411 64.2667 212.354 63.9113 212.24C63.56 212.125 63.249 211.96 62.9782 211.745C62.7073 211.525 62.4957 211.256 62.3434 210.938C62.1911 210.617 62.1149 210.251 62.1149 209.84H63.2892C63.2892 210.162 63.359 210.443 63.4987 210.685C63.6426 210.926 63.8457 211.114 64.1081 211.25C64.3747 211.381 64.6878 211.446 65.0475 211.446C65.4072 211.446 65.7161 211.385 65.9743 211.262C66.2366 211.135 66.4376 210.945 66.5773 210.691C66.7212 210.437 66.7931 210.118 66.7931 209.732C66.7931 209.347 66.7127 209.032 66.5519 208.787C66.3911 208.537 66.1626 208.353 65.8664 208.234C65.5744 208.112 65.2295 208.05 64.8317 208.05H63.9938ZM75.3942 206.927V208.336C75.3942 209.093 75.3265 209.732 75.1911 210.253C75.0556 210.773 74.861 211.192 74.6071 211.51C74.3532 211.827 74.0464 212.058 73.6867 212.202C73.3312 212.341 72.9292 212.411 72.4806 212.411C72.1251 212.411 71.7972 212.367 71.4967 212.278C71.1963 212.189 70.9254 212.047 70.6842 211.853C70.4472 211.654 70.2441 211.396 70.0748 211.078C69.9056 210.761 69.7765 210.376 69.6876 209.923C69.5988 209.47 69.5543 208.941 69.5543 208.336V206.927C69.5543 206.169 69.622 205.535 69.7575 205.022C69.8971 204.51 70.0939 204.1 70.3478 203.791C70.6017 203.478 70.9064 203.254 71.2619 203.118C71.6216 202.983 72.0236 202.915 72.4679 202.915C72.8276 202.915 73.1577 202.959 73.4581 203.048C73.7628 203.133 74.0337 203.271 74.2706 203.461C74.5076 203.647 74.7086 203.897 74.8737 204.21C75.0429 204.519 75.172 204.898 75.2609 205.346C75.3498 205.795 75.3942 206.322 75.3942 206.927ZM74.2135 208.526V206.73C74.2135 206.315 74.1881 205.951 74.1373 205.638C74.0908 205.321 74.021 205.05 73.9279 204.826C73.8348 204.601 73.7163 204.419 73.5724 204.28C73.4328 204.14 73.2698 204.039 73.0836 203.975C72.9017 203.907 72.6964 203.874 72.4679 203.874C72.1886 203.874 71.9411 203.926 71.7252 204.032C71.5094 204.134 71.3275 204.297 71.1793 204.521C71.0355 204.745 70.9254 205.039 70.8493 205.403C70.7731 205.767 70.735 206.209 70.735 206.73V208.526C70.735 208.941 70.7583 209.307 70.8048 209.625C70.8556 209.942 70.9297 210.217 71.027 210.45C71.1243 210.678 71.2428 210.867 71.3825 211.015C71.5221 211.163 71.6829 211.273 71.8649 211.345C72.0511 211.412 72.2563 211.446 72.4806 211.446C72.7684 211.446 73.0202 211.391 73.236 211.281C73.4518 211.171 73.6317 211 73.7755 210.767C73.9236 210.53 74.0337 210.228 74.1056 209.859C74.1775 209.487 74.2135 209.043 74.2135 208.526ZM82.7067 206.927V208.336C82.7067 209.093 82.639 209.732 82.5036 210.253C82.3681 210.773 82.1735 211.192 81.9196 211.51C81.6657 211.827 81.3589 212.058 80.9992 212.202C80.6437 212.341 80.2417 212.411 79.7931 212.411C79.4376 212.411 79.1097 212.367 78.8092 212.278C78.5088 212.189 78.2379 212.047 77.9967 211.853C77.7597 211.654 77.5566 211.396 77.3873 211.078C77.2181 210.761 77.089 210.376 77.0001 209.923C76.9113 209.47 76.8668 208.941 76.8668 208.336V206.927C76.8668 206.169 76.9345 205.535 77.07 205.022C77.2096 204.51 77.4064 204.1 77.6603 203.791C77.9142 203.478 78.2189 203.254 78.5744 203.118C78.9341 202.983 79.3361 202.915 79.7804 202.915C80.1401 202.915 80.4702 202.959 80.7706 203.048C81.0753 203.133 81.3462 203.271 81.5831 203.461C81.8201 203.647 82.0211 203.897 82.1862 204.21C82.3554 204.519 82.4845 204.898 82.5734 205.346C82.6623 205.795 82.7067 206.322 82.7067 206.927ZM81.526 208.526V206.73C81.526 206.315 81.5006 205.951 81.4498 205.638C81.4033 205.321 81.3335 205.05 81.2404 204.826C81.1473 204.601 81.0288 204.419 80.8849 204.28C80.7453 204.14 80.5823 204.039 80.3961 203.975C80.2142 203.907 80.0089 203.874 79.7804 203.874C79.5011 203.874 79.2536 203.926 79.0377 204.032C78.8219 204.134 78.64 204.297 78.4918 204.521C78.348 204.745 78.2379 205.039 78.1618 205.403C78.0856 205.767 78.0475 206.209 78.0475 206.73V208.526C78.0475 208.941 78.0708 209.307 78.1173 209.625C78.1681 209.942 78.2422 210.217 78.3395 210.45C78.4368 210.678 78.5553 210.867 78.695 211.015C78.8346 211.163 78.9954 211.273 79.1774 211.345C79.3636 211.412 79.5688 211.446 79.7931 211.446C80.0809 211.446 80.3327 211.391 80.5485 211.281C80.7643 211.171 80.9442 211 81.088 210.767C81.2361 210.53 81.3462 210.228 81.4181 209.859C81.49 209.487 81.526 209.043 81.526 208.526Z" fill="#718EBF"/>
<path d="M65.3095 262.368V263.333H59.2602V262.488L62.288 259.118C62.6604 258.703 62.9481 258.352 63.1513 258.064C63.3586 257.772 63.5025 257.512 63.5829 257.283C63.6675 257.05 63.7099 256.813 63.7099 256.572C63.7099 256.268 63.6464 255.993 63.5194 255.747C63.3967 255.497 63.2147 255.299 62.9735 255.15C62.7323 255.002 62.4403 254.928 62.0976 254.928C61.6871 254.928 61.3443 255.009 61.0692 255.169C60.7984 255.326 60.5953 255.546 60.4599 255.83C60.3244 256.113 60.2567 256.439 60.2567 256.807H59.0824C59.0824 256.287 59.1967 255.811 59.4252 255.379C59.6537 254.947 59.9922 254.604 60.4408 254.351C60.8894 254.092 61.4416 253.963 62.0976 253.963C62.6815 253.963 63.1809 254.067 63.5956 254.274C64.0103 254.478 64.3277 254.765 64.5477 255.138C64.772 255.506 64.8842 255.938 64.8842 256.433C64.8842 256.703 64.8376 256.979 64.7445 257.258C64.6557 257.533 64.5308 257.808 64.37 258.083C64.2134 258.358 64.0294 258.629 63.8178 258.896C63.6104 259.162 63.3882 259.424 63.1513 259.683L60.6757 262.368H65.3095ZM72.3681 257.975V259.384C72.3681 260.142 72.3004 260.781 72.1649 261.301C72.0295 261.822 71.8349 262.241 71.581 262.558C71.327 262.875 71.0202 263.106 70.6605 263.25C70.3051 263.39 69.9031 263.459 69.4545 263.459C69.099 263.459 68.7711 263.415 68.4706 263.326C68.1701 263.237 67.8993 263.096 67.6581 262.901C67.4211 262.702 67.218 262.444 67.0487 262.126C66.8795 261.809 66.7504 261.424 66.6615 260.971C66.5727 260.518 66.5282 259.989 66.5282 259.384V257.975C66.5282 257.218 66.5959 256.583 66.7313 256.071C66.871 255.559 67.0678 255.148 67.3217 254.839C67.5756 254.526 67.8803 254.302 68.2357 254.167C68.5954 254.031 68.9975 253.963 69.4418 253.963C69.8015 253.963 70.1316 254.008 70.432 254.097C70.7367 254.181 71.0075 254.319 71.2445 254.509C71.4815 254.695 71.6825 254.945 71.8476 255.258C72.0168 255.567 72.1459 255.946 72.2348 256.395C72.3236 256.843 72.3681 257.37 72.3681 257.975ZM71.1874 259.575V257.778C71.1874 257.364 71.162 257 71.1112 256.687C71.0647 256.369 70.9949 256.098 70.9018 255.874C70.8087 255.65 70.6902 255.468 70.5463 255.328C70.4066 255.188 70.2437 255.087 70.0575 255.023C69.8755 254.956 69.6703 254.922 69.4418 254.922C69.1625 254.922 68.9149 254.975 68.6991 255.081C68.4833 255.182 68.3013 255.345 68.1532 255.569C68.0093 255.794 67.8993 256.088 67.8231 256.452C67.747 256.816 67.7089 257.258 67.7089 257.778V259.575C67.7089 259.989 67.7322 260.355 67.7787 260.673C67.8295 260.99 67.9035 261.265 68.0009 261.498C68.0982 261.727 68.2167 261.915 68.3563 262.063C68.496 262.211 68.6568 262.321 68.8388 262.393C69.025 262.461 69.2302 262.495 69.4545 262.495C69.7422 262.495 69.994 262.44 70.2099 262.33C70.4257 262.22 70.6055 262.048 70.7494 261.815C70.8975 261.578 71.0075 261.276 71.0795 260.908C71.1514 260.535 71.1874 260.091 71.1874 259.575ZM79.6806 257.975V259.384C79.6806 260.142 79.6129 260.781 79.4774 261.301C79.342 261.822 79.1474 262.241 78.8935 262.558C78.6395 262.875 78.3327 263.106 77.973 263.25C77.6176 263.39 77.2156 263.459 76.767 263.459C76.4115 263.459 76.0836 263.415 75.7831 263.326C75.4826 263.237 75.2118 263.096 74.9706 262.901C74.7336 262.702 74.5305 262.444 74.3612 262.126C74.192 261.809 74.0629 261.424 73.974 260.971C73.8852 260.518 73.8407 259.989 73.8407 259.384V257.975C73.8407 257.218 73.9084 256.583 74.0438 256.071C74.1835 255.559 74.3803 255.148 74.6342 254.839C74.8881 254.526 75.1928 254.302 75.5482 254.167C75.9079 254.031 76.31 253.963 76.7543 253.963C77.114 253.963 77.4441 254.008 77.7445 254.097C78.0492 254.181 78.32 254.319 78.557 254.509C78.794 254.695 78.995 254.945 79.1601 255.258C79.3293 255.567 79.4584 255.946 79.5473 256.395C79.6361 256.843 79.6806 257.37 79.6806 257.975ZM78.4999 259.575V257.778C78.4999 257.364 78.4745 257 78.4237 256.687C78.3772 256.369 78.3074 256.098 78.2143 255.874C78.1212 255.65 78.0027 255.468 77.8588 255.328C77.7191 255.188 77.5562 255.087 77.37 255.023C77.188 254.956 76.9828 254.922 76.7543 254.922C76.475 254.922 76.2274 254.975 76.0116 255.081C75.7958 255.182 75.6138 255.345 75.4657 255.569C75.3218 255.794 75.2118 256.088 75.1356 256.452C75.0595 256.816 75.0214 257.258 75.0214 257.778V259.575C75.0214 259.989 75.0447 260.355 75.0912 260.673C75.142 260.99 75.216 261.265 75.3134 261.498C75.4107 261.727 75.5292 261.915 75.6688 262.063C75.8085 262.211 75.9693 262.321 76.1513 262.393C76.3375 262.461 76.5427 262.495 76.767 262.495C77.0547 262.495 77.3065 262.44 77.5224 262.33C77.7382 262.22 77.918 262.048 78.0619 261.815C78.21 261.578 78.32 261.276 78.392 260.908C78.4639 260.535 78.4999 260.091 78.4999 259.575Z" fill="#718EBF"/>
<path d="M58.374 305.961V315.254H57.1997V307.427L54.832 308.29V307.23L58.1899 305.961H58.374ZM67.6289 309.896V311.305C67.6289 312.063 67.5612 312.702 67.4258 313.222C67.2904 313.743 67.0957 314.162 66.8418 314.479C66.5879 314.797 66.2811 315.027 65.9214 315.171C65.5659 315.311 65.1639 315.381 64.7153 315.381C64.3599 315.381 64.0319 315.336 63.7315 315.247C63.431 315.158 63.1602 315.017 62.919 314.822C62.682 314.623 62.4788 314.365 62.3096 314.048C62.1403 313.73 62.0112 313.345 61.9224 312.892C61.8335 312.44 61.7891 311.911 61.7891 311.305V309.896C61.7891 309.139 61.8568 308.504 61.9922 307.992C62.1318 307.48 62.3286 307.069 62.5825 306.76C62.8364 306.447 63.1411 306.223 63.4966 306.088C63.8563 305.952 64.2583 305.885 64.7026 305.885C65.0623 305.885 65.3924 305.929 65.6929 306.018C65.9976 306.102 66.2684 306.24 66.5054 306.43C66.7424 306.617 66.9434 306.866 67.1084 307.179C67.2777 307.488 67.4067 307.867 67.4956 308.316C67.5845 308.764 67.6289 309.291 67.6289 309.896ZM66.4482 311.496V309.699C66.4482 309.285 66.4229 308.921 66.3721 308.608C66.3255 308.29 66.2557 308.019 66.1626 307.795C66.0695 307.571 65.951 307.389 65.8071 307.249C65.6675 307.11 65.5046 307.008 65.3184 306.945C65.1364 306.877 64.9312 306.843 64.7026 306.843C64.4233 306.843 64.1758 306.896 63.96 307.002C63.7441 307.103 63.5622 307.266 63.4141 307.49C63.2702 307.715 63.1602 308.009 63.084 308.373C63.0078 308.737 62.9697 309.179 62.9697 309.699V311.496C62.9697 311.911 62.993 312.277 63.0396 312.594C63.0903 312.911 63.1644 313.186 63.2617 313.419C63.3591 313.648 63.4775 313.836 63.6172 313.984C63.7568 314.132 63.9177 314.242 64.0996 314.314C64.2858 314.382 64.4911 314.416 64.7153 314.416C65.0031 314.416 65.2549 314.361 65.4707 314.251C65.6865 314.141 65.8664 313.969 66.0103 313.737C66.1584 313.5 66.2684 313.197 66.3403 312.829C66.4123 312.456 66.4482 312.012 66.4482 311.496ZM74.9414 309.896V311.305C74.9414 312.063 74.8737 312.702 74.7383 313.222C74.6029 313.743 74.4082 314.162 74.1543 314.479C73.9004 314.797 73.5936 315.027 73.2339 315.171C72.8784 315.311 72.4764 315.381 72.0278 315.381C71.6724 315.381 71.3444 315.336 71.044 315.247C70.7435 315.158 70.4727 315.017 70.2315 314.822C69.9945 314.623 69.7913 314.365 69.6221 314.048C69.4528 313.73 69.3237 313.345 69.2349 312.892C69.146 312.44 69.1016 311.911 69.1016 311.305V309.896C69.1016 309.139 69.1693 308.504 69.3047 307.992C69.4443 307.48 69.6411 307.069 69.895 306.76C70.1489 306.447 70.4536 306.223 70.8091 306.088C71.1688 305.952 71.5708 305.885 72.0151 305.885C72.3748 305.885 72.7049 305.929 73.0054 306.018C73.3101 306.102 73.5809 306.24 73.8179 306.43C74.0549 306.617 74.2559 306.866 74.4209 307.179C74.5902 307.488 74.7192 307.867 74.8081 308.316C74.897 308.764 74.9414 309.291 74.9414 309.896ZM73.7607 311.496V309.699C73.7607 309.285 73.7354 308.921 73.6846 308.608C73.638 308.29 73.5682 308.019 73.4751 307.795C73.382 307.571 73.2635 307.389 73.1196 307.249C72.98 307.11 72.8171 307.008 72.6309 306.945C72.4489 306.877 72.2437 306.843 72.0151 306.843C71.7358 306.843 71.4883 306.896 71.2725 307.002C71.0566 307.103 70.8747 307.266 70.7266 307.49C70.5827 307.715 70.4727 308.009 70.3965 308.373C70.3203 308.737 70.2822 309.179 70.2822 309.699V311.496C70.2822 311.911 70.3055 312.277 70.3521 312.594C70.4028 312.911 70.4769 313.186 70.5742 313.419C70.6716 313.648 70.79 313.836 70.9297 313.984C71.0693 314.132 71.2302 314.242 71.4121 314.314C71.5983 314.382 71.8036 314.416 72.0278 314.416C72.3156 314.416 72.5674 314.361 72.7832 314.251C72.999 314.141 73.1789 313.969 73.3228 313.737C73.4709 313.5 73.5809 313.197 73.6528 312.829C73.7248 312.456 73.7607 312.012 73.7607 311.496Z" fill="#718EBF"/>
<path d="M74.9417 361.817V363.226C74.9417 363.984 74.874 364.623 74.7385 365.143C74.6031 365.664 74.4085 366.083 74.1546 366.4C73.9006 366.717 73.5938 366.948 73.2341 367.092C72.8787 367.231 72.4767 367.301 72.0281 367.301C71.6726 367.301 71.3447 367.257 71.0442 367.168C70.7437 367.079 70.4729 366.937 70.2317 366.743C69.9947 366.544 69.7916 366.286 69.6223 365.968C69.4531 365.651 69.324 365.266 69.2351 364.813C69.1463 364.36 69.1018 363.831 69.1018 363.226V361.817C69.1018 361.059 69.1695 360.425 69.3049 359.913C69.4446 359.401 69.6414 358.99 69.8953 358.681C70.1492 358.368 70.4539 358.144 70.8093 358.008C71.169 357.873 71.5711 357.805 72.0154 357.805C72.3751 357.805 72.7052 357.85 73.0056 357.938C73.3103 358.023 73.5811 358.161 73.8181 358.351C74.0551 358.537 74.2561 358.787 74.4212 359.1C74.5904 359.409 74.7195 359.788 74.8084 360.236C74.8972 360.685 74.9417 361.212 74.9417 361.817ZM73.761 363.417V361.62C73.761 361.205 73.7356 360.841 73.6848 360.528C73.6383 360.211 73.5685 359.94 73.4754 359.716C73.3823 359.492 73.2638 359.31 73.1199 359.17C72.9802 359.03 72.8173 358.929 72.6311 358.865C72.4492 358.798 72.2439 358.764 72.0154 358.764C71.7361 358.764 71.4885 358.817 71.2727 358.922C71.0569 359.024 70.8749 359.187 70.7268 359.411C70.5829 359.635 70.4729 359.93 70.3967 360.293C70.3206 360.657 70.2825 361.1 70.2825 361.62V363.417C70.2825 363.831 70.3058 364.197 70.3523 364.515C70.4031 364.832 70.4771 365.107 70.5745 365.34C70.6718 365.568 70.7903 365.757 70.9299 365.905C71.0696 366.053 71.2304 366.163 71.4124 366.235C71.5986 366.303 71.8038 366.336 72.0281 366.336C72.3158 366.336 72.5676 366.281 72.7835 366.171C72.9993 366.061 73.1791 365.89 73.323 365.657C73.4711 365.42 73.5811 365.118 73.6531 364.75C73.725 364.377 73.761 363.933 73.761 363.417Z" fill="#718EBF"/>
<rect x="131.907" y="116.618" width="21.049" height="249.782" rx="10.5245" fill="#911A1D"/>
<rect x="169.796" y="238.703" width="21.049" height="127.698" rx="10.5245" fill="#FFADB0"/>
<rect x="258.202" y="183.976" width="21.049" height="182.425" rx="10.5245" fill="#911A1D"/>
<rect x="296.09" y="297.64" width="21.049" height="68.7602" rx="10.5245" fill="#FFADB0"/>
<rect x="384.496" y="195.202" width="21.049" height="171.199" rx="10.5245" fill="#911A1D"/>
<rect x="422.384" y="228.88" width="21.049" height="137.52" rx="10.5245" fill="#FFADB0"/>
<rect x="510.79" y="116.618" width="21.049" height="249.782" rx="10.5245" fill="#911A1D"/>
<rect x="548.678" y="172.749" width="21.049" height="193.651" rx="10.5245" fill="#FFADB0"/>
<rect x="637.084" y="286.414" width="21.049" height="79.9864" rx="10.5245" fill="#911A1D"/>
<rect x="674.973" y="238.703" width="21.049" height="127.698" rx="10.5245" fill="#FFADB0"/>
<rect x="763.379" y="162.927" width="21.049" height="203.474" rx="10.5245" fill="#911A1D"/>
<rect x="801.267" y="238.703" width="21.049" height="127.698" rx="10.5245" fill="#FFADB0"/>
<rect x="889.673" y="160.12" width="21.049" height="206.281" rx="10.5245" fill="#911A1D"/>
<rect x="927.561" y="189.588" width="21.049" height="176.812" rx="10.5245" fill="#FFADB0"/>
<circle cx="618.869" cy="54.3501" r="12.105" fill="#911A1D"/>
<path d="M654.31 43.2285V53.8926H652.918V43.2285H654.31ZM657.737 43.2285V44.3857H649.498V43.2285H657.737ZM658.023 50.0181V49.8496C658.023 49.2783 658.106 48.7485 658.272 48.2603C658.438 47.7671 658.677 47.3398 658.99 46.9785C659.302 46.6123 659.681 46.3291 660.125 46.1289C660.569 45.9238 661.067 45.8213 661.619 45.8213C662.176 45.8213 662.676 45.9238 663.121 46.1289C663.57 46.3291 663.951 46.6123 664.263 46.9785C664.581 47.3398 664.822 47.7671 664.988 48.2603C665.154 48.7485 665.237 49.2783 665.237 49.8496V50.0181C665.237 50.5894 665.154 51.1191 664.988 51.6074C664.822 52.0957 664.581 52.5229 664.263 52.8892C663.951 53.2505 663.572 53.5337 663.128 53.7388C662.688 53.939 662.19 54.0391 661.634 54.0391C661.077 54.0391 660.577 53.939 660.132 53.7388C659.688 53.5337 659.307 53.2505 658.99 52.8892C658.677 52.5229 658.438 52.0957 658.272 51.6074C658.106 51.1191 658.023 50.5894 658.023 50.0181ZM659.378 49.8496V50.0181C659.378 50.4136 659.424 50.7871 659.517 51.1387C659.61 51.4854 659.749 51.793 659.935 52.0615C660.125 52.3301 660.362 52.5425 660.645 52.6987C660.928 52.8501 661.258 52.9258 661.634 52.9258C662.005 52.9258 662.33 52.8501 662.608 52.6987C662.891 52.5425 663.125 52.3301 663.311 52.0615C663.497 51.793 663.636 51.4854 663.729 51.1387C663.826 50.7871 663.875 50.4136 663.875 50.0181V49.8496C663.875 49.459 663.826 49.0903 663.729 48.7437C663.636 48.3921 663.494 48.082 663.304 47.8135C663.118 47.54 662.884 47.3252 662.601 47.1689C662.322 47.0127 661.995 46.9346 661.619 46.9346C661.248 46.9346 660.921 47.0127 660.638 47.1689C660.359 47.3252 660.125 47.54 659.935 47.8135C659.749 48.082 659.61 48.3921 659.517 48.7437C659.424 49.0903 659.378 49.459 659.378 49.8496ZM662.234 42.9941L664.241 44.9204H662.989L661.546 43.5581L660.11 44.9204H658.865L660.857 42.9941H662.234ZM664.468 43.9097H663.626L663.619 42.9429C663.833 42.9282 664.007 42.9062 664.139 42.877C664.271 42.8477 664.368 42.8037 664.432 42.7451C664.495 42.6816 664.527 42.5962 664.527 42.4888C664.527 42.3667 664.48 42.2715 664.388 42.2031C664.295 42.1299 664.17 42.0786 664.014 42.0493C663.858 42.0151 663.685 41.998 663.494 41.998L663.538 41.3169C663.851 41.3169 664.124 41.3462 664.358 41.4048C664.598 41.4585 664.798 41.5391 664.959 41.6465C665.125 41.749 665.25 41.8735 665.333 42.02C665.416 42.1616 665.457 42.3228 665.457 42.5034C665.457 42.8208 665.354 43.0527 665.149 43.1992C664.949 43.3408 664.725 43.4287 664.476 43.4629L664.468 43.9097ZM668.292 47.6597V53.8926H666.937V45.9678H668.218L668.292 47.6597ZM667.969 49.6299L667.405 49.6079C667.41 49.0659 667.491 48.5654 667.647 48.1064C667.803 47.6426 668.023 47.2397 668.306 46.8979C668.589 46.5562 668.926 46.2925 669.317 46.1069C669.712 45.9165 670.149 45.8213 670.628 45.8213C671.019 45.8213 671.37 45.875 671.683 45.9824C671.995 46.085 672.261 46.251 672.481 46.4805C672.706 46.71 672.876 47.0078 672.994 47.374C673.111 47.7354 673.169 48.1772 673.169 48.6997V53.8926H671.807V48.6851C671.807 48.27 671.746 47.938 671.624 47.689C671.502 47.4351 671.324 47.252 671.089 47.1396C670.855 47.0225 670.567 46.9639 670.225 46.9639C669.888 46.9639 669.581 47.0347 669.302 47.1763C669.029 47.3179 668.792 47.5132 668.592 47.7622C668.396 48.0112 668.243 48.2969 668.13 48.6191C668.023 48.9365 667.969 49.2734 667.969 49.6299ZM680.362 45.9678H681.592V53.7241C681.592 54.4224 681.451 55.0181 681.167 55.5112C680.884 56.0044 680.489 56.3779 679.981 56.6318C679.478 56.8906 678.897 57.02 678.238 57.02C677.964 57.02 677.642 56.9761 677.271 56.8882C676.905 56.8052 676.543 56.6611 676.187 56.4561C675.835 56.2559 675.54 55.9849 675.301 55.6431L676.011 54.8374C676.343 55.2378 676.69 55.5161 677.051 55.6724C677.417 55.8286 677.779 55.9067 678.135 55.9067C678.565 55.9067 678.936 55.8262 679.249 55.665C679.561 55.5039 679.803 55.2646 679.974 54.9473C680.149 54.6348 680.237 54.249 680.237 53.79V47.7109L680.362 45.9678ZM674.905 50.0181V49.8643C674.905 49.2588 674.976 48.7095 675.118 48.2163C675.264 47.7183 675.472 47.291 675.74 46.9346C676.014 46.5781 676.343 46.3047 676.729 46.1143C677.115 45.9189 677.549 45.8213 678.033 45.8213C678.531 45.8213 678.965 45.9092 679.336 46.085C679.712 46.2559 680.03 46.5073 680.289 46.8394C680.552 47.1665 680.76 47.562 680.911 48.0259C681.062 48.4897 681.167 49.0146 681.226 49.6006V50.2744C681.172 50.8555 681.067 51.3779 680.911 51.8418C680.76 52.3057 680.552 52.7012 680.289 53.0283C680.03 53.3555 679.712 53.6069 679.336 53.7827C678.96 53.9536 678.521 54.0391 678.018 54.0391C677.544 54.0391 677.115 53.939 676.729 53.7388C676.348 53.5386 676.021 53.2578 675.748 52.8965C675.474 52.5352 675.264 52.1104 675.118 51.6221C674.976 51.1289 674.905 50.5942 674.905 50.0181ZM676.26 49.8643V50.0181C676.26 50.4136 676.299 50.7847 676.377 51.1313C676.46 51.478 676.585 51.7832 676.751 52.0469C676.922 52.3105 677.139 52.5181 677.403 52.6694C677.667 52.8159 677.981 52.8892 678.348 52.8892C678.797 52.8892 679.168 52.7939 679.461 52.6035C679.754 52.4131 679.986 52.1616 680.157 51.8491C680.333 51.5366 680.469 51.1973 680.567 50.8311V49.0659C680.513 48.7974 680.43 48.5386 680.318 48.2896C680.21 48.0356 680.069 47.811 679.893 47.6157C679.722 47.4155 679.51 47.2568 679.256 47.1396C679.002 47.0225 678.704 46.9639 678.362 46.9639C677.991 46.9639 677.671 47.042 677.403 47.1982C677.139 47.3496 676.922 47.5596 676.751 47.8281C676.585 48.0918 676.46 48.3994 676.377 48.751C676.299 49.0977 676.26 49.4688 676.26 49.8643ZM688.843 42.6426V53.8926H687.481V42.6426H688.843ZM692.491 45.9678V53.8926H691.128V45.9678H692.491ZM691.026 43.8657C691.026 43.646 691.092 43.4604 691.224 43.3091C691.36 43.1577 691.561 43.082 691.824 43.082C692.083 43.082 692.281 43.1577 692.417 43.3091C692.559 43.4604 692.63 43.646 692.63 43.8657C692.63 44.0757 692.559 44.2563 692.417 44.4077C692.281 44.5542 692.083 44.6274 691.824 44.6274C691.561 44.6274 691.36 44.5542 691.224 44.4077C691.092 44.2563 691.026 44.0757 691.026 43.8657ZM690.967 55.6211C690.967 55.4014 691.033 55.2158 691.165 55.0645C691.302 54.9131 691.502 54.8374 691.766 54.8374C692.024 54.8374 692.222 54.9131 692.359 55.0645C692.5 55.2158 692.571 55.4014 692.571 55.6211C692.571 55.8311 692.5 56.0093 692.359 56.1558C692.222 56.3071 692.024 56.3828 691.766 56.3828C691.502 56.3828 691.302 56.3071 691.165 56.1558C691.033 56.0093 690.967 55.8311 690.967 55.6211ZM697.837 52.9258C698.16 52.9258 698.458 52.8599 698.731 52.728C699.004 52.5962 699.229 52.4155 699.405 52.186C699.581 51.9517 699.681 51.6855 699.705 51.3877H700.994C700.97 51.8564 700.811 52.2935 700.518 52.6987C700.23 53.0991 699.852 53.4238 699.383 53.6729C698.914 53.917 698.399 54.0391 697.837 54.0391C697.242 54.0391 696.722 53.9341 696.277 53.7241C695.838 53.5142 695.472 53.2261 695.179 52.8599C694.891 52.4937 694.673 52.0737 694.527 51.6001C694.385 51.1216 694.314 50.6162 694.314 50.084V49.7764C694.314 49.2441 694.385 48.7412 694.527 48.2676C694.673 47.7891 694.891 47.3667 695.179 47.0005C695.472 46.6343 695.838 46.3462 696.277 46.1362C696.722 45.9263 697.242 45.8213 697.837 45.8213C698.458 45.8213 699 45.9482 699.463 46.2021C699.927 46.4512 700.291 46.793 700.555 47.2275C700.823 47.6572 700.97 48.1455 700.994 48.6924H699.705C699.681 48.3652 699.588 48.0698 699.427 47.8062C699.271 47.5425 699.056 47.3325 698.782 47.1763C698.514 47.0151 698.199 46.9346 697.837 46.9346C697.422 46.9346 697.073 47.0176 696.79 47.1836C696.512 47.3447 696.29 47.5645 696.124 47.8428C695.962 48.1162 695.845 48.4214 695.772 48.7583C695.704 49.0903 695.669 49.4297 695.669 49.7764V50.084C695.669 50.4307 695.704 50.7725 695.772 51.1094C695.84 51.4463 695.955 51.7515 696.116 52.0249C696.282 52.2983 696.504 52.5181 696.783 52.6841C697.066 52.8452 697.417 52.9258 697.837 52.9258ZM703.873 42.6426V53.8926H702.518V42.6426H703.873ZM703.55 49.6299L702.986 49.6079C702.991 49.0659 703.072 48.5654 703.228 48.1064C703.384 47.6426 703.604 47.2397 703.887 46.8979C704.17 46.5562 704.507 46.2925 704.898 46.1069C705.293 45.9165 705.73 45.8213 706.209 45.8213C706.6 45.8213 706.951 45.875 707.264 45.9824C707.576 46.085 707.842 46.251 708.062 46.4805C708.287 46.71 708.458 47.0078 708.575 47.374C708.692 47.7354 708.75 48.1772 708.75 48.6997V53.8926H707.388V48.6851C707.388 48.27 707.327 47.938 707.205 47.689C707.083 47.4351 706.905 47.252 706.67 47.1396C706.436 47.0225 706.148 46.9639 705.806 46.9639C705.469 46.9639 705.162 47.0347 704.883 47.1763C704.61 47.3179 704.373 47.5132 704.173 47.7622C703.978 48.0112 703.824 48.2969 703.711 48.6191C703.604 48.9365 703.55 49.2734 703.55 49.6299ZM719.495 52.3545V42.6426H720.857V53.8926H719.612L719.495 52.3545ZM714.163 50.0181V49.8643C714.163 49.2588 714.236 48.7095 714.383 48.2163C714.534 47.7183 714.747 47.291 715.02 46.9346C715.298 46.5781 715.628 46.3047 716.009 46.1143C716.395 45.9189 716.824 45.8213 717.298 45.8213C717.796 45.8213 718.23 45.9092 718.602 46.085C718.978 46.2559 719.295 46.5073 719.554 46.8394C719.817 47.1665 720.025 47.562 720.176 48.0259C720.328 48.4897 720.433 49.0146 720.491 49.6006V50.2744C720.438 50.8555 720.333 51.3779 720.176 51.8418C720.025 52.3057 719.817 52.7012 719.554 53.0283C719.295 53.3555 718.978 53.6069 718.602 53.7827C718.226 53.9536 717.786 54.0391 717.283 54.0391C716.819 54.0391 716.395 53.939 716.009 53.7388C715.628 53.5386 715.298 53.2578 715.02 52.8965C714.747 52.5352 714.534 52.1104 714.383 51.6221C714.236 51.1289 714.163 50.5942 714.163 50.0181ZM715.525 49.8643V50.0181C715.525 50.4136 715.564 50.7847 715.643 51.1313C715.726 51.478 715.853 51.7832 716.023 52.0469C716.194 52.3105 716.412 52.5181 716.675 52.6694C716.939 52.8159 717.254 52.8892 717.62 52.8892C718.069 52.8892 718.438 52.7939 718.726 52.6035C719.019 52.4131 719.253 52.1616 719.429 51.8491C719.605 51.5366 719.742 51.1973 719.839 50.8311V49.0659C719.781 48.7974 719.695 48.5386 719.583 48.2896C719.476 48.0356 719.334 47.811 719.158 47.6157C718.987 47.4155 718.775 47.2568 718.521 47.1396C718.272 47.0225 717.977 46.9639 717.635 46.9639C717.264 46.9639 716.944 47.042 716.675 47.1982C716.412 47.3496 716.194 47.5596 716.023 47.8281C715.853 48.0918 715.726 48.3994 715.643 48.751C715.564 49.0977 715.525 49.4688 715.525 49.8643ZM722.234 43.7485V44.8618H717.569V43.7485H722.234ZM728.138 52.5376V48.458C728.138 48.1455 728.074 47.8745 727.947 47.645C727.825 47.4106 727.64 47.23 727.391 47.103C727.142 46.9761 726.834 46.9126 726.468 46.9126C726.126 46.9126 725.826 46.9712 725.567 47.0884C725.313 47.2056 725.113 47.3594 724.966 47.5498C724.825 47.7402 724.754 47.9453 724.754 48.165H723.399C723.399 47.8818 723.472 47.6011 723.619 47.3228C723.765 47.0444 723.975 46.793 724.249 46.5684C724.527 46.3389 724.859 46.1582 725.245 46.0264C725.635 45.8896 726.07 45.8213 726.548 45.8213C727.125 45.8213 727.632 45.9189 728.072 46.1143C728.516 46.3096 728.863 46.605 729.112 47.0005C729.366 47.3911 729.493 47.8818 729.493 48.4727V52.1641C729.493 52.4277 729.515 52.7085 729.559 53.0063C729.607 53.3042 729.678 53.5605 729.771 53.7754V53.8926H728.357C728.289 53.7363 728.235 53.5288 728.196 53.27C728.157 53.0063 728.138 52.7622 728.138 52.5376ZM728.372 49.0879L728.387 50.04H727.017C726.631 50.04 726.287 50.0718 725.984 50.1353C725.682 50.1938 725.428 50.2842 725.223 50.4062C725.018 50.5283 724.861 50.6821 724.754 50.8677C724.646 51.0483 724.593 51.2607 724.593 51.5049C724.593 51.7539 724.649 51.981 724.761 52.186C724.874 52.3911 725.042 52.5547 725.267 52.6768C725.496 52.7939 725.777 52.8525 726.109 52.8525C726.524 52.8525 726.89 52.7646 727.208 52.5889C727.525 52.4131 727.776 52.1982 727.962 51.9443C728.152 51.6904 728.255 51.4438 728.27 51.2046L728.848 51.8564C728.814 52.0615 728.721 52.2886 728.57 52.5376C728.418 52.7866 728.216 53.0259 727.962 53.2554C727.713 53.48 727.415 53.668 727.068 53.8193C726.727 53.9658 726.341 54.0391 725.911 54.0391C725.374 54.0391 724.903 53.9341 724.498 53.7241C724.097 53.5142 723.785 53.2334 723.56 52.8818C723.34 52.5254 723.23 52.1274 723.23 51.688C723.23 51.2632 723.313 50.8896 723.479 50.5674C723.646 50.2402 723.885 49.9692 724.197 49.7544C724.51 49.5347 724.886 49.3687 725.325 49.2563C725.765 49.144 726.255 49.0879 726.797 49.0879H728.372ZM727.786 42.9429H728.885C728.885 43.3237 728.797 43.6631 728.621 43.9609C728.445 44.2539 728.194 44.4834 727.867 44.6494C727.54 44.8154 727.151 44.8984 726.702 44.8984C726.023 44.8984 725.486 44.7178 725.091 44.3564C724.7 43.9902 724.505 43.519 724.505 42.9429H725.604C725.604 43.231 725.687 43.4849 725.853 43.7046C726.019 43.9243 726.302 44.0342 726.702 44.0342C727.093 44.0342 727.371 43.9243 727.537 43.7046C727.703 43.4849 727.786 43.231 727.786 42.9429ZM725.267 55.6943C725.267 55.4746 725.333 55.2891 725.464 55.1377C725.601 54.9863 725.801 54.9106 726.065 54.9106C726.324 54.9106 726.521 54.9863 726.658 55.1377C726.8 55.2891 726.871 55.4746 726.871 55.6943C726.871 55.9043 726.8 56.0825 726.658 56.229C726.521 56.3804 726.324 56.4561 726.065 56.4561C725.801 56.4561 725.601 56.3804 725.464 56.229C725.333 56.0825 725.267 55.9043 725.267 55.6943ZM734.942 45.9678V47.0078H730.657V45.9678H734.942ZM732.107 44.0415H733.462V51.9297C733.462 52.1982 733.504 52.4009 733.587 52.5376C733.67 52.6743 733.777 52.7646 733.909 52.8086C734.041 52.8525 734.183 52.8745 734.334 52.8745C734.446 52.8745 734.563 52.8647 734.686 52.8452C734.812 52.8208 734.908 52.8013 734.971 52.7866L734.979 53.8926C734.871 53.9268 734.729 53.9585 734.554 53.9878C734.383 54.022 734.175 54.0391 733.931 54.0391C733.599 54.0391 733.294 53.9731 733.016 53.8413C732.737 53.7095 732.515 53.4897 732.349 53.1821C732.188 52.8696 732.107 52.4497 732.107 51.9224V44.0415Z" fill="#718EBF"/>
<circle cx="837.2" cy="54.804" r="12.105" fill="#FFADB0"/>
<path d="M872.2 43.2285V53.8926H870.808V43.2285H872.2ZM875.628 43.2285V44.3857H867.388V43.2285H875.628ZM878.36 42.6426V53.8926H877.005V42.6426H878.36ZM878.037 49.6299L877.473 49.6079C877.478 49.0659 877.559 48.5654 877.715 48.1064C877.871 47.6426 878.091 47.2397 878.374 46.8979C878.657 46.5562 878.994 46.2925 879.385 46.1069C879.781 45.9165 880.218 45.8213 880.696 45.8213C881.087 45.8213 881.438 45.875 881.751 45.9824C882.063 46.085 882.329 46.251 882.549 46.4805C882.774 46.71 882.945 47.0078 883.062 47.374C883.179 47.7354 883.238 48.1772 883.238 48.6997V53.8926H881.875V48.6851C881.875 48.27 881.814 47.938 881.692 47.689C881.57 47.4351 881.392 47.252 881.157 47.1396C880.923 47.0225 880.635 46.9639 880.293 46.9639C879.956 46.9639 879.649 47.0347 879.37 47.1763C879.097 47.3179 878.86 47.5132 878.66 47.7622C878.465 48.0112 878.311 48.2969 878.198 48.6191C878.091 48.9365 878.037 49.2734 878.037 49.6299ZM889.939 52.5376V48.458C889.939 48.1455 889.876 47.8745 889.749 47.645C889.627 47.4106 889.441 47.23 889.192 47.103C888.943 46.9761 888.635 46.9126 888.269 46.9126C887.927 46.9126 887.627 46.9712 887.368 47.0884C887.115 47.2056 886.914 47.3594 886.768 47.5498C886.626 47.7402 886.555 47.9453 886.555 48.165H885.2C885.2 47.8818 885.274 47.6011 885.42 47.3228C885.567 47.0444 885.777 46.793 886.05 46.5684C886.328 46.3389 886.66 46.1582 887.046 46.0264C887.437 45.8896 887.871 45.8213 888.35 45.8213C888.926 45.8213 889.434 45.9189 889.873 46.1143C890.318 46.3096 890.664 46.605 890.913 47.0005C891.167 47.3911 891.294 47.8818 891.294 48.4727V52.1641C891.294 52.4277 891.316 52.7085 891.36 53.0063C891.409 53.3042 891.48 53.5605 891.573 53.7754V53.8926H890.159C890.091 53.7363 890.037 53.5288 889.998 53.27C889.959 53.0063 889.939 52.7622 889.939 52.5376ZM890.174 49.0879L890.188 50.04H888.819C888.433 50.04 888.089 50.0718 887.786 50.1353C887.483 50.1938 887.229 50.2842 887.024 50.4062C886.819 50.5283 886.663 50.6821 886.555 50.8677C886.448 51.0483 886.394 51.2607 886.394 51.5049C886.394 51.7539 886.45 51.981 886.563 52.186C886.675 52.3911 886.844 52.5547 887.068 52.6768C887.298 52.7939 887.578 52.8525 887.91 52.8525C888.325 52.8525 888.692 52.7646 889.009 52.5889C889.326 52.4131 889.578 52.1982 889.763 51.9443C889.954 51.6904 890.056 51.4438 890.071 51.2046L890.65 51.8564C890.615 52.0615 890.523 52.2886 890.371 52.5376C890.22 52.7866 890.017 53.0259 889.763 53.2554C889.514 53.48 889.217 53.668 888.87 53.8193C888.528 53.9658 888.142 54.0391 887.713 54.0391C887.176 54.0391 886.704 53.9341 886.299 53.7241C885.899 53.5142 885.586 53.2334 885.362 52.8818C885.142 52.5254 885.032 52.1274 885.032 51.688C885.032 51.2632 885.115 50.8896 885.281 50.5674C885.447 50.2402 885.686 49.9692 885.999 49.7544C886.311 49.5347 886.687 49.3687 887.127 49.2563C887.566 49.144 888.057 49.0879 888.599 49.0879H890.174ZM887.852 42.6426L889.265 44.7959H888.101L886.211 42.6426H887.852ZM894.781 47.6597V53.8926H893.426V45.9678H894.707L894.781 47.6597ZM894.458 49.6299L893.894 49.6079C893.899 49.0659 893.98 48.5654 894.136 48.1064C894.292 47.6426 894.512 47.2397 894.795 46.8979C895.078 46.5562 895.415 46.2925 895.806 46.1069C896.201 45.9165 896.638 45.8213 897.117 45.8213C897.508 45.8213 897.859 45.875 898.172 45.9824C898.484 46.085 898.75 46.251 898.97 46.4805C899.195 46.71 899.365 47.0078 899.483 47.374C899.6 47.7354 899.658 48.1772 899.658 48.6997V53.8926H898.296V48.6851C898.296 48.27 898.235 47.938 898.113 47.689C897.991 47.4351 897.813 47.252 897.578 47.1396C897.344 47.0225 897.056 46.9639 896.714 46.9639C896.377 46.9639 896.07 47.0347 895.791 47.1763C895.518 47.3179 895.281 47.5132 895.081 47.7622C894.885 48.0112 894.732 48.2969 894.619 48.6191C894.512 48.9365 894.458 49.2734 894.458 49.6299ZM903.072 42.6426V53.8926H901.717V42.6426H903.072ZM902.749 49.6299L902.185 49.6079C902.19 49.0659 902.271 48.5654 902.427 48.1064C902.583 47.6426 902.803 47.2397 903.086 46.8979C903.369 46.5562 903.706 46.2925 904.097 46.1069C904.492 45.9165 904.929 45.8213 905.408 45.8213C905.799 45.8213 906.15 45.875 906.463 45.9824C906.775 46.085 907.041 46.251 907.261 46.4805C907.486 46.71 907.656 47.0078 907.774 47.374C907.891 47.7354 907.949 48.1772 907.949 48.6997V53.8926H906.587V48.6851C906.587 48.27 906.526 47.938 906.404 47.689C906.282 47.4351 906.104 47.252 905.869 47.1396C905.635 47.0225 905.347 46.9639 905.005 46.9639C904.668 46.9639 904.361 47.0347 904.082 47.1763C903.809 47.3179 903.572 47.5132 903.372 47.7622C903.177 48.0112 903.023 48.2969 902.91 48.6191C902.803 48.9365 902.749 49.2734 902.749 49.6299ZM916.87 52.9258C917.193 52.9258 917.49 52.8599 917.764 52.728C918.037 52.5962 918.262 52.4155 918.438 52.186C918.614 51.9517 918.714 51.6855 918.738 51.3877H920.027C920.003 51.8564 919.844 52.2935 919.551 52.6987C919.263 53.0991 918.885 53.4238 918.416 53.6729C917.947 53.917 917.432 54.0391 916.87 54.0391C916.275 54.0391 915.755 53.9341 915.31 53.7241C914.871 53.5142 914.505 53.2261 914.212 52.8599C913.924 52.4937 913.706 52.0737 913.56 51.6001C913.418 51.1216 913.347 50.6162 913.347 50.084V49.7764C913.347 49.2441 913.418 48.7412 913.56 48.2676C913.706 47.7891 913.924 47.3667 914.212 47.0005C914.505 46.6343 914.871 46.3462 915.31 46.1362C915.755 45.9263 916.275 45.8213 916.87 45.8213C917.49 45.8213 918.032 45.9482 918.496 46.2021C918.96 46.4512 919.324 46.793 919.588 47.2275C919.856 47.6572 920.003 48.1455 920.027 48.6924H918.738C918.714 48.3652 918.621 48.0698 918.46 47.8062C918.303 47.5425 918.089 47.3325 917.815 47.1763C917.547 47.0151 917.232 46.9346 916.87 46.9346C916.455 46.9346 916.106 47.0176 915.823 47.1836C915.545 47.3447 915.323 47.5645 915.156 47.8428C914.995 48.1162 914.878 48.4214 914.805 48.7583C914.737 49.0903 914.702 49.4297 914.702 49.7764V50.084C914.702 50.4307 914.737 50.7725 914.805 51.1094C914.873 51.4463 914.988 51.7515 915.149 52.0249C915.315 52.2983 915.537 52.5181 915.816 52.6841C916.099 52.8452 916.45 52.9258 916.87 52.9258ZM921.192 50.0181V49.8496C921.192 49.2783 921.275 48.7485 921.441 48.2603C921.607 47.7671 921.846 47.3398 922.158 46.9785C922.471 46.6123 922.849 46.3291 923.294 46.1289C923.738 45.9238 924.236 45.8213 924.788 45.8213C925.344 45.8213 925.845 45.9238 926.289 46.1289C926.739 46.3291 927.119 46.6123 927.432 46.9785C927.749 47.3398 927.991 47.7671 928.157 48.2603C928.323 48.7485 928.406 49.2783 928.406 49.8496V50.0181C928.406 50.5894 928.323 51.1191 928.157 51.6074C927.991 52.0957 927.749 52.5229 927.432 52.8892C927.119 53.2505 926.741 53.5337 926.297 53.7388C925.857 53.939 925.359 54.0391 924.802 54.0391C924.246 54.0391 923.745 53.939 923.301 53.7388C922.857 53.5337 922.476 53.2505 922.158 52.8892C921.846 52.5229 921.607 52.0957 921.441 51.6074C921.275 51.1191 921.192 50.5894 921.192 50.0181ZM922.547 49.8496V50.0181C922.547 50.4136 922.593 50.7871 922.686 51.1387C922.779 51.4854 922.918 51.793 923.103 52.0615C923.294 52.3301 923.531 52.5425 923.814 52.6987C924.097 52.8501 924.427 52.9258 924.802 52.9258C925.174 52.9258 925.498 52.8501 925.777 52.6987C926.06 52.5425 926.294 52.3301 926.48 52.0615C926.665 51.793 926.804 51.4854 926.897 51.1387C926.995 50.7871 927.044 50.4136 927.044 50.0181V49.8496C927.044 49.459 926.995 49.0903 926.897 48.7437C926.804 48.3921 926.663 48.082 926.472 47.8135C926.287 47.54 926.052 47.3252 925.769 47.1689C925.491 47.0127 925.164 46.9346 924.788 46.9346C924.417 46.9346 924.09 47.0127 923.806 47.1689C923.528 47.3252 923.294 47.54 923.103 47.8135C922.918 48.082 922.779 48.3921 922.686 48.7437C922.593 49.0903 922.547 49.459 922.547 49.8496ZM925.139 42.6426L926.956 44.6421V44.7153H925.828L924.729 43.4775L923.638 44.7153H922.525V44.6348L924.319 42.6426H925.139ZM931.46 47.6597V53.8926H930.105V45.9678H931.387L931.46 47.6597ZM931.138 49.6299L930.574 49.6079C930.579 49.0659 930.659 48.5654 930.816 48.1064C930.972 47.6426 931.192 47.2397 931.475 46.8979C931.758 46.5562 932.095 46.2925 932.486 46.1069C932.881 45.9165 933.318 45.8213 933.797 45.8213C934.187 45.8213 934.539 45.875 934.851 45.9824C935.164 46.085 935.43 46.251 935.65 46.4805C935.874 46.71 936.045 47.0078 936.162 47.374C936.28 47.7354 936.338 48.1772 936.338 48.6997V53.8926H934.976V48.6851C934.976 48.27 934.915 47.938 934.793 47.689C934.671 47.4351 934.492 47.252 934.258 47.1396C934.024 47.0225 933.736 46.9639 933.394 46.9639C933.057 46.9639 932.749 47.0347 932.471 47.1763C932.198 47.3179 931.961 47.5132 931.76 47.7622C931.565 48.0112 931.411 48.2969 931.299 48.6191C931.192 48.9365 931.138 49.2734 931.138 49.6299ZM943.531 45.9678H944.761V53.7241C944.761 54.4224 944.619 55.0181 944.336 55.5112C944.053 56.0044 943.657 56.3779 943.15 56.6318C942.647 56.8906 942.066 57.02 941.406 57.02C941.133 57.02 940.811 56.9761 940.44 56.8882C940.073 56.8052 939.712 56.6611 939.356 56.4561C939.004 56.2559 938.709 55.9849 938.469 55.6431L939.18 54.8374C939.512 55.2378 939.859 55.5161 940.22 55.6724C940.586 55.8286 940.948 55.9067 941.304 55.9067C941.734 55.9067 942.105 55.8262 942.417 55.665C942.73 55.5039 942.971 55.2646 943.142 54.9473C943.318 54.6348 943.406 54.249 943.406 53.79V47.7109L943.531 45.9678ZM938.074 50.0181V49.8643C938.074 49.2588 938.145 48.7095 938.286 48.2163C938.433 47.7183 938.64 47.291 938.909 46.9346C939.182 46.5781 939.512 46.3047 939.898 46.1143C940.283 45.9189 940.718 45.8213 941.201 45.8213C941.699 45.8213 942.134 45.9092 942.505 46.085C942.881 46.2559 943.198 46.5073 943.457 46.8394C943.721 47.1665 943.928 47.562 944.08 48.0259C944.231 48.4897 944.336 49.0146 944.395 49.6006V50.2744C944.341 50.8555 944.236 51.3779 944.08 51.8418C943.928 52.3057 943.721 52.7012 943.457 53.0283C943.198 53.3555 942.881 53.6069 942.505 53.7827C942.129 53.9536 941.69 54.0391 941.187 54.0391C940.713 54.0391 940.283 53.939 939.898 53.7388C939.517 53.5386 939.19 53.2578 938.916 52.8965C938.643 52.5352 938.433 52.1104 938.286 51.6221C938.145 51.1289 938.074 50.5942 938.074 50.0181ZM939.429 49.8643V50.0181C939.429 50.4136 939.468 50.7847 939.546 51.1313C939.629 51.478 939.754 51.7832 939.92 52.0469C940.091 52.3105 940.308 52.5181 940.572 52.6694C940.835 52.8159 941.15 52.8892 941.516 52.8892C941.966 52.8892 942.337 52.7939 942.63 52.6035C942.923 52.4131 943.155 52.1616 943.325 51.8491C943.501 51.5366 943.638 51.1973 943.736 50.8311V49.0659C943.682 48.7974 943.599 48.5386 943.487 48.2896C943.379 48.0356 943.238 47.811 943.062 47.6157C942.891 47.4155 942.678 47.2568 942.425 47.1396C942.171 47.0225 941.873 46.9639 941.531 46.9639C941.16 46.9639 940.84 47.042 940.572 47.1982C940.308 47.3496 940.091 47.5596 939.92 47.8281C939.754 48.0918 939.629 48.3994 939.546 48.751C939.468 49.0977 939.429 49.4688 939.429 49.8643Z" fill="#718EBF"/>
</svg>
